<svg fill="none" height="400" viewBox="0 0 400 400" width="400" xmlns="http://www.w3.org/2000/svg" xmlns:xlink="http://www.w3.org/1999/xlink"><clipPath id="a"><path d="m20 64h360v272h-360z"/></clipPath><path d="m0 0h400v400h-400z" fill="#f8fafc"/><g clip-path="url(#a)"><path d="m263.942 232.991c14.852 0 26.891-13.428 26.891-29.993 0-16.564-12.039-29.992-26.891-29.992s-26.891 13.428-26.891 29.992c0 16.565 12.039 29.993 26.891 29.993z" fill="#f87171" opacity=".4"/><path d="m264.556 244.498h-149.957v45.33h149.957z" fill="#991b1b"/><path d="m264.731 335.939h-150.307v-250.0942h150.307zm-149.606-.782h148.905v-248.5306h-148.905z" fill="#991b1b"/><path d="m264.556 91.7772h-149.607v.7816h149.607z" fill="#991b1b"/><path d="m118.803 90.5341c.774 0 1.402-.6998 1.402-1.5631 0-.8632-.628-1.563-1.402-1.563s-1.401.6998-1.401 1.563c0 .8633.627 1.5631 1.401 1.5631z" fill="#f87171"/><path d="m122.657 90.5341c.774 0 1.402-.6998 1.402-1.5631 0-.8632-.628-1.563-1.402-1.563s-1.401.6998-1.401 1.563c0 .8633.627 1.5631 1.401 1.5631z" fill="#f87171"/><path d="m126.511 90.5341c.774 0 1.402-.6998 1.402-1.5631 0-.8632-.628-1.563-1.402-1.563s-1.401.6998-1.401 1.563c0 .8633.627 1.5631 1.401 1.5631z" fill="#f87171"/><path d="m126.511 97.1772h-6.306v3.9078h6.306z" fill="#f87171"/><path d="m151.037 128.048h-30.832v3.908h30.832z" fill="#f87171"/><g fill="#fee2e2"><path d="m229.869 101.085h30.833v-3.9078h-30.833z"/><path d="m172.059 134.691h-51.854v2.345h51.854z"/><path d="m169.256 139.771h-49.051v2.345h49.051z"/><path d="m155.942 144.851h-35.737v2.345h35.737z"/><path d="m152.438 214.409h-20.321v2.344h20.321z"/><path d="m151.34 219.489h-19.223v2.344h19.223z"/><path d="m146.122 224.569h-14.005v2.344h14.005z"/><path d="m199.738 214.409h-20.321v2.344h20.321z"/><path d="m198.639 219.489h-19.222v2.344h19.222z"/><path d="m193.422 224.569h-14.005v2.344h14.005z"/><path d="m248.789 214.409h-20.321v2.344h20.321z"/><path d="m247.691 219.489h-19.223v2.344h19.223z"/><path d="m242.473 224.569h-14.005v2.344h14.005z"/></g><path d="m194.483 303.114h-30.833v3.908h30.833z" fill="#f87171"/><path d="m215.505 309.757h-51.855v2.345h51.855z" fill="#fee2e2"/><path d="m212.702 314.837h-49.052v2.345h49.052z" fill="#fee2e2"/><path d="m199.388 319.917h-35.738v2.345h35.738z" fill="#fee2e2"/><path d="m251.417 170.252h-121.927v.781h121.927z" fill="#f87171" opacity=".3"/><path d="m155.242 183.929h-25.928v25.791h25.928z" fill="#f87171" opacity=".3"/><path d="m202.541 183.929h-25.927v25.791h25.927z" fill="#991b1b"/><path d="m251.592 183.929h-25.927v25.791h25.927z" fill="#991b1b"/><path d="m186.199 209.611-.342-.007c.008-.423.222-10.38 3.736-13.132l.197.312c-3.373 2.641-3.589 12.726-3.591 12.827z" fill="#f87171"/><path d="m191.402 196.346c.944 0 1.71-.854 1.71-1.907 0-1.054-.766-1.908-1.71-1.908-.945 0-1.711.854-1.711 1.908 0 1.053.766 1.907 1.711 1.907z" fill="#f87171"/><path d="m191.056 201.174c-.89.312-1.838.357-2.748.132.578-.821 1.357-1.437 2.242-1.776s1.839-.385 2.747-.132c-.595.8-1.368 1.413-2.241 1.776z" fill="#f87171"/><path d="m235.251 209.611-.342-.007c.007-.423.221-10.38 3.735-13.132l.197.312c-3.373 2.641-3.589 12.726-3.59 12.827z" fill="#f87171"/><path d="m240.453 196.346c.945 0 1.71-.854 1.71-1.907 0-1.054-.765-1.908-1.71-1.908s-1.71.854-1.71 1.908c0 1.053.765 1.907 1.71 1.907z" fill="#f87171"/><path d="m240.107 201.174c-.89.312-1.837.357-2.748.132.578-.821 1.357-1.437 2.242-1.776s1.839-.385 2.748-.132c-.595.8-1.368 1.413-2.242 1.776z" fill="#f87171"/><path d="m151.037 258.957h-30.832v3.908h30.832z" fill="#f87171"/><path d="m172.059 265.6h-51.854v2.344h51.854z" fill="#fee2e2"/><path d="m169.256 270.68h-49.051v2.345h49.051z" fill="#fee2e2"/><path d="m155.942 275.76h-35.737v2.345h35.737z" fill="#fee2e2"/><path d="m234.337 276.56c6.047 0 10.949-5.467 10.949-12.211 0-6.743-4.902-12.21-10.949-12.21-6.046 0-10.948 5.467-10.948 12.21 0 6.744 4.902 12.211 10.948 12.211z" fill="#f87171" opacity=".4"/><path d="m214.075 278.747c4.242 0 7.68-3.835 7.68-8.566 0-4.73-3.438-8.566-7.68-8.566-4.241 0-7.68 3.836-7.68 8.566 0 4.731 3.439 8.566 7.68 8.566z" fill="#f87171" opacity=".4"/><path d="m78.6863 322.457c15.2866 0 27.6787-13.821 27.6787-30.871 0-17.049-12.3921-30.871-27.6787-30.871-15.2867 0-27.679 13.822-27.679 30.871 0 17.05 12.3923 30.871 27.679 30.871z" fill="#dc2626"/><path d="m74.482 315.814h-8.4088v16.803h8.4088z" fill="#dc2626"/><path d="m91.2994 315.814h-8.4088v16.803h8.4088z" fill="#dc2626"/><path d="m73.0806 335.743c3.87 0 7.0073-1.312 7.0073-2.93 0-1.619-3.1373-2.931-7.0073-2.931-3.8701 0-7.0074 1.312-7.0074 2.931 0 1.618 3.1373 2.93 7.0074 2.93z" fill="#dc2626"/><path d="m89.898 335.353c3.87 0 7.0073-1.313 7.0073-2.931 0-1.619-3.1373-2.931-7.0073-2.931-3.8701 0-7.0074 1.312-7.0074 2.931 0 1.618 3.1373 2.931 7.0074 2.931z" fill="#dc2626"/><path d="m79.3871 294.322c5.2246 0 9.4599-4.724 9.4599-10.551s-4.2353-10.551-9.4599-10.551c-5.2245 0-9.4599 4.724-9.4599 10.551s4.2354 10.551 9.4599 10.551z" fill="#fff"/><path d="m79.5624 312.921c2.709 0 4.9051-2.449 4.9051-5.47 0-3.022-2.1961-5.471-4.9051-5.471-2.7091 0-4.9052 2.449-4.9052 5.471 0 3.021 2.1961 5.47 4.9052 5.47z" fill="#fff"/><path d="m79.3872 282.598c1.7415 0 3.1533-1.574 3.1533-3.516 0-1.943-1.4118-3.517-3.1533-3.517s-3.1533 1.574-3.1533 3.517c0 1.942 1.4118 3.516 3.1533 3.516z" fill="#991b1b"/><path d="m103.57 259.469c3.221-7.731 4.068-14.913 1.892-16.04-2.176-1.128-6.5512 4.225-9.7721 11.956s-4.068 14.912-1.892 16.04c2.1761 1.127 6.5511-4.225 9.7721-11.956z" fill="#dc2626"/><path d="m55.3015 280.447c2.1207-1.252.9412-8.375-2.6346-15.909-3.5757-7.534-8.1936-12.627-10.3143-11.375s-.9412 8.375 2.6346 15.909c3.5757 7.534 8.1936 12.627 10.3143 11.375z" fill="#dc2626"/><path d="m312.279 283.031c2.239-.962 1.825-8.191-.923-16.145-2.749-7.955-6.793-13.623-9.032-12.66-2.238.962-1.825 8.191.924 16.145s6.792 13.623 9.031 12.66z" fill="#dc2626"/><path d="m332.944 322.731c15.286 0 27.679-13.821 27.679-30.871 0-17.049-12.393-30.87-27.679-30.87-15.287 0-27.679 13.821-27.679 30.87 0 17.05 12.392 30.871 27.679 30.871z" fill="#dc2626"/><path d="m337.25 332.877 8.409-.027-.042-16.803-8.409.026z" fill="#dc2626"/><path d="m320.434 332.931 8.408-.027-.042-16.803-8.409.027z" fill="#dc2626"/><path d="m338.66 336c3.87-.012 7.004-1.334 7-2.953-.004-1.618-3.144-2.921-7.014-2.909-3.871.012-7.005 1.334-7 2.953.004 1.619 3.144 2.921 7.014 2.909z" fill="#dc2626"/><path d="m321.842 335.662c3.87-.012 7.004-1.334 7-2.953s-3.145-2.921-7.015-2.909-7.004 1.334-7 2.953c.004 1.618 3.145 2.921 7.015 2.909z" fill="#dc2626"/><path d="m332.223 294.598c5.225 0 9.46-4.724 9.46-10.551s-4.235-10.551-9.46-10.551c-5.224 0-9.46 4.724-9.46 10.551s4.236 10.551 9.46 10.551z" fill="#fff"/><path d="m332.223 287.564c1.742 0 3.153-1.574 3.153-3.517 0-1.942-1.411-3.517-3.153-3.517-1.741 0-3.153 1.575-3.153 3.517 0 1.943 1.412 3.517 3.153 3.517z" fill="#991b1b"/><path d="m365.956 281.811c6.897-3.675 11.649-8.611 10.615-11.026s-7.464-1.393-14.361 2.281c-6.896 3.675-11.649 8.612-10.615 11.026 1.035 2.415 7.464 1.394 14.361-2.281z" fill="#dc2626"/><path d="m346.567 302.955c.008 3.021-6.953 9.009-14.693 9.033-7.74.025-15.018-8.459-15.026-11.48-.007-3.022 7.259.563 14.999.539s14.712-1.114 14.72 1.908z" fill="#fff"/><path d="m339.971 283.026c21.334 0 38.628-19.289 38.628-43.082s-17.294-43.082-38.628-43.082c-21.333 0-38.627 19.289-38.627 43.082s17.294 43.082 38.627 43.082z" fill="#f87171" opacity=".4"/><path d="m83.2063 247.663c15.2866 0 27.6787-13.822 27.6787-30.871 0-17.05-12.3921-30.871-27.6787-30.871-15.2867 0-27.679 13.821-27.679 30.871 0 17.049 12.3923 30.871 27.679 30.871z" fill="#dc2626"/><path d="m75.1996 239.797-8.2743-1.671-2.6837 16.534 8.2743 1.671z" fill="#dc2626"/><path d="m91.7479 243.138-8.2743-1.671-2.6837 16.535 8.2743 1.67z" fill="#dc2626"/><path d="m91.7176 265.966c.9379-1.235-.6958-4.498-3.6491-7.287-2.9532-2.79-6.1076-4.05-7.0456-2.814-.9379 1.235.6959 4.497 3.6492 7.287 2.9532 2.789 6.1076 4.05 7.0455 2.814z" fill="#dc2626"/><path d="m75.514 262.695c.9379-1.235-.6958-4.498-3.6491-7.288-2.9532-2.789-6.1077-4.049-7.0456-2.814s.6959 4.498 3.6491 7.287c2.9533 2.79 6.1077 4.05 7.0456 2.815z" fill="#dc2626"/><path d="m85.144 219.791c5.2245 0 9.4599-4.724 9.4599-10.551s-4.2354-10.55-9.4599-10.55c-5.2246 0-9.4599 4.723-9.4599 10.55s4.2353 10.551 9.4599 10.551z" fill="#fff"/><path d="m89.0317 208.975c1.7415 0 3.1533-1.574 3.1533-3.516 0-1.943-1.4118-3.517-3.1533-3.517s-3.1533 1.574-3.1533 3.517c0 1.942 1.4118 3.516 3.1533 3.516z" fill="#991b1b"/><path d="m109.735 215.891c7.45-1.905 13.055-5.564 12.519-8.172-.536-2.609-7.011-3.179-14.461-1.275-7.45 1.905-13.0547 5.564-12.5186 8.172.5361 2.609 7.0106 3.179 14.4606 1.275z" fill="#dc2626"/><path d="m55.4017 225.968c7.4501-1.905 13.0551-5.563 12.519-8.172-.5361-2.608-7.0102-3.179-14.4604-1.274-7.4501 1.904-13.055 5.563-12.5189 8.172.5361 2.608 7.0102 3.179 14.4603 1.274z" fill="#dc2626"/><path d="m75.6043 228.957c-.2979 1.836.0701 3.729 1.0233 5.262.9531 1.533 2.4132 2.581 4.059 2.913 1.6459.332 3.3427-.078 4.7172-1.141s2.314-2.692 2.612-4.528c.6204-3.822-2.0295-5.175-5.4568-5.867s-6.3342-.461-6.9547 3.361z" fill="#fff"/><path d="m143.272 185.237-24.835-8.304-6.641 24.705 24.835 8.304z" fill="#991b1b"/><path d="m121.006 204.604-.326-.117c.116-.402 2.884-9.871 6.96-11.382l.107.362c-3.91 1.45-6.713 11.04-6.741 11.137z" fill="#f87171"/><path d="m129.895 193.644c.945 0 1.711-.854 1.711-1.907 0-1.054-.766-1.908-1.711-1.908-.944 0-1.71.854-1.71 1.908 0 1.053.766 1.907 1.71 1.907z" fill="#f87171"/><path d="m127.83 198.078c-.933.013-1.852-.247-2.666-.754.765-.601 1.67-.942 2.605-.983s1.861.221 2.666.753c-.777.577-1.675.916-2.605.984z" fill="#f87171"/><path d="m244.343 149.954c.004 2.58-.527 5.127-1.552 7.44-.116.266-.238.524-.368.782h-26.337c-.13-.258-.252-.516-.368-.782-1.005-2.273-1.537-4.771-1.556-7.307-.018-2.535.477-5.042 1.449-7.334s2.395-4.309 4.165-5.902c1.769-1.592 3.837-2.718 6.051-3.293 2.214-.576 4.516-.586 6.734-.03s4.295 1.664 6.075 3.24c1.78 1.577 3.218 3.581 4.206 5.865.989 2.283 1.502 4.786 1.501 7.321z" fill="#dc2626"/><path d="m229.637 151.444c2.848 0 5.157-2.576 5.157-5.752 0-3.177-2.309-5.752-5.157-5.752s-5.157 2.575-5.157 5.752c0 3.176 2.309 5.752 5.157 5.752z" fill="#fff"/><path d="m229.637 147.609c.949 0 1.719-.858 1.719-1.917s-.77-1.918-1.719-1.918-1.719.859-1.719 1.918.77 1.917 1.719 1.917z" fill="#991b1b"/><path d="m250.892 115.582h-43.446c-.464 0-.91.167-1.238.465-.329.298-.513.703-.514 1.124v39.416c.001.421.185.825.514 1.123.328.298.774.466 1.238.466h43.446c.464 0 .91-.168 1.238-.466.329-.298.513-.702.513-1.123v-39.416c0-.421-.184-.826-.513-1.124-.328-.298-.774-.465-1.238-.465zm1.051 41.005c-.001.252-.112.494-.309.673s-.464.279-.742.28h-43.446c-.278-.001-.545-.101-.742-.28s-.308-.421-.309-.673v-39.416c.001-.253.112-.495.309-.673.197-.179.464-.28.742-.28h43.446c.278 0 .545.101.742.28.197.178.308.42.309.673z" fill="#991b1b"/></g></svg>