<svg fill="none" height="400" viewBox="0 0 400 400" width="400" xmlns="http://www.w3.org/2000/svg" xmlns:xlink="http://www.w3.org/1999/xlink"><clipPath id="a"><path d="m20 37h360v325.8h-360z"/></clipPath><path d="m0 0h400v400h-400z" fill="#f8fafc"/><g clip-path="url(#a)"><path d="m312.746 168.077c-19.165-14.32-49.182-27.863-82.354-37.155-30.204-8.462-59.663-12.547-82.958-11.503l-.122-2.708c23.573-1.055 53.338 3.064 83.812 11.601 33.481 9.379 63.823 23.082 83.246 37.594z" fill="#991b1b"/><path d="m310.756 179.107c.017 12.687-2.644 25.235-7.81 36.824-.431.97-.88 1.932-1.348 2.884-8.984 18.392-23.939 33.199-42.424 42.005-18.486 8.807-39.412 11.093-59.364 6.486-19.953-4.606-37.755-15.834-50.503-31.852s-19.69-35.88-19.693-56.347c0-2.095.072-4.174.214-6.237.068-1.048.156-2.091.264-3.127 2.401-23.073 13.573-44.343 31.21-59.422 17.636-15.0796 40.391-22.8169 63.569-21.6156 23.178 1.2014 45.011 11.2497 60.992 28.0716 15.981 16.821 24.892 39.133 24.893 62.33z" fill="#fee2e2"/><path d="m302.946 215.931c-.431.97-.88 1.932-1.347 2.884-2.647.287-5.433.496-8.358.626-2.421.108-4.913.162-7.46.162-22.241 0-49.008-4.103-76.353-11.762-30.474-8.537-58.044-20.479-77.633-33.626-.668-.447-1.323-.895-1.966-1.344.067-1.049.155-2.092.263-3.128 1.038.74 2.109 1.481 3.213 2.222 19.359 12.991 46.652 24.805 76.855 33.266 27.106 7.594 53.621 11.662 75.608 11.662 2.513 0 4.964-.053 7.351-.16 3.477-.157 6.752-.424 9.827-.802z" fill="#ef4444" opacity=".1"/><path d="m285.782 217.436c-22.241 0-49.01-4.103-76.354-11.763-30.473-8.537-58.044-20.479-77.634-33.626-19.998-13.422-29.376-26.647-26.405-37.239 2.97-10.592 17.859-17.019 41.923-18.097l.121 2.708c-11.237.503-20.396 2.172-27.22 4.961-6.808 2.783-10.917 6.537-12.213 11.16-1.297 4.622.261 9.964 4.631 15.878 4.38 5.927 11.336 12.111 20.675 18.379 19.356 12.991 46.651 24.805 76.854 33.266 27.107 7.594 53.62 11.663 75.608 11.663 2.513 0 4.963-.053 7.35-.16 11.238-.503 20.396-2.173 27.221-4.962 6.808-2.782 10.917-6.536 12.213-11.159 2.328-8.3-4.706-19.085-19.807-30.368l1.624-2.171c7.771 5.806 13.523 11.53 17.097 17.011 3.831 5.876 5.075 11.346 3.697 16.259-2.97 10.593-17.859 17.02-41.923 18.098-2.422.108-4.912.162-7.458.162z" fill="#991b1b"/><path d="m222.581 72.2581c.574 0 1.038-.4644 1.038-1.0373s-.464-1.0373-1.038-1.0373c-.573 0-1.038.4644-1.038 1.0373s.465 1.0373 1.038 1.0373z" fill="#fee2e2"/><g fill="#991b1b"><path d="m84.8929 117.27c.9861 0 1.7855-.799 1.7855-1.784 0-.986-.7994-1.785-1.7855-1.785s-1.7855.799-1.7855 1.785c0 .985.7994 1.784 1.7855 1.784z"/><path d="m81.0872 188.856c1.948 0 3.5272-1.578 3.5272-3.525s-1.5792-3.526-3.5272-3.526-3.5271 1.579-3.5271 3.526 1.5791 3.525 3.5271 3.525z"/><path d="m292.809 79.7941c1.299 0 2.351-1.0519 2.351-2.3495s-1.052-2.3495-2.351-2.3495c-1.298 0-2.351 1.0519-2.351 2.3495s1.053 2.3495 2.351 2.3495z"/><path d="m376.183 178.772c2.108 0 3.817-1.708 3.817-3.814 0-2.107-1.709-3.815-3.817-3.815-2.107 0-3.816 1.708-3.816 3.815 0 2.106 1.709 3.814 3.816 3.814z"/><path d="m346.338 115.667c.905 0 1.638-.732 1.638-1.636s-.733-1.637-1.638-1.637c-.904 0-1.637.733-1.637 1.637s.733 1.636 1.637 1.636z"/><path d="m147.51 95.5575c1.411 0 2.554-1.1432 2.554-2.5533s-1.143-2.5533-2.554-2.5533-2.555 1.1432-2.555 2.5533 1.144 2.5533 2.555 2.5533z"/><path d="m340.607 168.859c.904 0 1.637-.733 1.637-1.637 0-.903-.733-1.636-1.637-1.636-.905 0-1.638.733-1.638 1.636 0 .904.733 1.637 1.638 1.637z"/><path d="m22.0381 175.282c1.1257 0 2.0382-.913 2.0382-2.038s-.9125-2.037-2.0382-2.037c-1.1256 0-2.0381.912-2.0381 2.037s.9125 2.038 2.0381 2.038z"/><path d="m53.0016 141.927c1.219 0 2.2072-.988 2.2072-2.206 0-1.219-.9882-2.206-2.2072-2.206s-2.2072.987-2.2072 2.206c0 1.218.9882 2.206 2.2072 2.206z"/><path d="m194.722 41.3531h-4.356v-4.3531h-2.337v4.3531h-4.357v2.3377h4.357v4.3532h2.337v-4.3532h4.356z"/><path d="m295.759 276.911h-2.736v-2.733h-1.467v2.733h-2.735v1.466h2.735v2.734h1.467v-2.734h2.736z"/><path d="m358.885 262.919h-2.045v-2.043h-1.098v2.043h-2.044v1.097h2.044v2.044h1.098v-2.044h2.045z"/></g><path d="m163.078 171.5c4.203 0 7.611-3.406 7.611-7.607s-3.408-7.607-7.611-7.607c-4.204 0-7.611 3.406-7.611 7.607s3.407 7.607 7.611 7.607z" fill="#ef4444" opacity=".1"/><path d="m247.144 247.914c4.203 0 7.611-3.405 7.611-7.606 0-4.202-3.408-7.607-7.611-7.607-4.204 0-7.611 3.405-7.611 7.607 0 4.201 3.407 7.606 7.611 7.606z" fill="#ef4444" opacity=".1"/><path d="m221.544 183.256c4.203 0 7.61-3.406 7.61-7.607s-3.407-7.607-7.61-7.607c-4.204 0-7.611 3.406-7.611 7.607s3.407 7.607 7.611 7.607z" fill="#ef4444" opacity=".1"/><path d="m166.883 225.094c4.203 0 7.611-3.406 7.611-7.607s-3.408-7.607-7.611-7.607c-4.204 0-7.611 3.406-7.611 7.607s3.407 7.607 7.611 7.607z" fill="#ef4444" opacity=".1"/><path d="m262.365 142.455c4.204 0 7.611-3.405 7.611-7.607 0-4.201-3.407-7.606-7.611-7.606-4.203 0-7.611 3.405-7.611 7.606 0 4.202 3.408 7.607 7.611 7.607z" fill="#ef4444" opacity=".1"/><path d="m287.62 193.975c4.203 0 7.611-3.406 7.611-7.607s-3.408-7.607-7.611-7.607c-4.204 0-7.611 3.406-7.611 7.607s3.407 7.607 7.611 7.607z" fill="#ef4444" opacity=".1"/><path d="m262.366 113.065c5.54 0 10.032-4.489 10.032-10.027s-4.492-10.0274-10.032-10.0274c-5.541 0-10.033 4.4894-10.033 10.0274s4.492 10.027 10.033 10.027z" fill="#fff"/><path d="m262.366 88.5157c-3.762.0001-7.37 1.4936-10.03 4.1522s-4.154 6.2645-4.154 10.0241c0 7.83 14.184 33.54 14.184 33.54s14.184-25.71 14.184-33.54c0-3.7596-1.495-7.3655-4.155-10.0241s-6.268-4.1521-10.029-4.1522zm0 21.0923c-1.3 0-2.571-.386-3.652-1.108s-1.924-1.748-2.421-2.948c-.498-1.2-.628-2.521-.374-3.796.253-1.274.879-2.4447 1.799-3.3635.919-.9187 2.09-1.5444 3.365-1.7979s2.597-.1234 3.798.3738c1.201.4973 2.228 1.3393 2.95 2.4197.722 1.0799 1.108 2.3509 1.108 3.6499 0 .863-.17 1.717-.501 2.514-.33.797-.814 1.521-1.425 2.131-.61.61-1.335 1.094-2.132 1.424-.797.331-1.652.501-2.515.501z" fill="#f87171"/><path d="m163.038 140.264c5.541 0 10.033-4.49 10.033-10.028s-4.492-10.027-10.033-10.027c-5.54 0-10.032 4.489-10.032 10.027s4.492 10.028 10.032 10.028z" fill="#fff"/><path d="m163.038 115.714c-3.761 0-7.369 1.494-10.029 4.152-2.66 2.659-4.155 6.265-4.155 10.025 0 7.829 14.184 33.539 14.184 33.539s14.184-25.71 14.184-33.539c0-3.76-1.494-7.366-4.154-10.025-2.66-2.658-6.268-4.152-10.03-4.152zm0 21.092c-1.3 0-2.57-.385-3.651-1.107s-1.924-1.748-2.421-2.948c-.498-1.201-.628-2.522-.374-3.796.253-1.275.879-2.445 1.799-3.364.919-.919 2.09-1.544 3.365-1.798 1.275-.253 2.597-.123 3.798.374s2.228 1.339 2.95 2.42c.722 1.08 1.108 2.35 1.108 3.649 0 .863-.17 1.717-.501 2.515-.33.797-.814 1.521-1.425 2.131-.61.61-1.335 1.094-2.132 1.424-.798.33-1.652.5-2.516.5z" fill="#991b1b"/><path d="m288.898 163.382c5.541 0 10.033-4.489 10.033-10.027s-4.492-10.027-10.033-10.027-10.032 4.489-10.032 10.027 4.491 10.027 10.032 10.027z" fill="#fff"/><path d="m288.898 138.833c-3.762 0-7.37 1.494-10.03 4.152-2.66 2.659-4.154 6.265-4.154 10.024 0 7.83 14.184 33.54 14.184 33.54s14.184-25.71 14.184-33.54c0-3.759-1.495-7.365-4.155-10.024-2.66-2.658-6.267-4.152-10.029-4.152zm0 21.092c-1.3 0-2.571-.385-3.652-1.107s-1.923-1.748-2.421-2.949c-.497-1.2-.628-2.521-.374-3.795.254-1.275.88-2.445 1.799-3.364s2.09-1.545 3.366-1.798c1.275-.254 2.596-.124 3.797.374 1.201.497 2.228 1.339 2.95 2.419.722 1.081 1.108 2.351 1.108 3.65 0 .863-.17 1.717-.5 2.514-.331.797-.815 1.522-1.425 2.132-.611.61-1.335 1.094-2.133 1.424-.797.33-1.652.5-2.515.5z" fill="#991b1b"/><path d="m118.817 213.7c5.541 0 10.033-4.49 10.033-10.028s-4.492-10.027-10.033-10.027-10.032 4.489-10.032 10.027 4.491 10.028 10.032 10.028z" fill="#fff"/><path d="m118.817 189.15c-3.762 0-7.369 1.494-10.029 4.152-2.66 2.659-4.155 6.265-4.155 10.025 0 7.829 14.184 33.539 14.184 33.539s14.184-25.71 14.184-33.539c0-3.76-1.494-7.366-4.154-10.025-2.66-2.658-6.268-4.152-10.03-4.152zm0 21.092c-1.3 0-2.571-.385-3.652-1.107s-1.923-1.748-2.42-2.949c-.498-1.2-.628-2.521-.375-3.795.254-1.275.88-2.445 1.799-3.364.92-.919 2.091-1.545 3.366-1.798 1.275-.254 2.597-.123 3.798.374s2.227 1.339 2.95 2.419c.722 1.081 1.107 2.351 1.107 3.65 0 .863-.17 1.717-.5 2.514-.33.798-.815 1.522-1.425 2.132s-1.335 1.094-2.132 1.424c-.798.33-1.653.5-2.516.5z" fill="#f87171"/><path d="m349.746 284.187c1.947-1.63-.685-7.977-5.879-14.178-5.194-6.2-10.983-9.905-12.931-8.275-1.947 1.629.685 7.977 5.879 14.177s10.983 9.906 12.931 8.276z" fill="#dc2626"/><path d="m309.178 297.16c16.181 0 29.299-13.111 29.299-29.284 0-16.174-13.118-29.285-29.299-29.285-16.182 0-29.3 13.111-29.3 29.285 0 16.173 13.118 29.284 29.3 29.284z" fill="#dc2626"/><path d="m321.579 290.858h-8.901v15.939h8.901z" fill="#dc2626"/><path d="m303.777 290.858h-8.902v15.939h8.902z" fill="#dc2626"/><path d="m314.161 309.763c4.097 0 7.418-1.245 7.418-2.78 0-1.536-3.321-2.78-7.418-2.78-4.096 0-7.417 1.244-7.417 2.78 0 1.535 3.321 2.78 7.417 2.78z" fill="#dc2626"/><path d="m296.359 309.392c4.097 0 7.418-1.245 7.418-2.78s-3.321-2.78-7.418-2.78-7.418 1.245-7.418 2.78 3.321 2.78 7.418 2.78z" fill="#dc2626"/><path d="m289.413 260.562c1.088-2.294-3.956-6.962-11.266-10.428-7.31-3.465-14.119-4.415-15.207-2.121-1.089 2.294 3.955 6.962 11.265 10.428 7.311 3.465 14.119 4.415 15.208 2.121z" fill="#dc2626"/><path d="m304.797 271.46c5.395 0 9.769-4.372 9.769-9.764s-4.374-9.763-9.769-9.763-9.768 4.371-9.768 9.763 4.373 9.764 9.768 9.764z" fill="#fff"/><path d="m300.783 261.451c1.798 0 3.256-1.457 3.256-3.254 0-1.798-1.458-3.255-3.256-3.255-1.799 0-3.257 1.457-3.257 3.255 0 1.797 1.458 3.254 3.257 3.254z" fill="#991b1b"/><path d="m310.925 282.038c.153.841.139 1.703-.041 2.539-.181.835-.524 1.627-1.011 2.33s-1.107 1.303-1.826 1.766c-.718.464-1.521.781-2.363.934-.841.153-1.704.139-2.54-.041-.836-.181-1.629-.524-2.332-1.01-.703-.487-1.304-1.107-1.767-1.825-.464-.718-.781-1.521-.934-2.362l-.002-.012c-.641-3.538 2.095-4.789 5.634-5.43 3.54-.64 6.541-.427 7.182 3.111z" fill="#fff"/><path d="m248.836 205.664c-3.013-2.542-6.701-4.153-10.614-4.638s-7.883.177-11.426 1.906c-3.544 1.729-6.508 4.45-8.532 7.832-2.025 3.382-3.022 7.279-2.871 11.217.152 3.938 1.445 7.747 3.723 10.964s5.442 5.703 9.107 7.155c3.666 1.452 7.675 1.808 11.539 1.025 3.864-.784 7.418-2.673 10.227-5.438l24.95 21.042c.38.32.871.476 1.366.435.495-.042.954-.278 1.275-.657.32-.38.477-.871.436-1.365-.041-.495-.277-.954-.656-1.274l-.003-.003-24.95-21.041c2.898-4.158 4.139-9.247 3.478-14.272-.66-5.024-3.174-9.62-7.049-12.888zm-1.608 25.134c-1.944 2.302-4.527 3.976-7.423 4.811-2.896.836-5.975.793-8.847-.12-2.872-.914-5.408-2.658-7.288-5.013-1.88-2.354-3.019-5.213-3.274-8.215-.254-3.002.388-6.011 1.845-8.648 1.456-2.637 3.663-4.783 6.34-6.167 2.678-1.384 5.705-1.943 8.701-1.607 2.995.337 5.823 1.553 8.126 3.496 3.089 2.605 5.016 6.329 5.358 10.355.341 4.025-.932 8.02-3.538 11.108z" fill="#991b1b"/><path d="m225.753 232.616c-2.923-2.466-4.812-5.94-5.291-9.733-.479-3.794.487-7.628 2.705-10.742-.291.293-.573.6-.845.921-1.29 1.529-2.267 3.296-2.874 5.202s-.833 3.913-.664 5.906.729 3.933 1.649 5.71c.919 1.777 2.179 3.355 3.709 4.645 1.529 1.29 3.298 2.266 5.205 2.873 1.907.606 3.914.832 5.909.663 1.994-.169 3.935-.729 5.713-1.647 1.777-.919 3.356-2.179 4.647-3.707.271-.322.527-.651.767-.988-2.699 2.71-6.318 4.307-10.14 4.473s-7.566-1.111-10.49-3.576z" fill="#ef4444" opacity=".3"/><path d="m120.677 247.403c2.888-7.554 3.307-14.412.934-15.318-2.372-.907-6.637 4.482-9.526 12.036-2.889 7.553-3.307 14.411-.935 15.318 2.373.906 6.638-4.483 9.527-12.036z" fill="#dc2626"/><path d="m89.2992 297.16c16.1818 0 29.2998-13.111 29.2998-29.285 0-16.173-13.118-29.284-29.2998-29.284s-29.2997 13.111-29.2997 29.284c0 16.174 13.1179 29.285 29.2997 29.285z" fill="#dc2626"/><path d="m84.8484 290.858h-8.9011v15.939h8.9011z" fill="#dc2626"/><path d="m102.651 290.858h-8.9015v15.939h8.9015z" fill="#dc2626"/><path d="m83.3649 309.763c4.0967 0 7.4177-1.245 7.4177-2.78 0-1.536-3.321-2.78-7.4177-2.78-4.0966 0-7.4176 1.244-7.4176 2.78 0 1.535 3.321 2.78 7.4176 2.78z" fill="#dc2626"/><path d="m101.167 309.392c4.097 0 7.418-1.245 7.418-2.78s-3.321-2.78-7.418-2.78c-4.0965 0-7.4175 1.245-7.4175 2.78s3.321 2.78 7.4175 2.78z" fill="#dc2626"/><path d="m90.0407 270.47c5.5305 0 10.0133-4.481 10.0133-10.008 0-5.528-4.4828-10.009-10.0133-10.009s-10.0138 4.481-10.0138 10.009c0 5.527 4.4833 10.008 10.0138 10.008z" fill="#fff"/><path d="m90.0406 263.798c1.8435 0 3.3379-1.494 3.3379-3.336 0-1.843-1.4944-3.337-3.3379-3.337s-3.338 1.494-3.338 3.337c0 1.842 1.4945 3.336 3.338 3.336z" fill="#991b1b"/><path d="m69.5343 260.562c1.0884-2.294-3.9554-6.962-11.2658-10.428-7.3103-3.465-14.1189-4.415-15.2073-2.121-1.0885 2.294 3.9553 6.962 11.2657 10.428 7.3103 3.465 14.1189 4.415 15.2074 2.121z" fill="#dc2626"/><path d="m74.9072 278.44c0 2.866 7.3838 8.526 15.5771 8.526s15.8757-8.069 15.8757-10.935c0-2.867-7.6824.556-15.8757.556s-15.5771-1.013-15.5771 1.853z" fill="#fff"/><path d="m184.353 350.197c16.182 0 29.3-13.111 29.3-29.285 0-16.173-13.118-29.284-29.3-29.284-16.181 0-29.299 13.111-29.299 29.284 0 16.174 13.118 29.285 29.299 29.285z" fill="#dc2626"/><path d="m179.903 343.895h-8.902v15.94h8.902z" fill="#dc2626"/><path d="m197.705 343.895h-8.901v15.94h8.901z" fill="#dc2626"/><path d="m178.419 362.8c4.097 0 7.418-1.245 7.418-2.78 0-1.536-3.321-2.78-7.418-2.78s-7.418 1.244-7.418 2.78c0 1.535 3.321 2.78 7.418 2.78z" fill="#dc2626"/><path d="m196.221 362.429c4.097 0 7.418-1.244 7.418-2.78 0-1.535-3.321-2.78-7.418-2.78-4.096 0-7.417 1.245-7.417 2.78 0 1.536 3.321 2.78 7.417 2.78z" fill="#dc2626"/><path d="m184.471 315.838s2.125-9.347-1.913-8.922-9.564.638-11.052.638-9.99-1.063-11.265 4.461c-1.275 5.523-2.975 12.32.638 16.569 0 0 1.275 18.694 6.163 19.968 4.889 1.275 17.854 2.762 22.53-3.399 1.369-1.832 2.325-3.939 2.802-6.176s.463-4.551-.039-6.782h-2.126z" fill="#f87171"/><path d="m163.004 330.071s3.614 1.699 11.052.637v3.187l-11.052-.85z" fill="#ef4444" opacity=".1"/><path d="m190.007 340.722-2.406-1.271 10.701-20.239c.402-.76.603-1.61.585-2.469-.019-.859-.256-1.7-.69-2.442s-1.05-1.361-1.79-1.799c-.74-.437-1.579-.679-2.439-.702l-11.23-.302.073-2.72 11.23.303c1.323.035 2.614.407 3.752 1.081 1.139.673 2.086 1.626 2.754 2.767.667 1.141 1.032 2.434 1.06 3.756.029 1.322-.281 2.629-.899 3.798z" fill="#f87171"/><path d="m164.143 340.722-10.701-20.239c-.618-1.169-.928-2.476-.9-3.798.029-1.322.394-2.615 1.061-3.756s1.615-2.094 2.753-2.767c1.139-.674 2.43-1.046 3.752-1.081l11.231-.303.073 2.72-11.231.302c-.859.023-1.699.265-2.439.702-.74.438-1.356 1.057-1.79 1.799-.433.742-.671 1.583-.689 2.442s.183 1.709.585 2.469l10.701 20.239z" fill="#f87171"/><path d="m221.923 328.427c1.318-2.49-4.047-7.91-11.982-12.105-7.935-4.196-15.436-5.578-16.754-3.088-1.318 2.489 4.047 7.909 11.982 12.104 7.935 4.196 15.436 5.578 16.754 3.089z" fill="#dc2626"/></g></svg>