<svg width="400" height="400" viewBox="0 0 400 400" fill="none" xmlns="http://www.w3.org/2000/svg">
<rect width="400" height="400" fill="#F8FAFC"/>
<g clip-path="url(#clip0_942:17308)">
<path d="M140.492 369C164.525 369 184.008 367.515 184.008 365.682C184.008 363.85 164.525 362.365 140.492 362.365C116.46 362.365 96.9771 363.85 96.9771 365.682C96.9771 367.515 116.46 369 140.492 369Z" fill="#E6E6E6"/>
<path d="M333.514 325.293H37.6096C36.3735 325.291 35.1884 324.8 34.3143 323.926C33.4403 323.052 32.9486 321.868 32.9473 320.632V36.6604C32.9486 35.4248 33.4403 34.2402 34.3143 33.3665C35.1884 32.4928 36.3735 32.0013 37.6096 32H333.514C334.75 32.0013 335.935 32.4928 336.809 33.3665C337.683 34.2402 338.175 35.4248 338.176 36.6604V320.632C338.175 321.868 337.683 323.052 336.809 323.926C335.935 324.8 334.75 325.291 333.514 325.293ZM37.6096 33.8641C36.868 33.865 36.1569 34.1598 35.6324 34.684C35.108 35.2083 34.813 35.919 34.8122 36.6604V320.632C34.813 321.374 35.108 322.084 35.6324 322.609C36.1569 323.133 36.868 323.428 37.6096 323.428H333.514C334.256 323.428 334.967 323.133 335.491 322.609C336.016 322.084 336.311 321.374 336.311 320.632V36.6604C336.311 35.919 336.016 35.2083 335.491 34.684C334.967 34.1598 334.256 33.865 333.514 33.8641H37.6096Z" fill="#E6E6E6"/>
<path d="M54.7048 56.8553C54.2103 56.8559 53.7363 57.0525 53.3867 57.4019C53.037 57.7514 52.8404 58.2253 52.8398 58.7195V135.771C52.8404 136.265 53.037 136.739 53.3867 137.088C53.7363 137.438 54.2103 137.635 54.7048 137.635H131.789C132.284 137.635 132.758 137.438 133.107 137.088C133.457 136.739 133.654 136.265 133.654 135.771V58.7195C133.654 58.2253 133.457 57.7514 133.107 57.4019C132.758 57.0525 132.284 56.8559 131.789 56.8553H54.7048Z" fill="#E6E6E6"/>
<path d="M175.951 112.625C175.36 112.635 174.797 112.876 174.382 113.297C173.968 113.719 173.735 114.286 173.735 114.877C173.735 115.468 173.968 116.035 174.382 116.456C174.797 116.878 175.36 117.119 175.951 117.129H282.177C282.474 117.135 282.768 117.082 283.044 116.973C283.32 116.865 283.572 116.703 283.785 116.498C283.998 116.292 284.169 116.046 284.287 115.774C284.405 115.503 284.468 115.21 284.473 114.914C284.478 114.618 284.424 114.323 284.315 114.048C284.206 113.772 284.044 113.521 283.837 113.309C283.631 113.096 283.385 112.926 283.113 112.809C282.84 112.691 282.548 112.629 282.251 112.625C282.227 112.624 282.202 112.624 282.177 112.625H175.951Z" fill="#E6E6E6"/>
<path d="M175.951 92.1191C175.36 92.1289 174.797 92.3705 174.382 92.7918C173.968 93.2131 173.735 93.7804 173.735 94.3713C173.735 94.9622 173.968 95.5295 174.382 95.9508C174.797 96.3721 175.36 96.6137 175.951 96.6235H206.336C206.633 96.6291 206.927 96.5762 207.203 96.4679C207.479 96.3595 207.731 96.1978 207.944 95.9921C208.157 95.7863 208.328 95.5405 208.446 95.2687C208.564 94.997 208.627 94.7046 208.632 94.4083C208.637 94.1121 208.583 93.8178 208.474 93.5423C208.365 93.2668 208.203 93.0156 207.996 92.8029C207.79 92.5903 207.544 92.4204 207.271 92.3031C206.999 92.1857 206.707 92.1232 206.41 92.1191C206.386 92.1187 206.361 92.1187 206.336 92.1191H175.951Z" fill="#E6E6E6"/>
<path d="M175.951 133.752C175.36 133.761 174.797 134.003 174.382 134.424C173.968 134.846 173.735 135.413 173.735 136.004C173.735 136.595 173.968 137.162 174.382 137.583C174.797 138.005 175.36 138.246 175.951 138.256H282.177C282.774 138.264 283.349 138.036 283.778 137.62C284.206 137.205 284.452 136.637 284.462 136.041C284.472 135.444 284.244 134.869 283.83 134.439C283.416 134.01 282.848 133.763 282.251 133.752C282.227 133.751 282.202 133.751 282.177 133.752H175.951Z" fill="#E6E6E6"/>
<path d="M302.313 215.129H156.326C153.48 215.129 151.174 213.487 151.171 211.463V179.746C151.174 177.723 153.48 176.08 156.326 176.08H302.313C305.159 176.08 307.465 177.723 307.468 179.746V211.462C307.466 213.486 305.159 215.127 302.313 215.129Z" fill="#E6E6E6"/>
<path d="M203.471 292.181H57.4844C54.6385 292.181 52.3322 290.538 52.3291 288.514V256.798C52.3322 254.774 54.6385 253.132 57.4844 253.132H203.471C206.317 253.132 208.623 254.774 208.626 256.798V288.514C208.624 290.538 206.317 292.178 203.471 292.181Z" fill="#E6E6E6"/>
<path d="M159.431 309.653H13.4449C10.599 309.653 8.29266 308.01 8.28955 305.987V274.27C8.29266 272.246 10.599 270.604 13.4449 270.604H159.431C162.277 270.604 164.584 272.246 164.587 274.27V305.986C164.584 308.01 162.277 309.65 159.431 309.653ZM13.4449 272.069C11.7372 272.069 10.3534 273.054 10.3515 274.269V305.985C10.3515 307.199 11.7372 308.183 13.4449 308.184H159.431C161.139 308.184 162.523 307.199 162.525 305.985V274.27C162.525 273.056 161.139 272.071 159.431 272.07L13.4449 272.069Z" fill="#991B1B"/>
<path d="M211.982 222.764C218.505 222.764 223.793 217.479 223.793 210.958C223.793 204.438 218.505 199.152 211.982 199.152C205.459 199.152 200.17 204.438 200.17 210.958C200.17 217.479 205.459 222.764 211.982 222.764Z" fill="#F87171"/>
<path d="M34.8123 301.68C41.3355 301.68 46.6236 296.394 46.6236 289.874C46.6236 283.353 41.3355 278.068 34.8123 278.068C28.2891 278.068 23.001 283.353 23.001 289.874C23.001 296.394 28.2891 301.68 34.8123 301.68Z" fill="#F87171"/>
<path d="M237.494 202.492C236.903 202.502 236.34 202.744 235.925 203.165C235.511 203.586 235.278 204.153 235.278 204.744C235.278 205.335 235.511 205.903 235.925 206.324C236.34 206.745 236.903 206.987 237.494 206.997H321.963C322.559 207.005 323.135 206.776 323.563 206.361C323.991 205.946 324.237 205.378 324.247 204.781C324.257 204.185 324.03 203.609 323.615 203.18C323.201 202.751 322.633 202.503 322.037 202.492C322.012 202.492 321.987 202.492 321.963 202.492H237.494Z" fill="#991B1B"/>
<path d="M237.494 214.92C236.903 214.93 236.34 215.171 235.925 215.593C235.511 216.014 235.278 216.581 235.278 217.172C235.278 217.763 235.511 218.33 235.925 218.752C236.34 219.173 236.903 219.414 237.494 219.424H321.963C322.559 219.433 323.135 219.204 323.563 218.789C323.991 218.373 324.237 217.805 324.247 217.209C324.257 216.613 324.03 216.037 323.615 215.608C323.201 215.179 322.633 214.931 322.037 214.92C322.012 214.919 321.987 214.919 321.963 214.92H237.494Z" fill="#991B1B"/>
<path d="M60.3245 281.408C59.7334 281.418 59.1698 281.659 58.7553 282.081C58.3407 282.502 58.1084 283.069 58.1084 283.66C58.1084 284.251 58.3407 284.818 58.7553 285.239C59.1698 285.661 59.7334 285.902 60.3245 285.912H144.793C145.389 285.92 145.965 285.692 146.393 285.277C146.821 284.861 147.067 284.293 147.077 283.697C147.087 283.101 146.86 282.525 146.445 282.096C146.031 281.666 145.463 281.419 144.867 281.408C144.842 281.407 144.817 281.407 144.793 281.408H60.3245Z" fill="#991B1B"/>
<path d="M60.3245 293.835C59.7334 293.845 59.1698 294.087 58.7553 294.508C58.3407 294.929 58.1084 295.497 58.1084 296.088C58.1084 296.679 58.3407 297.246 58.7553 297.667C59.1698 298.088 59.7334 298.33 60.3245 298.34H144.793C145.389 298.348 145.965 298.12 146.393 297.704C146.821 297.289 147.067 296.721 147.077 296.124C147.087 295.528 146.86 294.952 146.445 294.523C146.031 294.094 145.463 293.847 144.867 293.835C144.842 293.835 144.817 293.835 144.793 293.835H60.3245Z" fill="#991B1B"/>
<path d="M356.188 338.34C370.974 338.34 382.96 326.359 382.96 311.579C382.96 296.799 370.974 284.818 356.188 284.818C341.402 284.818 329.415 296.799 329.415 311.579C329.415 326.359 341.402 338.34 356.188 338.34Z" fill="#DC2626"/>
<path d="M368.387 332.582H360.254V347.148H368.387V332.582Z" fill="#DC2626"/>
<path d="M352.121 332.582H343.987V347.148H352.121V332.582Z" fill="#DC2626"/>
<path d="M361.61 349.858C365.353 349.858 368.388 348.72 368.388 347.317C368.388 345.914 365.353 344.777 361.61 344.777C357.867 344.777 354.832 345.914 354.832 347.317C354.832 348.72 357.867 349.858 361.61 349.858Z" fill="#DC2626"/>
<path d="M345.343 349.519C349.086 349.519 352.121 348.382 352.121 346.978C352.121 345.575 349.086 344.438 345.343 344.438C341.6 344.438 338.565 345.575 338.565 346.978C338.565 348.382 341.6 349.519 345.343 349.519Z" fill="#DC2626"/>
<path d="M355.51 313.95C360.563 313.95 364.66 309.855 364.66 304.804C364.66 299.753 360.563 295.658 355.51 295.658C350.456 295.658 346.359 299.753 346.359 304.804C346.359 309.855 350.456 313.95 355.51 313.95Z" fill="white"/>
<path d="M355.51 307.853C357.194 307.853 358.56 306.488 358.56 304.804C358.56 303.12 357.194 301.755 355.51 301.755C353.825 301.755 352.459 303.12 352.459 304.804C352.459 306.488 353.825 307.853 355.51 307.853Z" fill="#991B1B"/>
<path d="M68.5738 150.038C68.5805 154.141 67.638 158.19 65.8199 161.869C65.6147 162.291 65.3971 162.702 65.1671 163.112H18.4379C18.2078 162.702 17.9903 162.291 17.7851 161.869C16.0011 158.253 15.0573 154.281 15.0243 150.25C14.9913 146.218 15.87 142.231 17.5946 138.587C19.3192 134.942 21.8453 131.734 24.9841 129.203C28.1229 126.671 31.7935 124.88 35.7216 123.965C39.6496 123.05 43.7338 123.034 47.669 123.918C51.6042 124.802 55.2888 126.563 58.4476 129.07C61.6064 131.577 64.1578 134.765 65.9112 138.396C67.6647 142.026 68.5748 146.006 68.5738 150.038V150.038Z" fill="#DC2626"/>
<path d="M42.4812 152.406C47.5347 152.406 51.6314 148.311 51.6314 143.26C51.6314 138.209 47.5347 134.114 42.4812 134.114C37.4277 134.114 33.3311 138.209 33.3311 143.26C33.3311 148.311 37.4277 152.406 42.4812 152.406Z" fill="white"/>
<path d="M42.4812 146.309C44.1657 146.309 45.5313 144.944 45.5313 143.26C45.5313 141.576 44.1657 140.211 42.4812 140.211C40.7967 140.211 39.4312 141.576 39.4312 143.26C39.4312 144.944 40.7967 146.309 42.4812 146.309Z" fill="#991B1B"/>
<path d="M80.1926 79.8464H3.10824C2.28397 79.8467 1.49356 80.1742 0.910712 80.7568C0.327869 81.3394 0.000298222 82.1294 0 82.9533V160.005C0.000298222 160.829 0.327869 161.619 0.910712 162.201C1.49356 162.784 2.28397 163.111 3.10824 163.112H80.1926C81.0168 163.111 81.8073 162.784 82.3901 162.201C82.9729 161.619 83.3005 160.829 83.3008 160.005V82.9533C83.3005 82.1294 82.9729 81.3394 82.3901 80.7568C81.8073 80.1742 81.0168 79.8467 80.1926 79.8464V79.8464ZM82.0575 160.005C82.0561 160.499 81.8591 160.972 81.5097 161.321C81.1603 161.671 80.6867 161.867 80.1926 161.869H3.10824C2.61407 161.867 2.14056 161.671 1.79113 161.321C1.4417 160.972 1.24474 160.499 1.2433 160.005V82.9533C1.24474 82.4594 1.44169 81.9861 1.79113 81.6368C2.14056 81.2875 2.61407 81.0906 3.10824 81.0892H80.1926C80.6867 81.0906 81.1603 81.2875 81.5097 81.6368C81.8591 81.9861 82.0561 82.4594 82.0575 82.9533V160.005Z" fill="#991B1B"/>
<path d="M164.802 309.026C167.442 302.123 167.824 295.856 165.656 295.028C163.488 294.199 159.591 299.124 156.951 306.027C154.312 312.929 153.929 319.197 156.097 320.025C158.265 320.853 162.162 315.929 164.802 309.026Z" fill="#DC2626"/>
<path d="M162.558 332.022C164.927 317.433 155.015 303.687 140.42 301.319C125.824 298.952 112.073 308.859 109.704 323.448C107.336 338.037 117.247 351.783 131.843 354.151C146.438 356.518 160.19 346.611 162.558 332.022Z" fill="#DC2626"/>
<path d="M132.064 348.738H123.931V363.304H132.064V348.738Z" fill="#DC2626"/>
<path d="M148.331 348.738H140.198V363.304H148.331V348.738Z" fill="#DC2626"/>
<path d="M130.709 366.014C134.452 366.014 137.486 364.876 137.486 363.473C137.486 362.07 134.452 360.932 130.709 360.932C126.965 360.932 123.931 362.07 123.931 363.473C123.931 364.876 126.965 366.014 130.709 366.014Z" fill="#DC2626"/>
<path d="M146.976 365.675C150.719 365.675 153.754 364.538 153.754 363.134C153.754 361.731 150.719 360.594 146.976 360.594C143.232 360.594 140.198 361.731 140.198 363.134C140.198 364.538 143.232 365.675 146.976 365.675Z" fill="#DC2626"/>
<path d="M118.071 321.052C119.065 318.956 114.457 314.689 107.777 311.522C101.097 308.356 94.8755 307.488 93.8809 309.584C92.8863 311.68 97.4952 315.946 104.175 319.113C110.855 322.28 117.076 323.148 118.071 321.052Z" fill="#DC2626"/>
<path d="M361.779 272.261C376.203 272.261 387.896 260.573 387.896 246.155C387.896 231.737 376.203 220.049 361.779 220.049C347.356 220.049 335.663 231.737 335.663 246.155C335.663 260.573 347.356 272.261 361.779 272.261Z" fill="#DC2626"/>
<path d="M373.776 266.587L365.841 266.624L365.907 280.834L373.842 280.797L373.776 266.587Z" fill="#DC2626"/>
<path d="M357.907 266.661L349.973 266.698L350.039 280.907L357.973 280.87L357.907 266.661Z" fill="#DC2626"/>
<path d="M353.61 284.524C356.764 282.684 358.761 280.235 358.071 279.052C357.381 277.87 354.264 278.403 351.111 280.243C347.957 282.083 345.959 284.532 346.65 285.715C347.34 286.897 350.456 286.364 353.61 284.524Z" fill="#DC2626"/>
<path d="M369.148 284.452C372.302 282.612 374.299 280.162 373.609 278.98C372.919 277.798 369.802 278.331 366.649 280.171C363.495 282.01 361.497 284.46 362.188 285.642C362.878 286.825 365.994 286.292 369.148 284.452Z" fill="#DC2626"/>
<path d="M361.087 248.471C366.017 248.471 370.013 244.477 370.013 239.549C370.013 234.621 366.017 230.627 361.087 230.627C356.157 230.627 352.161 234.621 352.161 239.549C352.161 244.477 356.157 248.471 361.087 248.471Z" fill="white"/>
<path d="M358.03 238.737C359.673 238.737 361.005 237.405 361.005 235.763C361.005 234.12 359.673 232.789 358.03 232.789C356.386 232.789 355.054 234.12 355.054 235.763C355.054 237.405 356.386 238.737 358.03 238.737Z" fill="#991B1B"/>
<path d="M346.533 238.018C347.414 235.933 342.743 231.969 336.1 229.163C329.456 226.357 323.357 225.773 322.475 227.857C321.594 229.942 326.265 233.907 332.909 236.712C339.552 239.518 345.652 240.103 346.533 238.018Z" fill="#DC2626"/>
<path d="M399.893 259.654C400.775 257.569 396.103 253.605 389.46 250.799C382.817 247.994 376.717 247.409 375.836 249.494C374.955 251.578 379.626 255.543 386.269 258.349C392.912 261.154 399.012 261.739 399.893 259.654Z" fill="#DC2626"/>
<path d="M367.057 257.531C367.062 258.313 366.913 259.087 366.618 259.811C366.324 260.535 365.889 261.194 365.34 261.75C364.79 262.306 364.136 262.748 363.416 263.051C362.695 263.355 361.922 263.513 361.14 263.518C360.358 263.522 359.583 263.372 358.859 263.077C358.135 262.782 357.476 262.347 356.921 261.797C356.365 261.248 355.923 260.594 355.62 259.873C355.317 259.153 355.16 258.38 355.156 257.598L355.156 257.586C355.141 254.301 357.802 253.609 361.088 253.593C364.374 253.578 367.042 254.246 367.057 257.531Z" fill="white"/>
<path d="M340.292 230.634H194.306C191.46 230.634 189.153 228.992 189.15 226.968V195.252C189.153 193.228 191.46 191.585 194.306 191.585H340.292C343.138 191.585 345.445 193.228 345.448 195.252V226.968C345.445 228.991 343.138 230.632 340.292 230.634ZM194.306 193.051C192.598 193.051 191.214 194.036 191.212 195.25V226.966C191.212 228.181 192.598 229.165 194.306 229.166H340.292C342 229.166 343.384 228.181 343.386 226.966V195.252C343.386 194.037 342 193.053 340.292 193.052L194.306 193.051Z" fill="#991B1B"/>
</g>
<defs>
<clipPath id="clip0_942:17308">
<rect width="400" height="337" fill="white" transform="translate(0 32)"/>
</clipPath>
</defs>
</svg>
