<svg xmlns="http://www.w3.org/2000/svg" xmlns:xlink="http://www.w3.org/1999/xlink" width="664.67" height="498.947" xmlns:v="https://vecta.io/nano"><style><![CDATA[.B{fill:#00b0ff}.C{fill:#2f2e41}.D{fill:#a0616a}.E{fill:#ffb6b6}.F{fill:#3f3d56}.G{fill:#f2f2f2}]]></style><path d="M607.339 444.782l.998-22.434c10.401-5.56 22.002-8.496 33.796-8.555-16.231 13.27-14.203 38.851-25.208 56.697a43.58 43.58 0 0 1-31.959 20.14l-13.583 8.316a73.03 73.03 0 0 1 15.393-59.179 70.54 70.54 0 0 1 12.964-12.046c3.253 8.578 7.599 17.061 7.599 17.061z" class="G"/><path d="M141.013 245.338a8.31 8.31 0 0 1 .543-12.733l-9.306-28.031 14.822 3.982 6.564 26.008a8.36 8.36 0 0 1-12.624 10.773z" class="D"/><path d="M167.876 93.043c2.459 1.41 17.011-2.084 19.853-1.09-1.569 9.572 6.952 5.98-2.301 18.55s-27.888 50.258-32.121 64.344-.043 33.936-.677 40.612c-.306 3.868-.287 7.755.057 11.62-4.999-.063-9.926.974-15.003.312-5.414-15.321-9.055-37.128-11.527-49.18s-2.562-6.955-1.429-12.982 1.408-1.647.217-7.413 3.626-13.009 8.076-17.139c1.919-5.519 4.399-10.665 6.298-16.127 13.921-12.144 14.836-19.159 28.557-31.506z" class="B"/><path d="M572.34 483.401h-12.299l-5.851-47.44h18.153l-.003 47.44z" class="E"/><path d="M575.477 495.324l-39.658-.001v-.502a15.44 15.44 0 0 1 15.436-15.436h.001l7.244-5.496 13.516 5.497h3.462z" class="C"/><path d="M515.2 483.401h-12.299l-5.851-47.44h18.152l-.002 47.44z" class="E"/><path d="M518.337 495.324l-39.658-.001v-.502a15.44 15.44 0 0 1 15.436-15.436h.001l7.244-5.496 13.516 5.497h3.462zm-8.461-271.281l80 2c15.194 8.252 15.424 26.114 10.446 47.32 0 0 1.681 12.604-1.681 15.966s-5.042 3.361-3.361 9.243-7.199 15.489-6.12 16.568 3.599 6.961 3.599 6.961l-8.403 47.897s-5.882 83.19-7.563 84.87-3.361 0-1.681 4.201 3.361 2.521 1.681 4.201a61.89 61.89 0 0 0-4.201 5.042h-20.316s-1.532-8.403-1.532-9.243-1.681-5.882-1.681-6.722 1.485-2.326 1.485-2.326a27.63 27.63 0 0 0 1.035-5.237c0-1.681 5.042-66.384 5.042-66.384l-10.084-84.03-24.369 82.349s0 72.266-1.681 73.946-1.681.84-.84 4.201 4.201 2.521 1.681 5.042-3.361-1.681-2.521 2.521l.84 4.201-25.209.361s-3.361-7.083-1.681-9.604 1.58-1.833-.471-5.958-2.891-4.966-2.05-5.806.84-5.31.84-5.31l4.201-80.401.84-87.391a8.38 8.38 0 0 0-.698-3.78v-3.422l3.219-12.125z" class="C"/><circle cx="557.934" cy="32.839" r="24.856" class="E"/><path d="M545.505 74.124c-5.355 3.184-8.558 9.033-10.397 14.985a142.01 142.01 0 0 0-6.102 33.929l-1.942 34.475-24.055 73.408c20.847 17.64 99.209 4.009 99.209 4.009s2.405-.802 0-3.207-4.747-.274-2.342-2.68.747.274-.055-2.131 0-.802.802-1.604-6.207-8.018-6.207-8.018l6.415-42.137 8.018-84.993c-9.622-12.027-28.973-19.117-28.973-19.117l-5-9-25 2z" class="F"/><path d="M542.096 18.251c.962.008 1.919.133 2.85.374 1.836.441 3.7.754 5.579.936 11.842 1.114 21.395 10.164 23.148 21.928 1.444-1.259 4.731-3.576 7.425-1.423h0c.041.034.065.052.16.007 1.789-.849 4.965-11.295 5.061-20.493.051-4.882-.718-11.116-4.666-13.09l-.208-.104-.055-.226c-.264-1.098-3.211-2.973-8.333-4.432-9.309-2.651-22.91-3.035-30.724 4.566-.591 2.563-2.789 3.265-4.732 3.886-2.152.688-4.01 1.282-4.303 3.921a80.91 80.91 0 0 0 .053 11.279 11.52 11.52 0 0 1 4.092-5.749 8.11 8.11 0 0 1 4.653-1.382z" class="C"/><path d="M495.831 155.594l40.603-26.003-20.451-27.185-20.194 24.84-62.919 3.859c-4.613-4.56-12.016-4.625-16.708-.147s-4.974 11.876-.634 16.697 11.726 5.318 16.671 1.121z" class="E"/><path d="M574.119 93.295c2.357 14.262-42.146 41.495-42.146 41.495-.001-3.347-26.562 21.923-27.761 19.147-3.407-7.89-5.803-26.579-10.564-29.57-2.723-1.711 16.399-17.781 16.399-17.781l23.145-22.803c7.412-7.449 18.125-10.58 28.382-8.296 0 0 10.188 3.546 12.545 17.808z" class="F"/><path d="M528.876 257.043a135.77 135.77 0 0 1-7.56 44.83l-.71 2a136.48 136.48 0 0 1-54.45 67.76l-5.2 3.17a135.22 135.22 0 0 1-65.8 18.22l-2.28.02c-.98 0-1.95-.01-2.92-.03a135.36 135.36 0 0 1-65.8-18.58q-2.64-1.545-5.2-3.21c-57.542-37.301-78.354-111.581-48.57-173.35l.99-2c23.121-45.885 70.119-74.83 121.5-74.83s98.379 28.945 121.5 74.83l.99 2c8.922 18.447 13.542 38.678 13.51 59.17z" class="G"/><g fill="#e6e6e6"><path d="M486.796 301.873v2h12.18v-2zm-24.36 0v2h12.18v-2zm-24.36 0v2h12.18v-2zm-24.36 0v2h12.18v-2zm-24.36 0v2h12.18v-2zm-24.36 0v2h12.18v-2zm-24.36 0v2h12.18v-2zm-24.35 0v2h12.17v-2zm-24.36 0v2h12.18v-2zm-24.36 0v2h12.18v-2zm253.75 0h-10.16v2h9.45z"/><use xlink:href="#B"/><use xlink:href="#B" y="-29"/><use xlink:href="#B" y="-49"/><path d="M514.376 195.873h-3.22v2h4.21l-.99-2zm-27.58 0v2h12.18v-2zm-24.36 0v2h12.18v-2zm-24.36 0v2h12.18v-2zm-24.36 0v2h12.18v-2zm-24.36 0v2h12.18v-2zm-24.36 0v2h12.18v-2zm-24.36 0v2h12.18v-2zm-24.35 0v2h12.17v-2zm-24.36 0v2h12.18v-2zm-20.55 0l-.99 2h9.36v-2z"/></g><path d="M466.156 202.613v169.02l-5.2 3.17v-172.19zm-71 56v134.41l-2.28.02c-.98 0-1.95-.01-2.92-.03v-134.4zm-71-56v171.82q-2.64-1.545-5.2-3.21v-168.61z" class="F"/><path d="M69.354 432.661l-1.984-27.589c-12.993-6.495-27.376-9.721-41.899-9.396 20.432 15.793 18.795 47.358 32.945 68.96a53.68 53.68 0 0 0 40.028 23.722l17.004 9.783a89.95 89.95 0 0 0-20.944-72.346 86.89 86.89 0 0 0-16.368-14.395c-3.717 10.671-8.782 21.262-8.782 21.262z" class="G"/><circle cx="462.876" cy="197.043" r="19" class="B"/><use xlink:href="#C" fill="#fff"/><circle cx="392.876" cy="253.043" r="19" class="B"/><use xlink:href="#C" x="-70" y="56" fill="#fff"/><circle cx="321.876" cy="201.043" r="19" class="B"/><use xlink:href="#C" x="-141" y="4" fill="#fff"/><path d="M594.354 187.531l12.508-46.565-33.425-6.327 1.797 31.962-43.918 45.221c-6.481-.265-11.998 4.672-12.452 11.142s4.32 12.129 10.774 12.771 12.25-3.964 13.08-10.397z" class="E"/><path d="M610.282 88.756c11.346 8.957-3.217 59.057-3.217 59.057-2.255-2.474-4.875 34.094-7.63 32.849-7.832-3.539-22.188-15.742-27.722-14.747-3.165.569.151-24.188.151-24.188l1.756-32.444c.464-10.498 6.275-20.027 15.397-25.245 0 0 9.92-4.239 21.265 4.718z" class="F"/><path d="M218.409 193.301l13.751 61.366-88.118-5.481 23.962-60.268 50.405 4.383zm-14.673 283.228l9.898-.001 4.709-38.179h-14.609l.002 38.18z" class="D"/><path d="M200.384 471.646l15.647-.934v6.704l14.876 10.274a4.19 4.19 0 0 1-2.38 7.634h-18.629l-3.211-6.631-1.254 6.631h-7.024z" class="C"/><path d="M110.182 471.604l9.674 2.098 12.696-36.313-14.277-3.097-8.093 37.312z" class="D"/><path d="M107.942 466.122l15.49 2.405-1.421 6.552 12.36 13.194a4.19 4.19 0 0 1-3.944 6.956l-18.205-3.949-1.732-7.161-2.631 6.215-6.864-1.489zm126.468-160.14c-6.947 38.178-8.683 54.662-8.683 54.662s5.21 6.074 1.737 9.547 0 10.41 0 10.41l-7.81 84.167-6.287-1.019-15.145-2.435-5.462-.883 3.473-78.956s-3.473-6.947-1.737-8.683-1.737-12.147-1.737-12.147l-4.337-82.43-26.904 90.24s2.61 3.473 0 6.074c-2.6 2.6-7.801 15.621-7.801 15.621l-15.999 55.982-1.358 4.754-8.344-1.562-9.081-1.708-1.669-.31-2.969-.563-1.911-.359-.65-.116-3.144-.592.951-4.22.495-2.222 13.535-60.115.31-1.387.33-1.465s-1.737-4.337.863-6.947a6.78 6.78 0 0 0 1.737-6.074 2.37 2.37 0 0 1-.233-.291 3.6 3.6 0 0 1-.621-1.417c-.233-1.087-.029-2.61 1.727-4.366a7.41 7.41 0 0 0 1.232-1.766c2.639-4.997 3.968-15.582 3.968-15.582s2.348-83.837 10.032-96.644c.408-.669 8.565-13.521 8.992-13.783 8.674-5.2 76.25 1.983 76.25 1.983s4.093 10.996 4.277 12.14c.999 6.433 7.861 30.077 1.972 62.463z" class="C"/><path d="M213.876 104.043s1.462-7.59-12.588-21.641c-7.439-2.48-20.327-1.034-24.795 0-20.663 27.275-16.963 22.462-22.342 37.701-1.395 3.952-2.092 7.748-1.472 10.848 2.48 12.398 6.505 76.037 5.678 79.343s-6.612 7.439-.827 7.439 80.395-1.306 78.742-3.786-22.397-109.905-22.397-109.905z" class="B"/><path d="M302.486 204.888a8.31 8.31 0 0 1-11.158-6.157l-29.241-4.154 10.167-11.497 26.209 5.707a8.36 8.36 0 0 1 4.023 16.101z" class="D"/><path d="M178.773 99.157c2.358-1.574 5.036-2.313 7.191-4.415 7.871 5.668 8.45-3.561 15.583 10.322s32.576 47.354 43.302 57.418 30.365 15.154 36.059 18.695c3.327 1.997 6.815 3.711 10.429 5.124-2.283 4.448-3.549 9.321-6.404 13.572-16.129-1.976-37.275-8.43-49.167-11.585s-7.369-.804-12.259-4.503-.848-1.995-6.54-3.496-10.033-9.041-11.748-14.865c-4.087-4.176-7.59-8.689-11.633-12.822l-14.813-53.446z" class="B"/><circle cx="197.237" cy="47.891" r="23.933" class="D"/><path d="M213.227 91.638c-1.135-1.62-9.616-17.683-12.137-23.758a27.78 27.78 0 0 0-.49 3.987l-.025.499-.495.064c-.745.095-18.347 2.232-27.508-8.156-5.427-6.153-6.658-15.382-3.663-27.436a4.78 4.78 0 0 1-1.542-.594c-1.603-1.11-2.636-2.87-2.823-4.811l-.507.136c-16.297-7.93-2.257-31.129 12.629-19.595a7.19 7.19 0 0 1 3.93.226 7.29 7.29 0 0 1 4.501 5.966c7.691-4.045 17.87-3.387 23.135-.352 2.204 1.271 3.47 2.872 3.695 4.658 6.218.347 12.906 6.404 12.906 14.986v.598h-.598c-5.098.109-9.72 3.02-12.019 7.571a17.58 17.58 0 0 0 .54 17.937 25.29 25.29 0 0 1 3.49 19.337L214 92.741z" class="C"/><path d="M282.67 495.521c.001.316-.124.619-.348.843s-.527.348-.843.347H1.19a1.19 1.19 0 1 1 0-2.38h280.29a1.18 1.18 0 0 1 .842.348c.223.224.348.527.348.842zm382 0c.001.316-.124.619-.348.843s-.527.348-.843.347H383.19a1.19 1.19 0 1 1 0-2.38h280.29a1.18 1.18 0 0 1 .842.348c.223.224.348.527.348.842z" fill="#ccc"/><g fill="#e6e6e6"><circle cx="321.286" cy="399.169" r="10.591"/><circle cx="392.286" cy="410.169" r="10.591"/><circle cx="463.286" cy="397.169" r="10.591"/></g><defs ><path id="B" d="M511.156 287.873v2h12.18v-2zm-24.36 0v2h12.18v-2zm-24.36 0v2h12.18v-2zm-24.36 0v2h12.18v-2zm-24.36 0v2h12.18v-2zm-24.36 0v2h12.18v-2zm-24.36 0v2h12.18v-2zm-24.36 0v2h12.18v-2zm-24.35 0v2h12.17v-2zm-24.36 0v2h12.18v-2zm-24.36 0v2h12.18v-2z"/><path id="C" d="M472.63 189.124c-.594-.566-1.528-.566-2.121 0-4.032 3.215-7.653 6.914-10.782 11.013q-1.152-2.23-2.305-4.459c-.887-1.716-3.476-.2-2.59 1.514q1.685 3.261 3.371 6.522a1.52 1.52 0 0 0 2.59 0 60.75 60.75 0 0 1 11.837-12.469 1.51 1.51 0 0 0 0-2.121z"/></defs></svg>