<svg xmlns="http://www.w3.org/2000/svg" xmlns:xlink="http://www.w3.org/1999/xlink" width="1003.67" height="595.292" xmlns:v="https://vecta.io/nano"><style><![CDATA[.B{fill:#2f2e41}.C{fill:#fff}.D{fill:#e6e6e6}.E{fill:#00b0ff}.F{fill:#a0616a}.G{fill:#ffb6b6}]]></style><g fill="#f2f2f2"><path d="M231.316 556.271l16.119-5.113a54.56 54.56 0 0 0-.388-26.249c-6.476 14.399-25.475 17.926-36.3 29.419a32.82 32.82 0 0 0-8.395 27.179l-3.391 11.504c16.029-1.37 30.655-9.689 40.024-22.767a53.12 53.12 0 0 0 6.224-11.783c-6.874-.688-13.893-2.19-13.893-2.19zm571.227 0l-16.119-5.113a54.56 54.56 0 0 1 .388-26.249c6.476 14.399 25.475 17.926 36.3 29.419a32.82 32.82 0 0 1 8.395 27.179l3.391 11.504c-16.029-1.37-30.655-9.689-40.024-22.767a53.12 53.12 0 0 1-6.224-11.783c6.874-.688 13.893-2.19 13.893-2.19z"/><path d="M214.093 534.999l12.147-11.765a54.56 54.56 0 0 0-12.054-23.321c.625 15.775-14.806 27.406-19.369 42.52a32.82 32.82 0 0 0 4.607 28.071l2.095 11.809c13.736-8.375 23.116-22.344 25.669-38.228a53.12 53.12 0 0 0 .316-13.323c-6.459 2.45-13.411 4.236-13.411 4.236z"/></g><path d="M246.566 315.95a9.16 9.16 0 0 1-10.365-9.473l-58.547-59.404 16.344-11.379 52.411 61.97a9.21 9.21 0 0 1 .158 18.285z" class="G"/><path d="M159.642 221.378s-4.149 2.487 2.757 10.06c5.529 6.063 29.657 35.214 39.287 41.3-1.075 3.104.088 6.541 2.827 8.354l14.807-18.478c-.846-5.298-4.418-5.027-6.424-4.384l-9.29-11.548-21.049-35.306-19.948 8.149z" class="E"/><path d="M113.405 575.335h11.038l5.253-42.574h-16.291v42.574z" class="G"/><use xlink:href="#B" class="B"/><path d="M175.405 575.335h11.038l5.253-42.574h-16.291v42.574z" class="G"/><g class="B"><use xlink:href="#B" x="62"/><path d="M108.643 538.622h.12l2.123-69.223a18.1 18.1 0 0 1 .238-17.105l.304-.55-.788-3.653c-1.012-4.693-.548-9.584 1.33-14.003l1.98-64.573c-7.075-45.851 26.642-75.754 26.642-75.754l-6.161-25.919 61-6-4.33 31.919 10.844 37.256c7.169 69.841 5.868 137.898-5.508 203.834l.31.157c1.117.385 1.596 1.932 1.07 3.455s-1.857 2.445-2.974 2.059l-26.674-.928c-1.117-.385-1.596-1.932-1.07-3.455s1.857-2.445 2.974-2.059l1.814.917-3.868-66.798.429-12.201-.884-13.842-4.089-62.261-15.476 76.563-15.808 82.933a2.91 2.91 0 0 1-1.961 5.063h-21.585a2.92 2.92 0 0 1-2.917-2.917 2.92 2.92 0 0 1 2.917-2.917z"/></g><g class="D"><path d="M693.585 281.713H316.316c-26.411-.03-47.815-21.433-47.844-47.845V71.701c.029-26.358 21.349-47.74 47.708-47.845C374.771 7.638 436.983-.383 501.117.014c61.025.378 125.818 8.4 192.583 23.842 26.366.094 47.699 21.478 47.729 47.845v162.168c-.03 26.411-21.433 47.815-47.844 47.845zM316.316 25.856c-25.307.029-45.816 20.537-45.844 45.845v162.168c.028 25.307 20.537 45.816 45.844 45.845h377.269c25.307-.029 45.816-20.537 45.844-45.845V71.701c-.028-25.307-20.537-45.816-45.844-45.845l-.226-.026C555.2-6.14 431.955-6.144 316.583 25.82z"/><use xlink:href="#C"/><use xlink:href="#C" x="99"/><use xlink:href="#C" x="198"/><use xlink:href="#C" x="297"/><path d="M300.844 92.785a1.13 1.13 0 0 1 1.132-1.132h405.949a1.13 1.13 0 0 1 .98 1.698 1.13 1.13 0 0 1-.98.566H301.976a1.13 1.13 0 0 1-1.132-1.132z"/><use xlink:href="#D"/><use xlink:href="#D" y="-63"/><path d="M702.504 239.391a1.13 1.13 0 0 0 1.132-1.132V67.31a1.13 1.13 0 1 0-2.264 0v170.949a1.13 1.13 0 0 0 1.132 1.132z"/></g><use xlink:href="#E" class="E"/><g class="C"><use xlink:href="#F"/><use xlink:href="#F" y="12"/><use xlink:href="#F" y="24"/></g><use xlink:href="#E" x="205" y="66" class="E"/><g class="C"><use xlink:href="#F" x="205" y="66"/><use xlink:href="#F" x="205" y="78"/></g><use xlink:href="#E" x="292" fill="#fd6584"/><g class="C"><use xlink:href="#F" x="292" y="12"/><use xlink:href="#F" x="292" y="24"/></g><path d="M182.096 143.701c-5.673-8.694-14.937-15.526-25.253-16.103s-22.714 8.208-27.806 17.248c-9.314 16.535-9.436 35.497 3.392 46.997 1.742-.591 8.988-1.438 10.759-2.008l1.123-2.028 1.385 1.233c15.853 1.582 20.733-9.197 46.098-15.992-1.483-10.279-4.026-20.652-9.699-29.346z" class="B"/><circle cx="160.32" cy="163.686" r="20.964" fill="#ffb7b7"/><path d="M183.549 202.636l-11.996-7.198-23.993-2.399-21.206 10.798.213 32.988 13.453 34.214 52.41 10.802 6.115-30.068s15.595-20.946-1.2-32.942z" class="E"/><path d="M168.158 131.848a26.33 26.33 0 0 0-32.316 32.959c12.768 1.019 25.388-.173 35.337-9.206l.885-7.749 3.63 6.484q5.492-1.545 11.001-3.109c-2.286-9.3-9.347-16.682-18.536-19.379z" class="B"/><path d="M132.198 345.067a9.16 9.16 0 0 1-2.031-13.894l-7.736-83.047 19.856 1.534 1.361 81.15a9.21 9.21 0 0 1-11.45 14.257z" class="G"/><path d="M127.089 204.169s-4.787-.7-4.232 9.534c.444 8.194-1.666 58.697 1.939 69.504-2.797 1.723-4.072 5.121-3.098 8.258l23.158-4.936c2.698-4.637 2.139-9.399.178-10.17l.115-14.82 5.118-48.851-19.71-8.074zm118.36 148.582c-1.256-1.533-1.755-3.549-1.359-5.491a87.66 87.66 0 0 0 0-34.539c-.396-1.942.103-3.958 1.359-5.491a6.44 6.44 0 0 1 4.899-2.363c10.089-4.021 19.75-4.021 28.722 0 3.2.056 5.886 2.429 6.335 5.599a144.96 144.96 0 0 1 0 39.047c-.455 3.21-3.202 5.597-6.445 5.6h-28.515a6.44 6.44 0 0 1-4.998-2.363z" class="E"/><g class="C"><use xlink:href="#G"/><use xlink:href="#G" y="12"/><use xlink:href="#G" y="24"/></g><path d="M913.091 582.537h-12.299l-5.851-47.441 18.152.001-.002 47.44z" class="F"/><use xlink:href="#H" class="B"/><path d="M855.951 582.537h-12.299l-5.851-47.441 18.152.001-.002 47.44z" class="F"/><g class="B"><use xlink:href="#H" x="-57.14"/><path d="M922.881 278.806l-16.26 49.997-51.258-1.68 15.751-48.317h51.767z"/><path d="M846.12 322.921l96.634 2.521-1.681 47.057s1.681 12.604-1.681 15.966-5.042 3.361-3.361 9.243-7.199 15.489-6.12 16.568 3.599 6.961 3.599 6.961l-8.403 47.897s-5.882 83.19-7.563 84.87-3.361 0-1.681 4.201 3.361 2.521 1.681 4.201a61.89 61.89 0 0 0-4.201 5.042h-20.316s-1.532-8.403-1.532-9.243-1.681-5.882-1.681-6.722 1.485-2.326 1.485-2.326c.513-1.708.86-3.462 1.035-5.237 0-1.681 5.042-66.384 5.042-66.384l-10.084-84.03-24.369 82.349s0 72.266-1.681 73.946-1.681.84-.84 4.201 4.201 2.521 1.681 5.042-3.361-1.681-2.521 2.521l.84 4.201-25.209.361s-3.361-7.083-1.681-9.604 1.58-1.833-.471-5.958-2.891-4.966-2.05-5.806.84-5.31.84-5.31l4.201-80.401.84-87.391a8.38 8.38 0 0 0-.698-3.78v-3.422l3.219-12.125z"/></g><g class="D"><path d="M854.943 200.658l29.41-10.924 48.737 3.361 11.285 5.266a19.53 19.53 0 0 1 10.883 21.56l-14.605 72.329 3.776 34.8s-61.337 46.288-109.234 32.003c0 0 .84-13.445 1.681-18.487s2.521-5.042 3.361-7.563 2.521 0 .84-5.042 13.445-40.334 13.445-40.334z"/><path d="M901.43 207.051l23.975-14.486-7.86-14.175h-25.47l-10.09 12.223 19.445 16.438z"/></g><path d="M909.679 326.156c2.772.16 5.473-.916 7.376-2.939s2.811-4.785 2.482-7.542l29.983-14.592-14.908-8.833-26.187 15.211c-4.699.88-7.997 5.135-7.677 9.905s4.157 8.546 8.931 8.79z" class="F"/><path d="M921.458 320.099l-5.224-19.155 28.468-37.714c-9.215-11.109-12.448-27.514-10.174-51.567a10.44 10.44 0 0 1 20.118-5.378c6.442 18.788 17.648 59.22 16.188 61.41-1.681 2.522-2.258 3.641.386 6.05 3.135 2.856 1.472 15.028.042 16.774-1.304 1.591-49.803 29.581-49.803 29.581z" class="D"/><path d="M770.747 296.405c2.59 1.003 5.49.807 7.922-.535s4.144-3.691 4.676-6.417l33.014-4.689-11.479-12.981-29.591 6.443c-4.742-.604-9.186 2.434-10.345 7.072s1.334 9.409 5.803 11.106z" class="F"/><path d="M784.913 293.645l5.013-19.211 41.504-23.383c3-19 4.88-25.195 18.834-44.919a10.44 10.44 0 0 1 20.123 5.358c-3.774 19.5-20.847 71.759-22.957 72.56-1.923.73-62.516 9.594-62.516 9.594z" class="D"/><circle cx="904.52" cy="143.517" r="26.049" class="F"/><path d="M876.935 124.62c.692-6.23 9.691-12.46 25.612-16.613s24.228 13.844 24.228 13.844c11.076 5.538 4.5 34.957 1.038 32.188q-.052-.042-.104-.081a20.62 20.62 0 0 1-8.237-14.07l-.797-7.169c-3.646 2.794-7.756 5.16-12.167 4.456l5.399-5.316q-7.675 3.339-15.35 6.679l5.081-6.992-.24-.236c-2.379 2.006-5.109 3.552-8.053 4.56-3.358.962-7.381.442-9.681-2.186a7.14 7.14 0 0 1-1.376-2.476c-4.177 2.861-5.008 8.987-5.008 8.987s-1.038-9.345-.346-15.575z" class="B"/><use xlink:href="#E" x="401" y="165.209" fill="#3f3d56"/><g class="C"><use xlink:href="#F" x="401" y="165.209"/><use xlink:href="#F" x="401" y="177.209"/><use xlink:href="#F" x="401" y="189.209"/></g><circle cx="650.43" cy="53.842" r="19" class="D"/><use xlink:href="#I" class="C"/><circle cx="557.43" cy="53.842" r="19" class="D"/><use xlink:href="#I" x="-93" class="C"/><circle cx="361.43" cy="51.842" r="19" class="D"/><use xlink:href="#I" x="-289" y="-2" class="C"/><circle cx="134.43" cy="135.842" r="13" class="B"/><path d="M282.67 594.102c.001.316-.124.619-.348.843s-.527.348-.843.347H1.19a1.19 1.19 0 1 1 0-2.38h280.29a1.18 1.18 0 0 1 .842.348c.223.224.348.527.348.842zm721 0c.001.316-.124.619-.348.843s-.527.348-.843.347H722.19a1.19 1.19 0 1 1 0-2.38h280.29a1.18 1.18 0 0 1 .842.348c.223.224.348.527.348.842z" fill="#ccc"/><path d="M130.514 122.803c-2.25-.626-4.591.422-6.691 1.444l-7.471 3.636q7.758.681 15.516 1.361l.571-1.075c1.79-1.5.324-4.74-1.926-5.366z" class="B"/><defs ><path id="B" d="M109.803 567.775l17.634-1.053v7.555l16.765 11.579a4.72 4.72 0 0 1-2.682 8.603h-20.994l-3.619-7.473-1.413 7.473h-7.916z"/><path id="C" d="M309.662 239.391a1.13 1.13 0 0 1-1.132-1.132V67.31a1.13 1.13 0 1 1 2.264 0v170.949a1.13 1.13 0 0 1-1.132 1.132z"/><path id="D" d="M300.844 218.785a1.13 1.13 0 0 1 1.132-1.132h405.949a1.13 1.13 0 1 1 0 2.264H301.976a1.13 1.13 0 0 1-1.132-1.132z"/><path id="E" d="M371.413 148.114h-28.515c-3.243-.002-5.99-2.389-6.445-5.6-1.761-12.956-1.761-26.091 0-39.047.45-3.169 3.135-5.542 6.335-5.599 8.972-4.021 18.633-4.021 28.722 0a6.44 6.44 0 0 1 4.899 2.363c1.256 1.533 1.755 3.549 1.359 5.491a87.66 87.66 0 0 0 0 34.539c.396 1.942-.103 3.958-1.359 5.491a6.44 6.44 0 0 1-4.998 2.363z"/><path id="F" d="M368.426 112.755h-24a1.5 1.5 0 1 1 0-3h24a1.5 1.5 0 1 1 0 3z"/><path id="G" d="M253.433 319.755h24a1.5 1.5 0 1 0 0-3h-24a1.5 1.5 0 1 0 0 3z"/><path id="H" d="M916.228 594.459l-39.658-.001v-.502a15.44 15.44 0 0 1 15.436-15.436h.001l7.244-5.496 13.516 5.497h3.462z"/><path id="I" d="M660.183 45.924c-.594-.566-1.528-.566-2.121 0-4.032 3.215-7.653 6.914-10.782 11.013q-1.152-2.23-2.305-4.459c-.887-1.716-3.476-.2-2.59 1.514q1.685 3.261 3.371 6.522a1.52 1.52 0 0 0 2.59 0 60.75 60.75 0 0 1 11.837-12.469 1.51 1.51 0 0 0 0-2.121z"/></defs></svg>