<svg width="400" height="400" viewBox="0 0 400 400" fill="none" xmlns="http://www.w3.org/2000/svg">
<rect width="400" height="400" fill="#F8FAFC"/>
<g clip-path="url(#clip0_942:17354)">
<path opacity="0.4" d="M271.047 232.991C287.549 232.991 300.926 219.563 300.926 202.998C300.926 186.434 287.549 173.006 271.047 173.006C254.545 173.006 241.167 186.434 241.167 202.998C241.167 219.563 254.545 232.991 271.047 232.991Z" fill="#F87171"/>
<path d="M271.729 244.498H105.11V289.828H271.729V244.498Z" fill="#991B1B"/>
<path d="M271.923 335.939H104.915V85.8448H271.923V335.939ZM105.694 335.157H271.144V86.6264H105.694V335.157Z" fill="#991B1B"/>
<path d="M271.728 91.7772H105.499V92.5588H271.728V91.7772Z" fill="#991B1B"/>
<path d="M109.781 90.5341C110.641 90.5341 111.338 89.8343 111.338 88.971C111.338 88.1078 110.641 87.408 109.781 87.408C108.921 87.408 108.224 88.1078 108.224 88.971C108.224 89.8343 108.921 90.5341 109.781 90.5341Z" fill="#F87171"/>
<path d="M114.064 90.5341C114.924 90.5341 115.621 89.8343 115.621 88.971C115.621 88.1078 114.924 87.408 114.064 87.408C113.204 87.408 112.506 88.1078 112.506 88.971C112.506 89.8343 113.204 90.5341 114.064 90.5341Z" fill="#F87171"/>
<path d="M118.346 90.5341C119.206 90.5341 119.903 89.8343 119.903 88.971C119.903 88.1078 119.206 87.408 118.346 87.408C117.486 87.408 116.789 88.1078 116.789 88.971C116.789 89.8343 117.486 90.5341 118.346 90.5341Z" fill="#F87171"/>
<path d="M118.346 97.1772H111.339V101.085H118.346V97.1772Z" fill="#F87171"/>
<path d="M145.597 128.048H111.339V131.956H145.597V128.048Z" fill="#F87171"/>
<path d="M233.188 101.085H267.446V97.1772H233.188V101.085Z" fill="#FEE2E2"/>
<path d="M168.955 134.691H111.339V137.036H168.955V134.691Z" fill="#FEE2E2"/>
<path d="M165.84 139.771H111.339V142.116H165.84V139.771Z" fill="#FEE2E2"/>
<path d="M151.047 144.851H111.339V147.196H151.047V144.851Z" fill="#FEE2E2"/>
<path d="M147.154 214.409H124.575V216.753H147.154V214.409Z" fill="#FEE2E2"/>
<path d="M145.933 219.489H124.575V221.833H145.933V219.489Z" fill="#FEE2E2"/>
<path d="M140.136 224.569H124.575V226.913H140.136V224.569Z" fill="#FEE2E2"/>
<path d="M199.709 214.409H177.13V216.753H199.709V214.409Z" fill="#FEE2E2"/>
<path d="M198.489 219.489H177.13V221.833H198.489V219.489Z" fill="#FEE2E2"/>
<path d="M192.691 224.569H177.13V226.913H192.691V224.569Z" fill="#FEE2E2"/>
<path d="M254.21 214.409H231.631V216.753H254.21V214.409Z" fill="#FEE2E2"/>
<path d="M252.99 219.489H231.631V221.833H252.99V219.489Z" fill="#FEE2E2"/>
<path d="M247.192 224.569H231.631V226.913H247.192V224.569Z" fill="#FEE2E2"/>
<path d="M193.869 303.114H159.611V307.022H193.869V303.114Z" fill="#F87171"/>
<path d="M217.227 309.757H159.611V312.102H217.227V309.757Z" fill="#FEE2E2"/>
<path d="M214.113 314.837H159.611V317.182H214.113V314.837Z" fill="#FEE2E2"/>
<path d="M199.32 319.917H159.611V322.262H199.32V319.917Z" fill="#FEE2E2"/>
<path opacity="0.3" d="M257.13 170.252H121.655V171.033H257.13V170.252Z" fill="#F87171"/>
<path opacity="0.3" d="M150.268 183.929H121.46V209.72H150.268V183.929Z" fill="#F87171"/>
<path d="M202.823 183.929H174.015V209.72H202.823V183.929Z" fill="#991B1B"/>
<path d="M257.325 183.929H228.517V209.72H257.325V183.929Z" fill="#991B1B"/>
<path d="M184.666 209.611L184.286 209.604C184.294 209.181 184.531 199.224 188.436 196.472L188.655 196.784C184.907 199.425 184.668 209.51 184.666 209.611Z" fill="#F87171"/>
<path d="M190.446 196.346C191.496 196.346 192.346 195.492 192.346 194.439C192.346 193.385 191.496 192.531 190.446 192.531C189.397 192.531 188.546 193.385 188.546 194.439C188.546 195.492 189.397 196.346 190.446 196.346Z" fill="#F87171"/>
<path d="M190.061 201.174C189.073 201.486 188.02 201.531 187.009 201.306C187.651 200.485 188.516 199.869 189.5 199.53C190.483 199.191 191.543 199.145 192.552 199.398C191.891 200.198 191.032 200.811 190.061 201.174Z" fill="#F87171"/>
<path d="M239.167 209.611L238.787 209.604C238.795 209.181 239.033 199.224 242.938 196.472L243.156 196.784C239.409 199.425 239.169 209.51 239.167 209.611Z" fill="#F87171"/>
<path d="M244.948 196.346C245.997 196.346 246.848 195.492 246.848 194.439C246.848 193.385 245.997 192.531 244.948 192.531C243.898 192.531 243.047 193.385 243.047 194.439C243.047 195.492 243.898 196.346 244.948 196.346Z" fill="#F87171"/>
<path d="M244.563 201.174C243.574 201.486 242.522 201.531 241.51 201.306C242.153 200.485 243.018 199.869 244.001 199.53C244.985 199.191 246.045 199.145 247.054 199.398C246.393 200.198 245.534 200.811 244.563 201.174V201.174Z" fill="#F87171"/>
<path d="M145.597 258.957H111.339V262.865H145.597V258.957Z" fill="#F87171"/>
<path d="M168.955 265.6H111.339V267.944H168.955V265.6Z" fill="#FEE2E2"/>
<path d="M165.84 270.68H111.339V273.025H165.84V270.68Z" fill="#FEE2E2"/>
<path d="M151.047 275.76H111.339V278.105H151.047V275.76Z" fill="#FEE2E2"/>
<path opacity="0.4" d="M238.152 276.56C244.871 276.56 250.317 271.093 250.317 264.349C250.317 257.606 244.871 252.139 238.152 252.139C231.434 252.139 225.988 257.606 225.988 264.349C225.988 271.093 231.434 276.56 238.152 276.56Z" fill="#F87171"/>
<path opacity="0.4" d="M215.639 278.747C220.352 278.747 224.172 274.912 224.172 270.181C224.172 265.451 220.352 261.615 215.639 261.615C210.926 261.615 207.105 265.451 207.105 270.181C207.105 274.912 210.926 278.747 215.639 278.747Z" fill="#F87171"/>
<path d="M65.207 322.457C82.1922 322.457 95.9614 308.636 95.9614 291.586C95.9614 274.537 82.1922 260.715 65.207 260.715C48.2218 260.715 34.4526 274.537 34.4526 291.586C34.4526 308.636 48.2218 322.457 65.207 322.457Z" fill="#DC2626"/>
<path d="M60.5355 315.814H51.1924V332.617H60.5355V315.814Z" fill="#DC2626"/>
<path d="M79.2215 315.814H69.8784V332.617H79.2215V315.814Z" fill="#DC2626"/>
<path d="M58.9783 335.743C63.2783 335.743 66.7642 334.431 66.7642 332.813C66.7642 331.194 63.2783 329.882 58.9783 329.882C54.6783 329.882 51.1924 331.194 51.1924 332.813C51.1924 334.431 54.6783 335.743 58.9783 335.743Z" fill="#DC2626"/>
<path d="M77.6643 335.353C81.9644 335.353 85.4503 334.04 85.4503 332.422C85.4503 330.803 81.9644 329.491 77.6643 329.491C73.3643 329.491 69.8784 330.803 69.8784 332.422C69.8784 334.04 73.3643 335.353 77.6643 335.353Z" fill="#DC2626"/>
<path d="M65.9856 294.322C71.7907 294.322 76.4966 289.598 76.4966 283.771C76.4966 277.944 71.7907 273.22 65.9856 273.22C60.1805 273.22 55.4746 277.944 55.4746 283.771C55.4746 289.598 60.1805 294.322 65.9856 294.322Z" fill="white"/>
<path d="M66.1801 312.921C69.1901 312.921 71.6303 310.472 71.6303 307.451C71.6303 304.429 69.1901 301.98 66.1801 301.98C63.1701 301.98 60.73 304.429 60.73 307.451C60.73 310.472 63.1701 312.921 66.1801 312.921Z" fill="white"/>
<path d="M65.9856 282.598C67.9206 282.598 69.4893 281.024 69.4893 279.082C69.4893 277.139 67.9206 275.565 65.9856 275.565C64.0506 275.565 62.4819 277.139 62.4819 279.082C62.4819 281.024 64.0506 282.598 65.9856 282.598Z" fill="#991B1B"/>
<path d="M92.8553 259.469C96.434 251.738 97.3752 244.556 94.9574 243.429C92.5396 242.301 87.6784 247.654 84.0996 255.385C80.5208 263.116 79.5796 270.297 81.9974 271.425C84.4152 272.552 89.2765 267.2 92.8553 259.469Z" fill="#DC2626"/>
<path d="M39.2241 280.447C41.5804 279.195 40.2698 272.072 36.2967 264.538C32.3237 257.004 27.1927 251.911 24.8364 253.163C22.48 254.415 23.7906 261.538 27.7637 269.072C31.7367 276.606 36.8677 281.699 39.2241 280.447Z" fill="#DC2626"/>
<path d="M324.754 283.031C327.242 282.069 326.783 274.84 323.728 266.886C320.674 258.931 316.182 253.263 313.694 254.226C311.206 255.188 311.665 262.417 314.72 270.371C317.774 278.325 322.267 283.994 324.754 283.031Z" fill="#DC2626"/>
<path d="M347.715 322.731C364.701 322.731 378.47 308.91 378.47 291.86C378.47 274.811 364.701 260.99 347.715 260.99C330.73 260.99 316.961 274.811 316.961 291.86C316.961 308.91 330.73 322.731 347.715 322.731Z" fill="#DC2626"/>
<path d="M352.5 332.877L361.843 332.85L361.796 316.047L352.453 316.073L352.5 332.877Z" fill="#DC2626"/>
<path d="M333.815 332.931L343.158 332.904L343.111 316.101L333.768 316.128L333.815 332.931Z" fill="#DC2626"/>
<path d="M354.067 336C358.367 335.988 361.849 334.666 361.845 333.047C361.84 331.429 358.351 330.126 354.051 330.138C349.751 330.15 346.268 331.472 346.273 333.091C346.277 334.71 349.767 336.012 354.067 336Z" fill="#DC2626"/>
<path d="M335.38 335.662C339.68 335.65 343.162 334.328 343.158 332.709C343.153 331.09 339.664 329.788 335.364 329.8C331.064 329.812 327.581 331.134 327.586 332.753C327.59 334.371 331.08 335.674 335.38 335.662Z" fill="#DC2626"/>
<path d="M346.914 294.598C352.719 294.598 357.425 289.874 357.425 284.047C357.425 278.22 352.719 273.496 346.914 273.496C341.109 273.496 336.403 278.22 336.403 284.047C336.403 289.874 341.109 294.598 346.914 294.598Z" fill="white"/>
<path d="M346.914 287.564C348.849 287.564 350.418 285.99 350.418 284.047C350.418 282.105 348.849 280.53 346.914 280.53C344.979 280.53 343.411 282.105 343.411 284.047C343.411 285.99 344.979 287.564 346.914 287.564Z" fill="#991B1B"/>
<path d="M384.395 281.811C392.058 278.136 397.339 273.2 396.19 270.785C395.04 268.37 387.897 269.392 380.234 273.066C372.571 276.741 367.29 281.678 368.439 284.092C369.589 286.507 376.732 285.486 384.395 281.811Z" fill="#DC2626"/>
<path d="M362.853 302.955C362.861 305.976 355.127 311.964 346.527 311.988C337.927 312.013 329.84 303.529 329.832 300.508C329.823 297.486 337.897 301.071 346.497 301.047C355.097 301.023 362.844 299.933 362.853 302.955Z" fill="white"/>
<path opacity="0.4" d="M355.524 283.026C379.227 283.026 398.443 263.737 398.443 239.944C398.443 216.151 379.227 196.862 355.524 196.862C331.82 196.862 312.604 216.151 312.604 239.944C312.604 263.737 331.82 283.026 355.524 283.026Z" fill="#F87171"/>
<path d="M70.229 247.663C87.2142 247.663 100.983 233.841 100.983 216.792C100.983 199.742 87.2142 185.921 70.229 185.921C53.2438 185.921 39.4746 199.742 39.4746 216.792C39.4746 233.841 53.2438 247.663 70.229 247.663Z" fill="#DC2626"/>
<path d="M61.3328 239.797L52.1392 238.126L49.1573 254.66L58.3509 256.331L61.3328 239.797Z" fill="#DC2626"/>
<path d="M79.72 243.138L70.5264 241.467L67.5445 258.002L76.7381 259.672L79.72 243.138Z" fill="#DC2626"/>
<path d="M79.6864 265.966C80.7285 264.731 78.9133 261.468 75.6319 258.679C72.3505 255.889 68.8456 254.629 67.8034 255.865C66.7613 257.1 68.5766 260.362 71.858 263.152C75.1394 265.941 78.6443 267.202 79.6864 265.966Z" fill="#DC2626"/>
<path d="M61.682 262.695C62.7241 261.46 60.9089 258.197 57.6275 255.407C54.3461 252.618 50.8412 251.358 49.799 252.593C48.7569 253.828 50.5722 257.091 53.8536 259.88C57.135 262.67 60.6399 263.93 61.682 262.695Z" fill="#DC2626"/>
<path d="M72.3821 219.791C78.1871 219.791 82.8931 215.067 82.8931 209.24C82.8931 203.413 78.1871 198.69 72.3821 198.69C66.577 198.69 61.8711 203.413 61.8711 209.24C61.8711 215.067 66.577 219.791 72.3821 219.791Z" fill="white"/>
<path d="M76.7019 208.975C78.6369 208.975 80.2056 207.401 80.2056 205.459C80.2056 203.516 78.6369 201.942 76.7019 201.942C74.7669 201.942 73.1982 203.516 73.1982 205.459C73.1982 207.401 74.7669 208.975 76.7019 208.975Z" fill="#991B1B"/>
<path d="M99.7051 215.891C107.983 213.986 114.211 210.327 113.615 207.719C113.019 205.11 105.826 204.54 97.5481 206.444C89.2701 208.349 83.0424 212.008 83.6381 214.616C84.2338 217.225 91.4272 217.795 99.7051 215.891Z" fill="#DC2626"/>
<path d="M39.3355 225.968C47.6134 224.063 53.8411 220.405 53.2454 217.796C52.6498 215.188 45.4563 214.617 37.1784 216.522C28.9005 218.426 22.6728 222.085 23.2685 224.694C23.8641 227.302 31.0576 227.873 39.3355 225.968Z" fill="#DC2626"/>
<path d="M61.7825 228.957C61.4515 230.793 61.8604 232.686 62.9195 234.219C63.9785 235.752 65.6008 236.8 67.4295 237.132C69.2583 237.464 71.1436 237.054 72.6708 235.991C74.198 234.928 75.242 233.299 75.573 231.463C76.2624 227.641 73.3181 226.288 69.5099 225.596C65.7018 224.904 62.4719 225.135 61.7825 228.957Z" fill="white"/>
<path d="M136.969 185.237L109.374 176.933L101.996 201.638L129.59 209.942L136.969 185.237Z" fill="#991B1B"/>
<path d="M112.229 204.604L111.867 204.487C111.995 204.085 115.071 194.616 119.599 193.105L119.719 193.467C115.374 194.917 112.259 204.507 112.229 204.604Z" fill="#F87171"/>
<path d="M122.106 193.644C123.155 193.644 124.006 192.79 124.006 191.737C124.006 190.683 123.155 189.829 122.106 189.829C121.056 189.829 120.206 190.683 120.206 191.737C120.206 192.79 121.056 193.644 122.106 193.644Z" fill="#F87171"/>
<path d="M119.811 198.078C118.775 198.091 117.753 197.831 116.849 197.324C117.699 196.723 118.704 196.382 119.743 196.341C120.782 196.3 121.81 196.562 122.705 197.094C121.842 197.671 120.844 198.01 119.811 198.078V198.078Z" fill="#F87171"/>
<path d="M249.27 149.954C249.274 152.534 248.684 155.081 247.546 157.394C247.417 157.66 247.281 157.918 247.137 158.176H217.874C217.73 157.918 217.593 157.66 217.465 157.394C216.348 155.121 215.757 152.623 215.736 150.087C215.715 147.552 216.265 145.045 217.345 142.753C218.426 140.461 220.007 138.444 221.973 136.851C223.939 135.259 226.237 134.133 228.697 133.558C231.157 132.982 233.715 132.972 236.179 133.528C238.643 134.084 240.951 135.192 242.929 136.768C244.907 138.345 246.505 140.349 247.603 142.633C248.701 144.916 249.271 147.419 249.27 149.954V149.954Z" fill="#DC2626"/>
<path d="M232.93 151.444C236.094 151.444 238.66 148.868 238.66 145.692C238.66 142.515 236.094 139.94 232.93 139.94C229.765 139.94 227.2 142.515 227.2 145.692C227.2 148.868 229.765 151.444 232.93 151.444Z" fill="white"/>
<path d="M232.93 147.609C233.985 147.609 234.84 146.751 234.84 145.692C234.84 144.633 233.985 143.774 232.93 143.774C231.875 143.774 231.02 144.633 231.02 145.692C231.02 146.751 231.875 147.609 232.93 147.609Z" fill="#991B1B"/>
<path d="M256.546 115.582H208.273C207.757 115.582 207.262 115.749 206.897 116.047C206.532 116.345 206.327 116.75 206.327 117.171V156.587C206.327 157.008 206.532 157.412 206.897 157.71C207.262 158.008 207.757 158.176 208.273 158.176H256.546C257.062 158.176 257.557 158.008 257.922 157.71C258.287 157.412 258.492 157.008 258.492 156.587V117.171C258.492 116.75 258.287 116.345 257.922 116.047C257.557 115.749 257.062 115.582 256.546 115.582V115.582ZM257.714 156.587C257.713 156.839 257.589 157.081 257.371 157.26C257.152 157.439 256.855 157.539 256.546 157.54H208.273C207.964 157.539 207.667 157.439 207.448 157.26C207.229 157.081 207.106 156.839 207.105 156.587V117.171C207.106 116.918 207.229 116.676 207.448 116.498C207.667 116.319 207.964 116.218 208.273 116.218H256.546C256.855 116.218 257.152 116.319 257.371 116.498C257.59 116.676 257.713 116.918 257.714 117.171V156.587Z" fill="#991B1B"/>
</g>
<defs>
<clipPath id="clip0_942:17354">
<rect width="400" height="272" fill="white" transform="translate(0 64)"/>
</clipPath>
</defs>
</svg>
