<svg xmlns="http://www.w3.org/2000/svg" xmlns:xlink="http://www.w3.org/1999/xlink" width="904.512" height="587.861" xmlns:v="https://vecta.io/nano"><style><![CDATA[.B{fill:#fff}.C{fill:#00b0ff}.D{fill:#3f3d56}.E{fill:#ffb8b8}.F{fill:#2f2e41}.G{fill:#e6e6e6}]]></style><path d="M883.038 359.027h-31.804a4.5 4.5 0 0 1-3.535-1.703 4.41 4.41 0 0 1-.863-3.746c2.987-13.185 2.843-26.885-.42-40.004a4.47 4.47 0 0 1 2.422-5.131c13.284-6.218 25.483-6.056 36.257.48 1.143.684 1.927 1.837 2.143 3.151a141.55 141.55 0 0 1 .259 43.08 4.49 4.49 0 0 1-4.46 3.872z" class="C"/><g class="B"><use xlink:href="#B"/><use xlink:href="#B" y="-8"/></g><g fill="#f2f2f2"><circle cx="246.148" cy="186.839" r="169"/><circle cx="442.148" cy="318.839" r="32"/><circle cx="603.148" cy="409.839" r="13"/><path d="M703.522 460.97c-5.482-41.892-31.73-83.035-71.801-96.422a194.66 194.66 0 0 1 .846 133.644c-6.038 16.659-14.488 34.559-8.601 51.271 3.663 10.399 12.51 18.317 22.375 23.24s20.794 7.229 31.585 9.489l2.132 1.741c16.86-38.739 28.947-81.07 23.464-122.962z"/></g><g class="B"><path d="M631.329 365.343a166.38 166.38 0 0 1 41.961 93.372c.774 7.452.912 15.079-.671 22.439-1.598 7.162-5.085 13.766-10.098 19.125-4.574 5.091-9.843 9.768-13.1 15.882-3.433 6.444-3.52 13.742-1.098 20.549 2.963 8.328 8.743 15.094 14.624 21.515 6.53 7.129 13.426 14.43 16.243 23.918.341 1.15 2.105.553 1.764-.595-4.901-16.508-21.016-25.8-28.768-40.647-3.617-6.928-5.168-14.988-1.866-22.347 2.888-6.435 8.316-11.263 12.992-16.378 4.91-5.37 8.663-11.252 10.571-18.333 1.951-7.243 2.112-14.891 1.532-22.33a161.42 161.42 0 0 0-12.103-48.977 169.33 169.33 0 0 0-30.76-48.598c-.802-.886-2.02.524-1.223 1.404z"/><path d="M672.716 447.45c11.865-2.961 19.838-14.082 18.834-26.27-.103-1.194-1.962-1.09-1.86.105.957 11.352-6.5 21.708-17.569 24.401-1.164.285-.562 2.047.595 1.764zm-7.537 50.554a48.11 48.11 0 0 1-21.662-27.571c-.345-1.148-2.109-.552-1.764.595 3.66 12.052 11.73 22.281 22.6 28.645 1.036.606 1.858-1.066.827-1.668zm-10.99-101.527a14.13 14.13 0 0 1-13.394-.594c-1.028-.619-1.848 1.054-.827 1.668a15.83 15.83 0 0 0 14.816.69c.476-.178.731-.694.585-1.18-.166-.485-.693-.746-1.18-.585z"/></g><path d="M510.323 440.212l1.894 1.229c8.456 5.483 16.453 11.645 23.911 18.423l1.739 1.576c17.795 16.522 32.368 36.205 42.977 58.047a190.51 190.51 0 0 1 10.608 26.932c3.932 12.752 7.181 26.891 14.87 37.293.79 1.094 1.647 2.138 2.566 3.127l68.88-.441c.156-.08.313-.143.47-.223l2.751.108-.356-1.475c-.065-.282-.145-.565-.21-.847-.048-.188-.097-.377-.129-.549-.016-.063-.032-.125-.048-.173-.033-.173-.081-.33-.114-.486q-1.064-4.213-2.191-8.425c0-.016 0-.016-.016-.031-5.779-21.384-13.395-42.473-23.969-61.736-.318-.579-.636-1.175-.986-1.754a181.79 181.79 0 0 0-16.487-24.663 160.71 160.71 0 0 0-10.781-12.174 133.64 133.64 0 0 0-33.602-24.836c-24.788-12.886-53.422-17.7-79.773-9.563l-2.007.641z" fill="#f2f2f2"/><g class="B"><path d="M510.483 441.085a166.38 166.38 0 0 1 89.72 49.289c5.105 5.484 9.806 11.491 12.974 18.321 3.036 6.681 4.228 14.053 3.452 21.35-.587 6.819-1.978 13.725-.897 20.568 1.139 7.212 5.463 13.092 11.495 17.068 7.38 4.865 16.068 6.788 24.63 8.374 9.506 1.76 19.408 3.438 27.37 9.318.965.712 2.014-.826 1.05-1.537-13.853-10.23-32.314-7.946-47.442-15.134-7.059-3.354-13.151-8.855-14.944-16.719-1.569-6.877-.141-14 .513-20.899.687-7.244.143-14.2-2.597-21.002-2.803-6.958-7.279-13.162-12.222-18.752a161.42 161.42 0 0 0-39.151-31.819 169.33 169.33 0 0 0-53.82-20.284c-1.174-.225-1.297 1.634-.131 1.858z"/><path d="M592.963 481.725c7.691-9.508 7.361-23.188-.779-32.314-.801-.891-2.223.311-1.422 1.203a23.12 23.12 0 0 1 .663 30.061c-.758.928.784 1.973 1.537 1.05zm24.418 44.903c-12.025 1.379-24.128-1.824-33.896-8.972-.967-.709-2.017.829-1.05 1.537a50.05 50.05 0 0 0 35.291 9.265c1.192-.14.841-1.969-.344-1.83zm-69.901-74.447a14.13 14.13 0 0 1-11.052 7.59c-1.193.125-.841 1.954.344 1.83a15.83 15.83 0 0 0 12.245-8.37.96.96 0 0 0-.244-1.294c-.425-.287-1.002-.179-1.294.244z"/></g><path d="M840.691 297.249l-9.315-90.164-2.459-37.108 26.072-4.714s3.904 25.51 7.32 40.481c3.371 14.773-4.49 89.526-4.698 91.498 3.92 3.505 5.271 9.066 3.396 13.979s-6.587 8.16-11.845 8.162-9.973-3.24-11.853-8.151-.534-10.473 3.382-13.982z" class="E"/><path fill="#ffb6b6" d="M734.148 574.092h-13.264l-6.31-51.16 19.576.001-.002 51.159z"/><use xlink:href="#C" class="F"/><path fill="#ffb6b6" d="M851.045 574.092h-13.263l-6.31-51.16 19.576.001-.003 51.159z"/><g class="F"><use xlink:href="#C" x="116.898"/><path d="M830.872 300.281l11.156 105.981s14.851 106.117 12.062 120.759.697 16.734.697 16.734l-25.448-1.812s.697-9.064-3.486-13.248-2.092-16.734-2.092-16.734l-49.365-172.634-29.981 90.641-5.578 101.1c-.697 1.394-2.789 20.22-2.789 20.22h-25.798s3.486-11.156-1.394-14.642-9.064-.697-4.881-6.972 5.578-13.945 4.183-17.431-1.395-17.431-1.395-17.431 2.092-188.255 13.945-194.53 110.164 0 110.164 0z"/></g><circle cx="778.04" cy="58.259" r="27.439" class="E"/><path d="M859.385 179.647l-26.986 9.678-8.219 2.945-5.999-76.627 20.589 10.92a.43.43 0 0 1 .091.09c3.566 3.938 6.55 8.366 8.862 13.149 11.291 22.954 11.663 39.845 11.663 39.845z" class="D"/><path d="M673.481 290.776l27.907-86.241c3.592-27.28 13.925-39.314 15.474-38.008l26.668 9.239-13.303 40.039c-5.132 14.257-40.278 80.08-41.265 81.799 2.17 4.79 1.159 10.422-2.541 14.159s-9.322 4.803-14.133 2.681-7.814-6.993-7.549-12.245 3.743-9.796 8.743-11.423z" class="E"/><g class="D"><path d="M756.34 120.578s-23.089-11.316-32.044 10.909c-5.865 14.988-8.642 21.526-12.558 37.137 0 0 23.535 3.531 31.082 16.831z"/><path d="M840.355 311.832c-53.139 10.974-123.558-7.893-123.558-7.893l18.785-81.43-6.679-85.218c-.816-10.421 5.12-20.19 14.354-23.651l12.75-4.776 10.539-15.088 30.103.988 12.034 15.84 9.497 5.038 20.589 10.92.091.045v.045l-6.461 62.672-3.897 37.788s11.835 42.5 9.406 48.136c-2.429 5.627-.317 2.909.272 5.917s2.392 3.199 2.664 9.125c.281 5.917-.489 21.54-.489 21.54z"/></g><path d="M807.806 48.488c-2.168-2.139 1.096-7.802.479-10.785-.707-3.42-4.476-3.52-5.375-6.895-.967-3.63-4.835-5.607-8.412-6.757a54.39 54.39 0 0 0-28.347-1.298 108.2 108.2 0 0 0-12.263 3.778c-2.768.974-.099-1.677-2.866-.703-1.048.234-1.973.847-2.595 1.722-.498.941.173 2.445 1.22 2.255q-5.068 2.235-10.137 4.47 2.843 2.978 5.685 5.956c-2.694-.767-5.566 2.445-4.504 5.037.867 1.661 2.497 2.789 4.356 3.016 3.044.592.735 3.489 3.835 3.432s24.719-6.412 26.227-3.702c1.073 1.93.955 4.486 2.488 6.075 1.961 2.034 5.384 1.29 7.879-.034s5.026-3.144 7.834-2.827c2.931.331 5.147 5.747 5.869 8.607s.266 5.869-.193 8.782c-.603 3.826-6.644 7.653-7.247 11.479 6.704 1.854 13.895-4.045 16.546-14.303-.264-6.485 4.141-12.748-.479-17.306z" class="F"/><path d="M381.247 404.844c-80.774.004-151.053-60.252-161.435-142.437l1.984-.251c10.254 81.171 79.677 140.684 159.452 140.688a161.36 161.36 0 0 0 20.273-1.279c87.986-11.115 150.524-91.739 139.409-179.725l1.984-.251c11.253 89.08-52.063 170.708-141.143 181.96-6.808.861-13.664 1.294-20.526 1.295z" class="D"/><path d="M385.585 438.292h-31.804a4.5 4.5 0 0 1-3.535-1.703 4.41 4.41 0 0 1-.863-3.746c3.018-13.319 2.84-27.164-.52-40.401-.47-1.875.317-3.841 1.951-4.874 11.002-6.816 22.983-6.603 36.628.652a4.55 4.55 0 0 1 2.368 3.275 141.56 141.56 0 0 1 .234 42.924 4.49 4.49 0 0 1-4.46 3.872z" class="C"/><path d="M240.585 268.292h-31.804a4.5 4.5 0 0 1-3.535-1.703 4.41 4.41 0 0 1-.863-3.746 86.49 86.49 0 0 0-.555-40.536 4.51 4.51 0 0 1 1.75-4.738c16.354-11.762 29.232-11.42 38.279 1.016a4.52 4.52 0 0 1 .792 1.91 141.54 141.54 0 0 1 .396 43.925 4.49 4.49 0 0 1-4.46 3.872z" fill="#ccc"/><g class="B"><use xlink:href="#D"/><use xlink:href="#B" x="-498.453" y="79.265"/><use xlink:href="#D" x="-140" y="-172"/><use xlink:href="#D" x="-140" y="-164"/><use xlink:href="#D" x="-140" y="-156"/></g><path d="M668.626 305.865H566.961a10.29 10.29 0 0 1-10.277-10.277v-62.616a10.29 10.29 0 0 1 10.277-10.277h101.665a10.29 10.29 0 0 1 10.277 10.277v62.616a10.29 10.29 0 0 1-10.277 10.277z" class="G"/><path d="M628.233 297.8h-54.125a9.64 9.64 0 0 1-9.625-9.625v-47.79a9.64 9.64 0 0 1 9.625-9.625h87.373a9.64 9.64 0 0 1 9.625 9.625v14.543c-.027 23.666-19.205 42.844-42.872 42.871z" class="B"/><g class="C"><path d="M652.764 256.93h-69.941a2.28 2.28 0 1 1 0-4.562h69.941a2.28 2.28 0 1 1 0 4.562z"/><use xlink:href="#D" x="223.039" y="-142.5"/><path d="M613.141 274.956h-30.318a2.28 2.28 0 1 1 0-4.562h30.318a2.28 2.28 0 1 1 0 4.562z"/></g><g class="D"><circle cx="553.137" cy="221.448" r="21.506"/><path d="M309.687 57.85c5.987-30.391 35.478-50.174 65.87-44.187s50.174 35.478 44.187 65.87l-1.963-.387c5.774-29.307-13.303-57.746-42.611-63.52s-57.746 13.303-63.52 42.611z"/></g><path d="M330.984 93.234l-31.776 1.316a4.5 4.5 0 0 1-3.602-1.555 4.41 4.41 0 0 1-1.017-3.707c2.439-13.297 1.728-26.98-2.075-39.953a4.47 4.47 0 0 1 2.208-5.227c13.015-6.762 25.211-7.105 36.246-1.02 1.171.636 2.002 1.755 2.272 3.06a141.55 141.55 0 0 1 2.042 43.032 4.49 4.49 0 0 1-4.296 4.053z" class="C"/><path d="M329.64 72.436l-24.297 1.006a2.28 2.28 0 1 1-.189-4.558l24.297-1.006a2.281 2.281 0 1 1 .189 4.558zm-.331-7.993l-24.297 1.006a2.281 2.281 0 1 1-.189-4.558l24.297-1.006a2.281 2.281 0 1 1 .189 4.558z" class="B"/><path d="M538.942 83.17H437.277A10.29 10.29 0 0 1 427 72.893V10.277A10.29 10.29 0 0 1 437.277 0h101.665a10.29 10.29 0 0 1 10.277 10.277v62.616a10.29 10.29 0 0 1-10.277 10.277z" class="G"/><path d="M498.549 75.104h-54.125a9.64 9.64 0 0 1-9.625-9.625V17.69a9.64 9.64 0 0 1 9.625-9.625h87.373a9.64 9.64 0 0 1 9.625 9.625v14.543c-.027 23.666-19.205 42.844-42.872 42.871z" class="B"/><g class="C"><path d="M523.08 34.234h-69.941a2.28 2.28 0 1 1 0-4.562h69.941a2.28 2.28 0 1 1 0 4.562z"/><use xlink:href="#D" x="93.355" y="-365.196"/><path d="M483.457 52.261h-30.318a2.28 2.28 0 1 1 0-4.562h30.318a2.28 2.28 0 1 1 0 4.562z"/></g><circle cx="568.562" cy="238.725" r="21.506" transform="matrix(.527931 -.849288 .849288 .527931 -82.08946 439.49802)" class="D"/><path d="M903.592 587.861H608.121a.92.92 0 0 1-.919-.919.92.92 0 0 1 .919-.919h295.471a.92.92 0 0 1 .796 1.379.92.92 0 0 1-.796.46z" fill="#ccc"/><path d="M134.328 250.43c-18.374-48.573 6.107-102.844 54.68-121.218s102.844 6.107 121.218 54.68l-1.871.708c-17.983-47.54-71.099-71.5-118.639-53.517s-71.5 71.099-53.517 118.639z" class="D"/><path d="M216.585 157.292h-31.804a4.5 4.5 0 0 1-3.535-1.703 4.41 4.41 0 0 1-.863-3.746c3.011-13.288 2.84-27.099-.497-40.309a4.46 4.46 0 0 1 2.058-4.938c11.521-6.706 23.823-6.501 36.565.61 1.222.667 2.069 1.86 2.293 3.234a141.56 141.56 0 0 1 .243 42.979 4.49 4.49 0 0 1-4.46 3.872z" class="C"/><g class="B"><use xlink:href="#D" x="-169" y="-282"/><use xlink:href="#B" x="-667.453" y="-202.735"/></g><path d="M111.942 249.17H10.277A10.29 10.29 0 0 1 0 238.893v-62.616A10.29 10.29 0 0 1 10.277 166h101.665a10.29 10.29 0 0 1 10.277 10.277v62.616a10.29 10.29 0 0 1-10.277 10.277z" class="G"/><path d="M71.549 241.104H17.423a9.64 9.64 0 0 1-9.625-9.625v-47.79a9.64 9.64 0 0 1 9.625-9.625h87.373a9.64 9.64 0 0 1 9.625 9.625v14.543c-.027 23.666-19.205 42.844-42.872 42.871z" class="B"/><path d="M96.08 200.234H26.139a2.281 2.281 0 1 1 0-4.562H96.08a2.281 2.281 0 1 1 0 4.562zm-59 9.013H26.139a2.281 2.281 0 1 1 0-4.562H37.08a2.281 2.281 0 1 1 0 4.562zm19.377 9.014H26.139a2.281 2.281 0 1 1 0-4.562h30.318a2.281 2.281 0 1 1 0 4.562z" class="C"/><circle cx="281.562" cy="402.725" r="21.506" transform="matrix(.527931 -.849288 .849288 .527931 -356.85653 273.17189)" class="D"/><path d="M325.585 217.292h-31.804a4.5 4.5 0 0 1-3.535-1.703 4.41 4.41 0 0 1-.863-3.746 86.52 86.52 0 0 0-.479-40.24 4.49 4.49 0 0 1 2.124-4.978c15.45-8.844 27.683-8.6 37.4.747a4.44 4.44 0 0 1 1.279 2.476c2.361 14.42 2.475 29.118.338 43.572a4.49 4.49 0 0 1-4.46 3.872z" fill="#ff6584"/><g class="B"><use xlink:href="#D" x="-58" y="-221"/><use xlink:href="#B" x="-556.453" y="-141.735"/></g><defs ><path id="B" d="M882.555 338.192h-24.318a2.28 2.28 0 1 1 0-4.562h24.318a2.28 2.28 0 1 1 0 4.562z"/><path id="C" d="M737.53 586.949l-42.768-.002v-.541a16.65 16.65 0 0 1 16.646-16.646h.001l7.812-5.927 14.576 5.928h3.733z"/><path id="D" d="M370.725 408.443h-10.941a2.28 2.28 0 1 1 0-4.562h10.941a2.28 2.28 0 1 1 0 4.562z"/></defs></svg>