<svg width="400" height="400" viewBox="0 0 400 400" fill="none" xmlns="http://www.w3.org/2000/svg">
<rect width="400" height="400" fill="#F8FAFC"/>
<path d="M325.273 164.641C303.978 148.73 270.626 133.683 233.768 123.357C200.209 113.956 167.476 109.417 141.593 110.576L141.458 107.568C167.65 106.395 200.722 110.972 234.582 120.458C271.783 130.879 305.497 146.104 327.077 162.229L325.273 164.641Z" fill="#991B1B"/>
<path d="M323.062 176.896C323.081 190.993 320.124 204.935 314.385 217.812C313.906 218.89 313.407 219.958 312.887 221.016C302.905 241.452 286.288 257.904 265.749 267.689C245.209 277.474 221.959 280.015 199.789 274.896C177.619 269.778 157.839 257.302 143.675 239.505C129.51 221.707 121.797 199.638 121.794 176.896C121.794 174.569 121.873 172.259 122.032 169.967C122.107 168.802 122.205 167.643 122.324 166.492C124.993 140.856 137.406 117.222 157.002 100.467C176.598 83.7127 201.882 75.1157 227.635 76.4505C253.388 77.7853 277.647 88.9501 295.403 107.641C313.16 126.332 323.061 151.122 323.062 176.896H323.062Z" fill="#FEE2E2"/>
<path opacity="0.1" d="M314.385 217.812C313.906 218.89 313.407 219.958 312.887 221.016C309.947 221.336 306.851 221.567 303.601 221.712C300.911 221.832 298.142 221.893 295.312 221.893C270.6 221.893 240.858 217.333 210.475 208.823C176.615 199.337 145.982 186.069 124.216 171.461C123.475 170.964 122.747 170.466 122.032 169.967C122.107 168.802 122.204 167.643 122.324 166.492C123.478 167.314 124.668 168.137 125.894 168.961C147.404 183.395 177.73 196.522 211.289 205.923C241.407 214.361 270.868 218.881 295.297 218.881C298.09 218.881 300.813 218.822 303.466 218.704C307.328 218.529 310.968 218.232 314.385 217.812Z" fill="#EF4444"/>
<path d="M295.313 219.484C270.601 219.485 240.858 214.925 210.476 206.414C176.616 196.929 145.982 183.66 124.216 169.052C101.995 154.139 91.5757 139.445 94.8762 127.676C98.1765 115.906 114.72 108.765 141.458 107.568L141.593 110.576C129.106 111.135 118.93 112.99 111.348 116.089C103.783 119.181 99.2176 123.352 97.7773 128.489C96.337 133.624 98.0683 139.56 102.923 146.131C107.79 152.717 115.519 159.588 125.895 166.552C147.403 180.986 177.73 194.113 211.289 203.514C241.408 211.952 270.867 216.473 295.298 216.473C298.09 216.473 300.812 216.414 303.465 216.295C315.951 215.736 326.127 213.881 333.71 210.782C341.274 207.691 345.84 203.519 347.28 198.383C349.866 189.161 342.051 177.178 325.273 164.641L327.077 162.229C335.711 168.68 342.102 175.04 346.073 181.129C350.33 187.658 351.712 193.737 350.182 199.196C346.881 210.965 330.338 218.106 303.6 219.304C300.909 219.424 298.142 219.484 295.313 219.484Z" fill="#991B1B"/>
<path d="M225.09 58.1758C225.727 58.1758 226.243 57.6597 226.243 57.0232C226.243 56.3866 225.727 55.8706 225.09 55.8706C224.453 55.8706 223.937 56.3866 223.937 57.0232C223.937 57.6597 224.453 58.1758 225.09 58.1758Z" fill="#FEE2E2"/>
<path d="M72.103 108.189C73.1986 108.189 74.0869 107.301 74.0869 106.206C74.0869 105.111 73.1986 104.223 72.103 104.223C71.0073 104.223 70.1191 105.111 70.1191 106.206C70.1191 107.301 71.0073 108.189 72.103 108.189Z" fill="#991B1B"/>
<path d="M67.8746 187.729C70.0391 187.729 71.7937 185.975 71.7937 183.812C71.7937 181.648 70.0391 179.895 67.8746 179.895C65.7102 179.895 63.9556 181.648 63.9556 183.812C63.9556 185.975 65.7102 187.729 67.8746 187.729Z" fill="#991B1B"/>
<path d="M303.121 66.549C304.564 66.549 305.733 65.3802 305.733 63.9384C305.733 62.4967 304.564 61.3279 303.121 61.3279C301.679 61.3279 300.509 62.4967 300.509 63.9384C300.509 65.3802 301.679 66.549 303.121 66.549Z" fill="#991B1B"/>
<path d="M395.759 176.525C398.101 176.525 400 174.627 400 172.286C400 169.945 398.101 168.048 395.759 168.048C393.417 168.048 391.519 169.945 391.519 172.286C391.519 174.627 393.417 176.525 395.759 176.525Z" fill="#991B1B"/>
<path d="M362.598 106.408C363.603 106.408 364.418 105.594 364.418 104.59C364.418 103.585 363.603 102.771 362.598 102.771C361.593 102.771 360.779 103.585 360.779 104.59C360.779 105.594 361.593 106.408 362.598 106.408Z" fill="#991B1B"/>
<path d="M141.678 84.0638C143.245 84.0638 144.516 82.7937 144.516 81.2269C144.516 79.66 143.245 78.3899 141.678 78.3899C140.11 78.3899 138.839 79.66 138.839 81.2269C138.839 82.7937 140.11 84.0638 141.678 84.0638Z" fill="#991B1B"/>
<path d="M356.23 165.51C357.235 165.51 358.05 164.696 358.05 163.692C358.05 162.687 357.235 161.873 356.23 161.873C355.225 161.873 354.411 162.687 354.411 163.692C354.411 164.696 355.225 165.51 356.23 165.51Z" fill="#991B1B"/>
<path d="M2.2646 172.646C3.5153 172.646 4.5292 171.633 4.5292 170.383C4.5292 169.133 3.5153 168.119 2.2646 168.119C1.0139 168.119 0 169.133 0 170.383C0 171.633 1.0139 172.646 2.2646 172.646Z" fill="#991B1B"/>
<path d="M36.6682 135.585C38.0227 135.585 39.1207 134.488 39.1207 133.134C39.1207 131.781 38.0227 130.683 36.6682 130.683C35.3138 130.683 34.2158 131.781 34.2158 133.134C34.2158 134.488 35.3138 135.585 36.6682 135.585Z" fill="#991B1B"/>
<path d="M194.135 23.8368H189.296V19H186.7V23.8368H181.858V26.4343H186.7V31.2711H189.296V26.4343H194.135V23.8368Z" fill="#991B1B"/>
<path d="M306.398 285.567H303.359V282.531H301.729V285.567H298.69V287.197H301.729V290.234H303.359V287.197H306.398V285.567Z" fill="#991B1B"/>
<path d="M376.539 270.021H374.267V267.751H373.047V270.021H370.775V271.24H373.047V273.511H374.267V271.24H376.539V270.021Z" fill="#991B1B"/>
<path opacity="0.1" d="M158.975 168.444C163.646 168.444 167.432 164.66 167.432 159.992C167.432 155.324 163.646 151.54 158.975 151.54C154.305 151.54 150.519 155.324 150.519 159.992C150.519 164.66 154.305 168.444 158.975 168.444Z" fill="#EF4444"/>
<path opacity="0.1" d="M252.382 253.349C257.052 253.349 260.838 249.565 260.838 244.897C260.838 240.229 257.052 236.445 252.382 236.445C247.711 236.445 243.925 240.229 243.925 244.897C243.925 249.565 247.711 253.349 252.382 253.349Z" fill="#EF4444"/>
<path opacity="0.1" d="M223.937 181.507C228.608 181.507 232.394 177.722 232.394 173.055C232.394 168.387 228.608 164.602 223.937 164.602C219.267 164.602 215.48 168.387 215.48 173.055C215.48 177.722 219.267 181.507 223.937 181.507Z" fill="#EF4444"/>
<path opacity="0.1" d="M163.204 227.993C167.874 227.993 171.66 224.209 171.66 219.541C171.66 214.873 167.874 211.089 163.204 211.089C158.533 211.089 154.747 214.873 154.747 219.541C154.747 224.209 158.533 227.993 163.204 227.993Z" fill="#EF4444"/>
<path opacity="0.1" d="M269.295 136.173C273.965 136.173 277.752 132.388 277.752 127.721C277.752 123.053 273.965 119.268 269.295 119.268C264.625 119.268 260.838 123.053 260.838 127.721C260.838 132.388 264.625 136.173 269.295 136.173Z" fill="#EF4444"/>
<path opacity="0.1" d="M297.355 193.416C302.026 193.416 305.812 189.632 305.812 184.964C305.812 180.296 302.026 176.512 297.355 176.512C292.685 176.512 288.899 180.296 288.899 184.964C288.899 189.632 292.685 193.416 297.355 193.416Z" fill="#EF4444"/>
<path d="M269.295 103.517C275.451 103.517 280.442 98.5286 280.442 92.3754C280.442 86.2222 275.451 81.234 269.295 81.234C263.138 81.234 258.147 86.2222 258.147 92.3754C258.147 98.5286 263.138 103.517 269.295 103.517Z" fill="white"/>
<path d="M269.295 76.2397C265.115 76.2398 261.107 77.8993 258.151 80.8533C255.196 83.8073 253.535 87.8138 253.535 91.9913C253.535 100.691 269.295 129.257 269.295 129.257C269.295 129.257 285.055 100.691 285.055 91.9913C285.055 87.8138 283.395 83.8073 280.439 80.8533C277.483 77.8993 273.475 76.2398 269.295 76.2397ZM269.295 99.6751C267.851 99.6751 266.439 99.247 265.238 98.4449C264.036 97.6428 263.1 96.5028 262.548 95.1689C261.995 93.8351 261.85 92.3674 262.132 90.9514C262.414 89.5355 263.109 88.2348 264.131 87.2139C265.152 86.1931 266.454 85.4979 267.87 85.2162C269.287 84.9346 270.756 85.0791 272.09 85.6316C273.425 86.1841 274.565 87.1197 275.368 88.3201C276.17 89.5205 276.599 90.9318 276.599 92.3755C276.599 93.3341 276.41 94.2833 276.043 95.169C275.676 96.0546 275.138 96.8593 274.459 97.5371C273.781 98.2149 272.976 98.7526 272.09 99.1194C271.204 99.4863 270.254 99.6751 269.295 99.6751Z" fill="#F87171"/>
<path d="M158.931 133.737C165.088 133.737 170.079 128.749 170.079 122.596C170.079 116.443 165.088 111.455 158.931 111.455C152.775 111.455 147.784 116.443 147.784 122.596C147.784 128.749 152.775 133.737 158.931 133.737Z" fill="white"/>
<path d="M158.931 106.46C154.752 106.46 150.743 108.12 147.787 111.074C144.832 114.028 143.171 118.034 143.171 122.212C143.171 130.911 158.931 159.478 158.931 159.478C158.931 159.478 174.691 130.911 174.691 122.212C174.691 118.034 173.031 114.028 170.075 111.074C167.12 108.12 163.111 106.46 158.931 106.46V106.46ZM158.931 129.896C157.487 129.896 156.075 129.467 154.874 128.665C153.673 127.863 152.737 126.723 152.184 125.389C151.631 124.056 151.486 122.588 151.768 121.172C152.05 119.756 152.746 118.455 153.767 117.434C154.788 116.414 156.09 115.718 157.507 115.437C158.923 115.155 160.392 115.3 161.726 115.852C163.061 116.405 164.201 117.34 165.004 118.541C165.806 119.741 166.235 121.152 166.235 122.596C166.235 123.555 166.046 124.504 165.679 125.389C165.312 126.275 164.774 127.08 164.096 127.758C163.417 128.435 162.612 128.973 161.726 129.34C160.84 129.707 159.89 129.896 158.931 129.896V129.896Z" fill="#991B1B"/>
<path d="M298.776 159.425C304.932 159.425 309.923 154.437 309.923 148.283C309.923 142.13 304.932 137.142 298.776 137.142C292.619 137.142 287.628 142.13 287.628 148.283C287.628 154.437 292.619 159.425 298.776 159.425Z" fill="white"/>
<path d="M298.776 132.148C294.596 132.148 290.587 133.807 287.632 136.761C284.676 139.715 283.016 143.722 283.016 147.899C283.016 156.599 298.776 185.165 298.776 185.165C298.776 185.165 314.536 156.599 314.536 147.899C314.536 143.722 312.875 139.715 309.92 136.761C306.964 133.807 302.955 132.148 298.776 132.148V132.148ZM298.776 155.583C297.331 155.583 295.919 155.155 294.718 154.353C293.517 153.551 292.581 152.411 292.028 151.077C291.475 149.743 291.331 148.275 291.612 146.859C291.894 145.443 292.59 144.143 293.611 143.122C294.633 142.101 295.934 141.406 297.351 141.124C298.768 140.843 300.236 140.987 301.571 141.54C302.905 142.092 304.046 143.028 304.848 144.228C305.651 145.428 306.079 146.84 306.079 148.283C306.079 149.242 305.89 150.191 305.523 151.077C305.156 151.963 304.618 152.767 303.94 153.445C303.262 154.123 302.457 154.661 301.57 155.027C300.684 155.394 299.735 155.583 298.776 155.583Z" fill="#991B1B"/>
<path d="M109.797 215.333C115.954 215.333 120.945 210.345 120.945 204.192C120.945 198.038 115.954 193.05 109.797 193.05C103.641 193.05 98.6499 198.038 98.6499 204.192C98.6499 210.345 103.641 215.333 109.797 215.333Z" fill="white"/>
<path d="M109.797 188.056C105.617 188.056 101.609 189.715 98.6531 192.669C95.6975 195.623 94.0371 199.63 94.0371 203.807C94.0371 212.507 109.797 241.073 109.797 241.073C109.797 241.073 125.557 212.507 125.557 203.807C125.557 199.63 123.897 195.623 120.941 192.669C117.985 189.715 113.977 188.056 109.797 188.056ZM109.797 211.491C108.353 211.491 106.94 211.063 105.739 210.261C104.538 209.459 103.602 208.319 103.05 206.985C102.497 205.651 102.352 204.183 102.634 202.767C102.916 201.352 103.611 200.051 104.633 199.03C105.654 198.009 106.956 197.314 108.372 197.032C109.789 196.751 111.257 196.895 112.592 197.448C113.926 198 115.067 198.936 115.87 200.136C116.672 201.337 117.1 202.748 117.1 204.192C117.1 205.15 116.912 206.099 116.545 206.985C116.177 207.871 115.64 208.675 114.961 209.353C114.283 210.031 113.478 210.569 112.592 210.935C111.706 211.302 110.756 211.491 109.797 211.491V211.491Z" fill="#F87171"/>
<path d="M366.384 293.652C368.548 291.841 365.624 284.789 359.853 277.899C354.081 271.01 347.649 266.893 345.485 268.704C343.321 270.515 346.245 277.568 352.017 284.457C357.788 291.346 364.22 295.463 366.384 293.652Z" fill="#DC2626"/>
<path d="M321.309 308.066C339.288 308.066 353.864 293.499 353.864 275.528C353.864 257.558 339.288 242.99 321.309 242.99C303.329 242.99 288.753 257.558 288.753 275.528C288.753 293.499 303.329 308.066 321.309 308.066Z" fill="#DC2626"/>
<path d="M335.088 301.064H325.198V318.775H335.088V301.064Z" fill="#DC2626"/>
<path d="M315.308 301.064H305.417V318.775H315.308V301.064Z" fill="#DC2626"/>
<path d="M326.846 322.07C331.398 322.07 335.088 320.687 335.088 318.981C335.088 317.275 331.398 315.892 326.846 315.892C322.294 315.892 318.604 317.275 318.604 318.981C318.604 320.687 322.294 322.07 326.846 322.07Z" fill="#DC2626"/>
<path d="M307.066 321.658C311.617 321.658 315.307 320.275 315.307 318.569C315.307 316.863 311.617 315.48 307.066 315.48C302.514 315.48 298.824 316.863 298.824 318.569C298.824 320.275 302.514 321.658 307.066 321.658Z" fill="#DC2626"/>
<path d="M299.348 267.402C300.557 264.854 294.953 259.666 286.83 255.816C278.707 251.965 271.142 250.91 269.933 253.459C268.724 256.007 274.328 261.195 282.45 265.045C290.573 268.895 298.138 269.951 299.348 267.402Z" fill="#DC2626"/>
<path d="M316.441 279.511C322.436 279.511 327.295 274.654 327.295 268.663C327.295 262.671 322.436 257.814 316.441 257.814C310.447 257.814 305.587 262.671 305.587 268.663C305.587 274.654 310.447 279.511 316.441 279.511Z" fill="white"/>
<path d="M311.98 268.39C313.978 268.39 315.598 266.771 315.598 264.774C315.598 262.777 313.978 261.158 311.98 261.158C309.982 261.158 308.362 262.777 308.362 264.774C308.362 266.771 309.982 268.39 311.98 268.39Z" fill="#991B1B"/>
<path d="M323.25 291.264C323.42 292.198 323.405 293.157 323.204 294.086C323.004 295.014 322.622 295.894 322.081 296.675C321.541 297.456 320.851 298.123 320.053 298.637C319.254 299.152 318.362 299.504 317.427 299.675C316.492 299.845 315.533 299.829 314.604 299.629C313.675 299.428 312.795 299.047 312.014 298.506C311.232 297.966 310.565 297.277 310.05 296.479C309.535 295.681 309.182 294.789 309.012 293.855V293.855L309.01 293.841C308.298 289.91 311.338 288.52 315.271 287.808C319.203 287.097 322.538 287.334 323.25 291.264Z" fill="white"/>
<path d="M254.262 206.404C250.914 203.58 246.816 201.79 242.469 201.251C238.121 200.712 233.71 201.448 229.773 203.369C225.836 205.29 222.542 208.313 220.293 212.071C218.044 215.829 216.935 220.159 217.104 224.534C217.272 228.91 218.709 233.142 221.239 236.717C223.77 240.291 227.286 243.053 231.359 244.666C235.432 246.28 239.886 246.676 244.18 245.805C248.474 244.935 252.422 242.836 255.544 239.764L283.266 263.143C283.687 263.499 284.233 263.673 284.784 263.626C285.334 263.58 285.843 263.317 286.199 262.896C286.556 262.475 286.73 261.929 286.684 261.379C286.638 260.83 286.376 260.32 285.955 259.964L285.952 259.961L258.23 236.582C261.45 231.962 262.828 226.307 262.094 220.725C261.361 215.143 258.567 210.035 254.262 206.404V206.404ZM252.475 234.331C250.315 236.889 247.445 238.749 244.228 239.677C241.01 240.605 237.589 240.558 234.398 239.543C231.207 238.528 228.389 236.589 226.3 233.973C224.211 231.357 222.945 228.181 222.662 224.846C222.379 221.51 223.093 218.166 224.711 215.236C226.33 212.306 228.782 209.922 231.757 208.384C234.732 206.847 238.096 206.226 241.424 206.599C244.752 206.973 247.894 208.324 250.454 210.483V210.483C253.886 213.377 256.027 217.516 256.406 221.988C256.785 226.461 255.371 230.9 252.475 234.331V234.331Z" fill="#991B1B"/>
<path opacity="0.3" d="M228.615 236.351C225.366 233.611 223.268 229.751 222.735 225.536C222.203 221.322 223.276 217.061 225.741 213.6C225.418 213.926 225.105 214.268 224.802 214.624C223.368 216.323 222.283 218.287 221.609 220.405C220.934 222.522 220.684 224.752 220.871 226.967C221.059 229.181 221.681 231.337 222.703 233.311C223.724 235.285 225.124 237.039 226.824 238.472C228.523 239.905 230.489 240.99 232.607 241.664C234.726 242.338 236.957 242.589 239.173 242.401C241.388 242.213 243.545 241.591 245.521 240.571C247.496 239.55 249.25 238.15 250.684 236.452C250.986 236.095 251.27 235.729 251.536 235.354C248.538 238.365 244.516 240.139 240.27 240.324C236.024 240.509 231.863 239.09 228.615 236.351V236.351Z" fill="#EF4444"/>
<path d="M111.863 252.781C115.073 244.388 115.537 236.768 112.901 235.761C110.265 234.754 105.526 240.741 102.316 249.134C99.1068 257.527 98.6419 265.147 101.278 266.154C103.914 267.161 108.653 261.174 111.863 252.781Z" fill="#DC2626"/>
<path d="M76.9991 308.066C94.9788 308.066 109.554 293.499 109.554 275.528C109.554 257.558 94.9788 242.99 76.9991 242.99C59.0193 242.99 44.4438 257.558 44.4438 275.528C44.4438 293.499 59.0193 308.066 76.9991 308.066Z" fill="#DC2626"/>
<path d="M72.0538 301.064H62.1636V318.775H72.0538V301.064Z" fill="#DC2626"/>
<path d="M91.834 301.064H81.9438V318.775H91.834V301.064Z" fill="#DC2626"/>
<path d="M70.4054 322.07C74.9573 322.07 78.6473 320.687 78.6473 318.981C78.6473 317.275 74.9573 315.892 70.4054 315.892C65.8536 315.892 62.1636 317.275 62.1636 318.981C62.1636 320.687 65.8536 322.07 70.4054 322.07Z" fill="#DC2626"/>
<path d="M90.1857 321.658C94.7375 321.658 98.4275 320.275 98.4275 318.569C98.4275 316.863 94.7375 315.48 90.1857 315.48C85.6338 315.48 81.9438 316.863 81.9438 318.569C81.9438 320.275 85.6338 321.658 90.1857 321.658Z" fill="#DC2626"/>
<path d="M77.8232 278.411C83.9682 278.411 88.9497 273.432 88.9497 267.291C88.9497 261.149 83.9682 256.17 77.8232 256.17C71.6783 256.17 66.6968 261.149 66.6968 267.291C66.6968 273.432 71.6783 278.411 77.8232 278.411Z" fill="white"/>
<path d="M77.8231 270.998C79.8714 270.998 81.5319 269.338 81.5319 267.291C81.5319 265.244 79.8714 263.584 77.8231 263.584C75.7748 263.584 74.1143 265.244 74.1143 267.291C74.1143 269.338 75.7748 270.998 77.8231 270.998Z" fill="#991B1B"/>
<path d="M55.038 267.402C56.2474 264.854 50.6431 259.666 42.5205 255.816C34.3979 251.965 26.8328 250.91 25.6234 253.459C24.414 256.007 30.0183 261.195 38.1409 265.045C46.2635 268.895 53.8286 269.951 55.038 267.402Z" fill="#DC2626"/>
<path d="M61.0078 287.267C61.0078 290.451 69.212 296.74 78.3157 296.74C87.4194 296.74 95.955 287.774 95.955 284.59C95.955 281.405 87.4193 285.207 78.3157 285.207C69.212 285.207 61.0078 284.082 61.0078 287.267Z" fill="white"/>
<path d="M182.615 366.996C200.595 366.996 215.17 352.429 215.17 334.458C215.17 316.488 200.595 301.92 182.615 301.92C164.635 301.92 150.06 316.488 150.06 334.458C150.06 352.429 164.635 366.996 182.615 366.996Z" fill="#DC2626"/>
<path d="M177.669 359.994H167.779V377.705H177.669V359.994Z" fill="#DC2626"/>
<path d="M197.45 359.994H187.56V377.705H197.45V359.994Z" fill="#DC2626"/>
<path d="M176.021 381C180.573 381 184.263 379.617 184.263 377.911C184.263 376.205 180.573 374.822 176.021 374.822C171.469 374.822 167.779 376.205 167.779 377.911C167.779 379.617 171.469 381 176.021 381Z" fill="#DC2626"/>
<path d="M195.801 380.588C200.353 380.588 204.043 379.205 204.043 377.499C204.043 375.793 200.353 374.41 195.801 374.41C191.25 374.41 187.56 375.793 187.56 377.499C187.56 379.205 191.25 380.588 195.801 380.588Z" fill="#DC2626"/>
<path d="M182.745 328.82C182.745 328.82 185.107 318.435 180.62 318.907C176.133 319.379 169.993 319.615 168.34 319.615C166.687 319.615 157.24 318.435 155.823 324.572C154.406 330.709 152.517 338.262 156.532 342.982C156.532 342.982 157.949 363.753 163.38 365.169C168.812 366.585 183.218 368.237 188.413 361.393C189.934 359.356 190.996 357.015 191.526 354.53C192.056 352.044 192.041 349.474 191.483 346.995H189.121L182.745 328.82Z" fill="#F87171"/>
<path opacity="0.1" d="M158.894 344.634C158.894 344.634 162.908 346.523 171.174 345.342V348.883L158.894 347.939V344.634Z" fill="#EF4444"/>
<path d="M188.896 356.469L186.223 355.057L198.113 332.568C198.56 331.724 198.783 330.78 198.763 329.825C198.743 328.871 198.479 327.937 197.997 327.113C197.515 326.288 196.83 325.6 196.008 325.114C195.186 324.627 194.253 324.359 193.298 324.333L180.82 323.997L180.901 320.976L193.379 321.312C194.849 321.351 196.283 321.765 197.548 322.513C198.813 323.261 199.866 324.32 200.607 325.588C201.349 326.856 201.755 328.292 201.786 329.761C201.817 331.23 201.473 332.682 200.787 333.981L188.896 356.469Z" fill="#F87171"/>
<path d="M160.159 356.469L148.268 333.981C147.582 332.682 147.238 331.23 147.269 329.761C147.3 328.292 147.706 326.856 148.448 325.588C149.189 324.32 150.242 323.261 151.507 322.513C152.772 321.765 154.206 321.351 155.675 321.312L168.154 320.976L168.235 323.997L155.757 324.333C154.802 324.359 153.869 324.627 153.047 325.114C152.225 325.6 151.54 326.288 151.058 327.113C150.576 327.937 150.312 328.871 150.292 329.825C150.272 330.78 150.495 331.724 150.942 332.568L162.832 355.057L160.159 356.469Z" fill="#F87171"/>
<path d="M224.359 342.807C225.823 340.041 219.862 334.019 211.045 329.358C202.228 324.696 193.894 323.16 192.429 325.926C190.965 328.693 196.926 334.714 205.743 339.376C214.56 344.037 222.894 345.574 224.359 342.807Z" fill="#DC2626"/>
</svg>
