<svg width="400" height="400" viewBox="0 0 400 400" fill="none" xmlns="http://www.w3.org/2000/svg">
<g clip-path="url(#clip0_943:17328)">
<rect x="114" y="106" width="151" height="230" fill="#6B7280"/>
<path opacity="0.4" d="M263.942 241.322C278.794 241.322 290.833 228.98 290.833 213.756C290.833 198.531 278.794 186.189 263.942 186.189C249.09 186.189 237.051 198.531 237.051 213.756C237.051 228.98 249.09 241.322 263.942 241.322Z" fill="#F87171"/>
<path d="M264.556 251.899H114.599V293.562H264.556V251.899Z" fill="#FECACA"/>
<path d="M264.731 335.944H114.424V106.078H264.731V335.944ZM115.124 335.225H264.03V106.796H115.124V335.225Z" fill="#FECACA"/>
<path d="M264.556 111.531H114.949V112.249H264.556V111.531Z" fill="#FECACA"/>
<path d="M118.803 110.388C119.577 110.388 120.205 109.745 120.205 108.951C120.205 108.158 119.577 107.515 118.803 107.515C118.029 107.515 117.402 108.158 117.402 108.951C117.402 109.745 118.029 110.388 118.803 110.388Z" fill="#F87171"/>
<path d="M122.657 110.388C123.431 110.388 124.059 109.745 124.059 108.951C124.059 108.158 123.431 107.515 122.657 107.515C121.883 107.515 121.256 108.158 121.256 108.951C121.256 109.745 121.883 110.388 122.657 110.388Z" fill="#F87171"/>
<path d="M126.511 110.388C127.285 110.388 127.913 109.745 127.913 108.951C127.913 108.158 127.285 107.515 126.511 107.515C125.737 107.515 125.11 108.158 125.11 108.951C125.11 109.745 125.737 110.388 126.511 110.388Z" fill="#F87171"/>
<path d="M126.511 116.494H120.205V120.085H126.511V116.494Z" fill="#F87171"/>
<path d="M151.037 144.868H120.205V148.459H151.037V144.868Z" fill="#F87171"/>
<path d="M229.869 120.085H260.702V116.494H229.869V120.085Z" fill="#FEE2E2"/>
<path d="M172.059 150.974H120.205V153.129H172.059V150.974Z" fill="#FEE2E2"/>
<path d="M169.256 155.643H120.205V157.798H169.256V155.643Z" fill="#FEE2E2"/>
<path d="M155.942 160.312H120.205V162.467H155.942V160.312Z" fill="#FEE2E2"/>
<path d="M152.439 224.243H132.117V226.398H152.439V224.243Z" fill="#FEE2E2"/>
<path d="M151.34 228.913H132.117V231.068H151.34V228.913Z" fill="#FEE2E2"/>
<path d="M146.122 233.582H132.117V235.737H146.122V233.582Z" fill="#FEE2E2"/>
<path d="M199.738 224.243H179.417V226.398H199.738V224.243Z" fill="#FEE2E2"/>
<path d="M198.639 228.913H179.417V231.068H198.639V228.913Z" fill="#FEE2E2"/>
<path d="M193.422 233.582H179.417V235.737H193.422V233.582Z" fill="#FEE2E2"/>
<path d="M248.789 224.243H228.468V226.398H248.789V224.243Z" fill="#FEE2E2"/>
<path d="M247.691 228.913H228.468V231.068H247.691V228.913Z" fill="#FEE2E2"/>
<path d="M242.473 233.582H228.468V235.737H242.473V233.582Z" fill="#FEE2E2"/>
<path d="M194.482 305.774H163.65V309.365H194.482V305.774Z" fill="#F87171"/>
<path d="M215.504 311.88H163.65V314.035H215.504V311.88Z" fill="#FEE2E2"/>
<path d="M212.702 316.549H163.65V318.704H212.702V316.549Z" fill="#FEE2E2"/>
<path d="M199.388 321.218H163.65V323.373H199.388V321.218Z" fill="#FEE2E2"/>
<path opacity="0.3" d="M251.417 183.658H129.49V184.376H251.417V183.658Z" fill="#F87171"/>
<path opacity="0.3" d="M155.241 196.228H129.314V219.933H155.241V196.228Z" fill="#F87171"/>
<path d="M202.541 196.228H176.614V219.933H202.541V196.228Z" fill="#FECACA"/>
<path d="M251.592 196.228H225.665V219.933H251.592V196.228Z" fill="#FECACA"/>
<path d="M186.199 219.834L185.857 219.827C185.865 219.439 186.078 210.287 189.593 207.757L189.789 208.044C186.417 210.472 186.201 219.74 186.199 219.834Z" fill="#F87171"/>
<path d="M191.401 207.642C192.346 207.642 193.112 206.857 193.112 205.889C193.112 204.92 192.346 204.135 191.401 204.135C190.457 204.135 189.691 204.92 189.691 205.889C189.691 206.857 190.457 207.642 191.401 207.642Z" fill="#F87171"/>
<path d="M191.056 212.079C190.166 212.365 189.219 212.407 188.308 212.201C188.886 211.446 189.665 210.879 190.55 210.568C191.435 210.257 192.389 210.214 193.297 210.446C192.702 211.182 191.929 211.745 191.056 212.079Z" fill="#F87171"/>
<path d="M235.251 219.834L234.909 219.827C234.916 219.439 235.13 210.287 238.644 207.757L238.841 208.044C235.468 210.472 235.252 219.74 235.251 219.834Z" fill="#F87171"/>
<path d="M240.453 207.642C241.397 207.642 242.163 206.857 242.163 205.889C242.163 204.92 241.397 204.135 240.453 204.135C239.508 204.135 238.742 204.92 238.742 205.889C238.742 206.857 239.508 207.642 240.453 207.642Z" fill="#F87171"/>
<path d="M240.107 212.079C239.217 212.365 238.27 212.407 237.359 212.201C237.937 211.446 238.716 210.879 239.601 210.568C240.486 210.257 241.441 210.214 242.349 210.446C241.754 211.182 240.981 211.745 240.107 212.079V212.079Z" fill="#F87171"/>
<path d="M151.037 265.188H120.205V268.78H151.037V265.188Z" fill="#F87171"/>
<path d="M172.059 271.294H120.205V273.449H172.059V271.294Z" fill="#FEE2E2"/>
<path d="M169.256 275.963H120.205V278.118H169.256V275.963Z" fill="#FEE2E2"/>
<path d="M155.942 280.632H120.205V282.787H155.942V280.632Z" fill="#FEE2E2"/>
<path opacity="0.4" d="M234.337 281.368C240.384 281.368 245.285 276.343 245.285 270.145C245.285 263.946 240.384 258.921 234.337 258.921C228.291 258.921 223.389 263.946 223.389 270.145C223.389 276.343 228.291 281.368 234.337 281.368Z" fill="#F87171"/>
<path opacity="0.4" d="M214.075 283.378C218.317 283.378 221.755 279.853 221.755 275.505C221.755 271.157 218.317 267.632 214.075 267.632C209.833 267.632 206.395 271.157 206.395 275.505C206.395 279.853 209.833 283.378 214.075 283.378Z" fill="#F87171"/>
<path d="M78.6864 323.553C93.973 323.553 106.365 310.849 106.365 295.178C106.365 279.508 93.973 266.804 78.6864 266.804C63.3997 266.804 51.0074 279.508 51.0074 295.178C51.0074 310.849 63.3997 323.553 78.6864 323.553Z" fill="#DC2626"/>
<path d="M74.4819 317.447H66.0732V332.891H74.4819V317.447Z" fill="#DC2626"/>
<path d="M91.2996 317.447H82.8908V332.891H91.2996V317.447Z" fill="#DC2626"/>
<path d="M73.0805 335.764C76.9505 335.764 80.0878 334.558 80.0878 333.07C80.0878 331.583 76.9505 330.377 73.0805 330.377C69.2104 330.377 66.0732 331.583 66.0732 333.07C66.0732 334.558 69.2104 335.764 73.0805 335.764Z" fill="#DC2626"/>
<path d="M89.8981 335.405C93.7681 335.405 96.9054 334.199 96.9054 332.711C96.9054 331.224 93.7681 330.017 89.8981 330.017C86.0281 330.017 82.8908 331.224 82.8908 332.711C82.8908 334.199 86.0281 335.405 89.8981 335.405Z" fill="#DC2626"/>
<path d="M79.3871 297.693C84.6117 297.693 88.847 293.351 88.847 287.995C88.847 282.639 84.6117 278.298 79.3871 278.298C74.1626 278.298 69.9272 282.639 69.9272 287.995C69.9272 293.351 74.1626 297.693 79.3871 297.693Z" fill="white"/>
<path d="M79.5623 314.788C82.2713 314.788 84.4674 312.537 84.4674 309.76C84.4674 306.983 82.2713 304.732 79.5623 304.732C76.8533 304.732 74.6572 306.983 74.6572 309.76C74.6572 312.537 76.8533 314.788 79.5623 314.788Z" fill="white"/>
<path d="M79.3871 286.918C81.1286 286.918 82.5404 285.47 82.5404 283.685C82.5404 281.9 81.1286 280.453 79.3871 280.453C77.6456 280.453 76.2338 281.9 76.2338 283.685C76.2338 285.47 77.6456 286.918 79.3871 286.918Z" fill="#DC2626"/>
<path d="M103.57 265.659C106.791 258.553 107.638 251.953 105.462 250.916C103.286 249.879 98.9107 254.799 95.6898 261.905C92.4689 269.011 91.6218 275.611 93.7979 276.648C95.9739 277.684 100.349 272.764 103.57 265.659Z" fill="#DC2626"/>
<path d="M55.3015 284.94C57.4222 283.79 56.2426 277.243 52.6669 270.318C49.0911 263.393 44.4733 258.712 42.3525 259.863C40.2318 261.014 41.4114 267.56 44.9871 274.485C48.5629 281.41 53.1808 286.091 55.3015 284.94Z" fill="#DC2626"/>
<path d="M312.279 287.315C314.518 286.431 314.104 279.787 311.355 272.476C308.607 265.165 304.563 259.955 302.324 260.84C300.085 261.724 300.499 268.368 303.248 275.679C305.996 282.99 310.04 288.2 312.279 287.315Z" fill="#DC2626"/>
<path d="M332.944 323.805C348.23 323.805 360.623 311.101 360.623 295.431C360.623 279.76 348.23 267.057 332.944 267.057C317.657 267.057 305.265 279.76 305.265 295.431C305.265 311.101 317.657 323.805 332.944 323.805Z" fill="#DC2626"/>
<path d="M337.25 333.129L345.659 333.105L345.617 317.661L337.208 317.685L337.25 333.129Z" fill="#DC2626"/>
<path d="M320.434 333.179L328.842 333.155L328.8 317.711L320.391 317.735L320.434 333.179Z" fill="#DC2626"/>
<path d="M338.66 336C342.53 335.989 345.664 334.774 345.66 333.286C345.656 331.798 342.516 330.601 338.646 330.612C334.775 330.624 331.641 331.839 331.646 333.326C331.65 334.814 334.79 336.011 338.66 336Z" fill="#DC2626"/>
<path d="M321.842 335.689C325.712 335.678 328.846 334.463 328.842 332.975C328.838 331.487 325.697 330.29 321.827 330.302C317.957 330.313 314.823 331.528 314.827 333.015C314.831 334.503 317.972 335.7 321.842 335.689Z" fill="#DC2626"/>
<path d="M332.223 297.947C337.448 297.947 341.683 293.605 341.683 288.249C341.683 282.894 337.448 278.552 332.223 278.552C326.999 278.552 322.763 282.894 322.763 288.249C322.763 293.605 326.999 297.947 332.223 297.947Z" fill="white"/>
<path d="M332.223 291.482C333.965 291.482 335.376 290.035 335.376 288.249C335.376 286.464 333.965 285.017 332.223 285.017C330.482 285.017 329.07 286.464 329.07 288.249C329.07 290.035 330.482 291.482 332.223 291.482Z" fill="#DC2626"/>
<path d="M365.956 286.194C372.853 282.817 377.605 278.279 376.571 276.06C375.536 273.84 369.107 274.779 362.21 278.157C355.314 281.534 350.561 286.071 351.595 288.291C352.63 290.51 359.059 289.572 365.956 286.194Z" fill="#DC2626"/>
<path d="M346.567 305.628C346.575 308.405 339.615 313.908 331.875 313.931C324.134 313.953 316.856 306.155 316.848 303.378C316.841 300.601 324.107 303.896 331.847 303.874C339.587 303.852 346.56 302.851 346.567 305.628Z" fill="white"/>
<path opacity="0.4" d="M339.971 287.311C361.305 287.311 378.599 269.582 378.599 247.713C378.599 225.844 361.305 208.116 339.971 208.116C318.638 208.116 301.344 225.844 301.344 247.713C301.344 269.582 318.638 287.311 339.971 287.311Z" fill="#F87171"/>
<path d="M83.2063 254.808C98.4929 254.808 110.885 242.104 110.885 226.434C110.885 210.763 98.4929 198.06 83.2063 198.06C67.9196 198.06 55.5273 210.763 55.5273 226.434C55.5273 242.104 67.9196 254.808 83.2063 254.808Z" fill="#DC2626"/>
<path d="M75.1996 247.578L66.9253 246.042L64.2416 261.239L72.5159 262.775L75.1996 247.578Z" fill="#DC2626"/>
<path d="M91.7481 250.649L83.4738 249.113L80.7901 264.31L89.0644 265.846L91.7481 250.649Z" fill="#DC2626"/>
<path d="M91.7176 271.631C92.6555 270.496 91.0217 267.497 88.0685 264.933C85.1152 262.369 81.9608 261.211 81.0229 262.346C80.085 263.481 81.7187 266.48 84.672 269.044C87.6252 271.608 90.7797 272.766 91.7176 271.631Z" fill="#DC2626"/>
<path d="M75.5138 268.624C76.4517 267.489 74.818 264.49 71.8647 261.926C68.9114 259.362 65.757 258.204 64.8191 259.339C63.8812 260.474 65.515 263.473 68.4682 266.037C71.4215 268.601 74.5759 269.759 75.5138 268.624Z" fill="#DC2626"/>
<path d="M85.144 229.191C90.3686 229.191 94.6039 224.849 94.6039 219.493C94.6039 214.137 90.3686 209.796 85.144 209.796C79.9195 209.796 75.6841 214.137 75.6841 219.493C75.6841 224.849 79.9195 229.191 85.144 229.191Z" fill="white"/>
<path d="M89.032 219.25C90.7735 219.25 92.1853 217.802 92.1853 216.017C92.1853 214.232 90.7735 212.785 89.032 212.785C87.2904 212.785 85.8787 214.232 85.8787 216.017C85.8787 217.802 87.2904 219.25 89.032 219.25Z" fill="#DC2626"/>
<path d="M109.735 225.605C117.185 223.855 122.79 220.492 122.254 218.095C121.718 215.697 115.243 215.172 107.793 216.923C100.343 218.674 94.7383 222.036 95.2744 224.434C95.8105 226.831 102.285 227.356 109.735 225.605Z" fill="#DC2626"/>
<path d="M55.4019 234.868C62.852 233.117 68.4569 229.754 67.9208 227.357C67.3847 224.959 60.9106 224.435 53.4605 226.185C46.0104 227.936 40.4055 231.299 40.9416 233.696C41.4777 236.094 47.9518 236.618 55.4019 234.868Z" fill="#DC2626"/>
<path d="M75.6042 237.615C75.3062 239.303 75.6743 241.042 76.6274 242.451C77.5806 243.86 79.0406 244.823 80.6865 245.129C82.3324 245.434 84.0292 245.057 85.4037 244.08C86.7781 243.103 87.7177 241.606 88.0156 239.919C88.6361 236.405 85.9862 235.162 82.5589 234.526C79.1315 233.89 76.2246 234.102 75.6042 237.615Z" fill="white"/>
<path d="M143.272 197.431L118.437 189.799L111.796 212.505L136.631 220.138L143.272 197.431Z" fill="#FECACA"/>
<path d="M121.006 215.232L120.68 215.124C120.796 214.755 123.564 206.051 127.639 204.663L127.747 204.996C123.836 206.328 121.033 215.143 121.006 215.232Z" fill="#F87171"/>
<path d="M129.895 205.158C130.84 205.158 131.605 204.373 131.605 203.405C131.605 202.437 130.84 201.652 129.895 201.652C128.951 201.652 128.185 202.437 128.185 203.405C128.185 204.373 128.951 205.158 129.895 205.158Z" fill="#F87171"/>
<path d="M127.83 209.233C126.897 209.246 125.978 209.007 125.164 208.541C125.929 207.988 126.834 207.674 127.769 207.637C128.704 207.599 129.63 207.84 130.434 208.329C129.658 208.859 128.76 209.171 127.83 209.233V209.233Z" fill="#F87171"/>
<path d="M244.343 165.002C244.347 167.374 243.816 169.714 242.791 171.84C242.675 172.085 242.553 172.322 242.423 172.559H216.086C215.956 172.322 215.834 172.085 215.718 171.84C214.713 169.751 214.181 167.455 214.162 165.124C214.144 162.794 214.639 160.49 215.611 158.383C216.583 156.277 218.006 154.422 219.776 152.959C221.545 151.496 223.613 150.461 225.827 149.932C228.041 149.403 230.343 149.394 232.561 149.905C234.779 150.416 236.856 151.433 238.636 152.883C240.416 154.332 241.854 156.174 242.842 158.273C243.831 160.371 244.344 162.672 244.343 165.002V165.002Z" fill="#DC2626"/>
<path d="M229.637 166.371C232.485 166.371 234.794 164.004 234.794 161.084C234.794 158.165 232.485 155.798 229.637 155.798C226.789 155.798 224.48 158.165 224.48 161.084C224.48 164.004 226.789 166.371 229.637 166.371Z" fill="white"/>
<path d="M229.637 162.847C230.586 162.847 231.356 162.058 231.356 161.084C231.356 160.111 230.586 159.322 229.637 159.322C228.687 159.322 227.918 160.111 227.918 161.084C227.918 162.058 228.687 162.847 229.637 162.847Z" fill="#DC2626"/>
<path d="M250.891 133.41H207.446C206.981 133.41 206.536 133.564 206.207 133.838C205.879 134.112 205.694 134.483 205.694 134.871V171.098C205.694 171.485 205.879 171.857 206.207 172.131C206.536 172.405 206.981 172.559 207.446 172.559H250.891C251.356 172.559 251.802 172.405 252.13 172.131C252.459 171.857 252.643 171.485 252.643 171.098V134.871C252.643 134.483 252.459 134.112 252.13 133.838C251.802 133.564 251.356 133.41 250.891 133.41V133.41ZM251.943 171.098C251.942 171.33 251.831 171.553 251.634 171.717C251.437 171.881 251.17 171.974 250.891 171.974H207.446C207.168 171.974 206.901 171.881 206.704 171.717C206.507 171.553 206.396 171.33 206.395 171.098V134.871C206.396 134.638 206.507 134.416 206.704 134.252C206.901 134.087 207.168 133.995 207.446 133.994H250.891C251.17 133.995 251.437 134.087 251.634 134.252C251.831 134.416 251.942 134.638 251.943 134.871V171.098Z" fill="#FECACA"/>
</g>
<defs>
<clipPath id="clip0_943:17328">
<rect width="360" height="250" fill="white" transform="translate(20 86)"/>
</clipPath>
</defs>
</svg>
