<svg width="400" height="400" viewBox="0 0 400 400" fill="none" xmlns="http://www.w3.org/2000/svg">
<g clip-path="url(#clip0_943:17281)">
<path d="M146.443 351.3C168.073 351.3 185.607 349.963 185.607 348.314C185.607 346.665 168.073 345.328 146.443 345.328C124.814 345.328 107.279 346.665 107.279 348.314C107.279 349.963 124.814 351.3 146.443 351.3Z" fill="#E6E6E6"/>
<rect x="50" y="48" width="274" height="264" rx="4" fill="#6B7280"/>
<path d="M320.163 311.963H53.8487C52.7362 311.962 51.6696 311.52 50.883 310.733C50.0963 309.947 49.6538 308.881 49.6526 307.769V52.1943C49.6538 51.0823 50.0963 50.0162 50.883 49.2298C51.6696 48.4435 52.7362 48.0012 53.8487 48H320.163C321.275 48.0012 322.342 48.4435 323.128 49.2298C323.915 50.0162 324.358 51.0823 324.359 52.1943V307.769C324.358 308.881 323.915 309.947 323.128 310.733C322.342 311.52 321.275 311.962 320.163 311.963ZM53.8487 49.6777C53.1812 49.6785 52.5413 49.9438 52.0693 50.4156C51.5973 50.8874 51.3318 51.5271 51.3311 52.1943V307.769C51.3318 308.436 51.5973 309.076 52.0693 309.548C52.5413 310.019 53.1812 310.285 53.8487 310.286H320.163C320.83 310.285 321.47 310.019 321.942 309.548C322.414 309.076 322.68 308.436 322.68 307.769V52.1943C322.68 51.5271 322.414 50.8874 321.942 50.4156C321.47 49.9438 320.83 49.6785 320.163 49.6777H53.8487Z" fill="#E6E6E6"/>
<rect x="20" y="91" width="75" height="75" rx="4" fill="#D1D5DB"/>
<path d="M69.2345 70.3698C68.7895 70.3703 68.3629 70.5472 68.0482 70.8617C67.7336 71.1762 67.5566 71.6027 67.5561 72.0475V141.394C67.5566 141.839 67.7336 142.265 68.0482 142.58C68.3629 142.894 68.7895 143.071 69.2345 143.072H138.61C139.055 143.071 139.482 142.894 139.797 142.58C140.111 142.265 140.288 141.839 140.289 141.394V72.0475C140.288 71.6027 140.111 71.1762 139.797 70.8617C139.482 70.5472 139.055 70.3703 138.61 70.3698H69.2345Z" fill="#E6E6E6"/>
<path d="M178.356 120.562C177.824 120.571 177.317 120.789 176.944 121.168C176.571 121.547 176.362 122.057 176.362 122.589C176.362 123.121 176.571 123.632 176.944 124.011C177.317 124.39 177.824 124.607 178.356 124.616H273.959C274.226 124.621 274.491 124.574 274.74 124.476C274.988 124.379 275.214 124.233 275.406 124.048C275.598 123.863 275.752 123.642 275.858 123.397C275.964 123.152 276.021 122.889 276.026 122.623C276.03 122.356 275.982 122.091 275.884 121.843C275.785 121.595 275.639 121.369 275.454 121.178C275.268 120.986 275.046 120.833 274.801 120.728C274.556 120.622 274.293 120.566 274.026 120.562C274.004 120.562 273.982 120.562 273.959 120.562H178.356Z" fill="#E6E6E6"/>
<path d="M178.356 102.107C177.824 102.116 177.317 102.333 176.944 102.713C176.571 103.092 176.362 103.602 176.362 104.134C176.362 104.666 176.571 105.176 176.944 105.556C177.317 105.935 177.824 106.152 178.356 106.161H205.702C205.969 106.166 206.234 106.119 206.483 106.021C206.731 105.924 206.957 105.778 207.149 105.593C207.341 105.408 207.495 105.186 207.601 104.942C207.707 104.697 207.764 104.434 207.769 104.167C207.773 103.901 207.725 103.636 207.627 103.388C207.528 103.14 207.382 102.914 207.197 102.723C207.011 102.531 206.789 102.378 206.544 102.273C206.299 102.167 206.036 102.111 205.769 102.107C205.747 102.107 205.725 102.107 205.702 102.107H178.356Z" fill="#E6E6E6"/>
<path d="M178.356 139.577C177.824 139.585 177.317 139.803 176.944 140.182C176.571 140.561 176.362 141.072 176.362 141.604C176.362 142.135 176.571 142.646 176.944 143.025C177.317 143.404 177.824 143.622 178.356 143.63H273.959C274.496 143.638 275.014 143.432 275.4 143.058C275.785 142.685 276.007 142.173 276.015 141.637C276.024 141.1 275.82 140.582 275.447 140.196C275.074 139.809 274.563 139.587 274.026 139.577C274.004 139.576 273.982 139.576 273.959 139.577H178.356Z" fill="#E6E6E6"/>
<path d="M292.082 212.816H160.694C158.132 212.816 156.057 211.338 156.054 209.517V180.972C156.057 179.15 158.132 177.672 160.694 177.672H292.082C294.643 177.672 296.719 179.15 296.721 180.972V209.516C296.719 211.338 294.643 212.814 292.082 212.816Z" fill="#E6E6E6"/>
<path d="M203.124 282.163H71.7358C69.1745 282.163 67.0988 280.684 67.096 278.863V250.318C67.0988 248.497 69.1745 247.019 71.7358 247.019H203.124C205.685 247.019 207.761 248.497 207.763 250.318V278.862C207.761 280.684 205.685 282.16 203.124 282.163Z" fill="#E6E6E6"/>
<path d="M163.489 297.887H32.1006C29.5393 297.887 27.4636 296.409 27.4608 294.588V266.043C27.4636 264.221 29.5393 262.743 32.1006 262.743H163.489C166.05 262.743 168.126 264.221 168.128 266.043V294.587C168.126 296.409 166.05 297.885 163.489 297.887ZM32.1006 264.062C30.5637 264.062 29.3183 264.949 29.3166 266.042V294.586C29.3166 295.679 30.5637 296.565 32.1006 296.566H163.489C165.025 296.566 166.271 295.679 166.273 294.586V266.043C166.273 264.95 165.025 264.064 163.489 264.063L32.1006 264.062Z" fill="#FECACA"/>
<path d="M210.784 219.688C216.655 219.688 221.414 214.931 221.414 209.062C221.414 203.194 216.655 198.437 210.784 198.437C204.913 198.437 200.154 203.194 200.154 209.062C200.154 214.931 204.913 219.688 210.784 219.688Z" fill="#F87171"/>
<path d="M51.331 290.712C57.2019 290.712 61.9612 285.955 61.9612 280.086C61.9612 274.218 57.2019 269.461 51.331 269.461C45.4602 269.461 40.7009 274.218 40.7009 280.086C40.7009 285.955 45.4602 290.712 51.331 290.712Z" fill="#F87171"/>
<path d="M233.745 201.443C233.213 201.452 232.706 201.669 232.333 202.048C231.96 202.428 231.75 202.938 231.75 203.47C231.75 204.002 231.96 204.512 232.333 204.891C232.706 205.271 233.213 205.488 233.745 205.497H309.766C310.303 205.504 310.821 205.299 311.207 204.925C311.592 204.551 311.814 204.04 311.822 203.503C311.831 202.966 311.627 202.448 311.254 202.062C310.881 201.676 310.37 201.453 309.833 201.443C309.811 201.443 309.789 201.443 309.766 201.443H233.745Z" fill="#FECACA"/>
<path d="M233.745 212.628C233.213 212.637 232.706 212.854 232.333 213.233C231.96 213.612 231.75 214.123 231.75 214.655C231.75 215.187 231.96 215.697 232.333 216.076C232.706 216.456 233.213 216.673 233.745 216.682H309.766C310.303 216.689 310.821 216.484 311.207 216.11C311.592 215.736 311.814 215.225 311.822 214.688C311.831 214.151 311.627 213.633 311.254 213.247C310.881 212.861 310.37 212.638 309.833 212.628C309.811 212.627 309.789 212.627 309.766 212.628H233.745Z" fill="#FECACA"/>
<path d="M74.2922 272.467C73.7602 272.476 73.253 272.693 72.8799 273.072C72.5069 273.452 72.2978 273.962 72.2978 274.494C72.2978 275.026 72.5069 275.536 72.8799 275.915C73.253 276.295 73.7602 276.512 74.2922 276.521H150.314C150.851 276.528 151.369 276.323 151.754 275.949C152.139 275.575 152.361 275.064 152.37 274.527C152.378 273.99 152.174 273.472 151.801 273.086C151.428 272.7 150.917 272.477 150.38 272.467C150.358 272.467 150.336 272.467 150.314 272.467H74.2922Z" fill="#FECACA"/>
<path d="M74.2922 283.652C73.7602 283.661 73.253 283.878 72.8799 284.257C72.5069 284.636 72.2978 285.147 72.2978 285.679C72.2978 286.211 72.5069 286.721 72.8799 287.1C73.253 287.48 73.7602 287.697 74.2922 287.706H150.314C150.851 287.713 151.369 287.508 151.754 287.134C152.139 286.76 152.361 286.249 152.37 285.712C152.378 285.175 152.174 284.657 151.801 284.271C151.428 283.885 150.917 283.662 150.38 283.652C150.358 283.651 150.336 283.651 150.314 283.652H74.2922Z" fill="#FECACA"/>
<path d="M340.569 323.706C353.876 323.706 364.664 312.923 364.664 299.621C364.664 286.319 353.876 275.536 340.569 275.536C327.261 275.536 316.473 286.319 316.473 299.621C316.473 312.923 327.261 323.706 340.569 323.706Z" fill="#DC2626"/>
<path d="M351.549 318.523H344.229V331.633H351.549V318.523Z" fill="#DC2626"/>
<path d="M336.909 318.523H329.588V331.633H336.909V318.523Z" fill="#DC2626"/>
<path d="M345.449 334.072C348.818 334.072 351.549 333.048 351.549 331.786C351.549 330.523 348.818 329.499 345.449 329.499C342.08 329.499 339.349 330.523 339.349 331.786C339.349 333.048 342.08 334.072 345.449 334.072Z" fill="#DC2626"/>
<path d="M330.809 333.767C334.178 333.767 336.909 332.743 336.909 331.481C336.909 330.218 334.178 329.194 330.809 329.194C327.44 329.194 324.708 330.218 324.708 331.481C324.708 332.743 327.44 333.767 330.809 333.767Z" fill="#DC2626"/>
<path d="M339.959 301.755C344.507 301.755 348.194 298.07 348.194 293.524C348.194 288.977 344.507 285.292 339.959 285.292C335.411 285.292 331.724 288.977 331.724 293.524C331.724 298.07 335.411 301.755 339.959 301.755Z" fill="white"/>
<path d="M339.959 296.268C341.475 296.268 342.704 295.039 342.704 293.524C342.704 292.008 341.475 290.78 339.959 290.78C338.443 290.78 337.214 292.008 337.214 293.524C337.214 295.039 338.443 296.268 339.959 296.268Z" fill="#DC2626"/>
<path d="M81.7166 154.234C81.7226 157.927 80.8744 161.571 79.2381 164.882C79.0535 165.262 78.8577 165.631 78.6506 166.001H36.5943C36.3873 165.631 36.1915 165.262 36.0068 164.882C34.4012 161.628 33.5518 158.053 33.5221 154.425C33.4924 150.796 34.2832 147.208 35.8354 143.928C37.3875 140.648 39.6609 137.761 42.4859 135.482C45.3109 133.204 48.6143 131.592 52.1496 130.769C55.6849 129.945 59.3607 129.931 62.9023 130.726C66.444 131.522 69.7602 133.107 72.6031 135.363C75.446 137.619 77.7422 140.488 79.3203 143.756C80.8984 147.024 81.7176 150.606 81.7166 154.234V154.234Z" fill="#DC2626"/>
<path d="M58.2331 156.366C62.7812 156.366 66.4682 152.68 66.4682 148.134C66.4682 143.588 62.7812 139.902 58.2331 139.902C53.6849 139.902 49.9979 143.588 49.9979 148.134C49.9979 152.68 53.6849 156.366 58.2331 156.366Z" fill="white"/>
<path d="M58.2329 150.878C59.7489 150.878 60.9779 149.649 60.9779 148.134C60.9779 146.619 59.7489 145.39 58.2329 145.39C56.7168 145.39 55.4878 146.619 55.4878 148.134C55.4878 149.649 56.7168 150.878 58.2329 150.878Z" fill="#DC2626"/>
<path d="M92.1733 91.0618H22.7974C22.0556 91.0621 21.3442 91.3568 20.8196 91.8811C20.2951 92.4054 20.0003 93.1165 20 93.858V163.204C20.0003 163.946 20.2951 164.657 20.8196 165.181C21.3442 165.706 22.0556 166 22.7974 166.001H92.1733C92.9152 166 93.6265 165.706 94.1511 165.181C94.6757 164.657 94.9705 163.946 94.9707 163.204V93.858C94.9705 93.1165 94.6757 92.4054 94.1511 91.8811C93.6265 91.3568 92.9152 91.0621 92.1733 91.0618V91.0618ZM93.8518 163.204C93.8505 163.649 93.6732 164.075 93.3587 164.389C93.0442 164.704 92.6181 164.881 92.1733 164.882H22.7974C22.3527 164.881 21.9265 164.704 21.612 164.389C21.2975 164.075 21.1203 163.649 21.119 163.204V93.858C21.1203 93.4135 21.2975 92.9875 21.612 92.6731C21.9265 92.3588 22.3527 92.1816 22.7974 92.1803H92.1733C92.6181 92.1816 93.0442 92.3588 93.3587 92.6731C93.6732 92.9875 93.8505 93.4135 93.8518 93.858V163.204Z" fill="#FECACA"/>
<path d="M168.322 297.323C170.698 291.111 171.042 285.47 169.091 284.725C167.139 283.979 163.632 288.411 161.256 294.624C158.881 300.837 158.537 306.477 160.488 307.223C162.439 307.968 165.946 303.536 168.322 297.323Z" fill="#DC2626"/>
<path d="M166.302 318.02C168.434 304.889 159.513 292.518 146.377 290.387C133.242 288.257 120.865 297.173 118.733 310.303C116.602 323.434 125.522 335.805 138.658 337.936C151.794 340.066 164.17 331.15 166.302 318.02Z" fill="#DC2626"/>
<path d="M138.858 333.064H131.538V346.173H138.858V333.064Z" fill="#DC2626"/>
<path d="M153.498 333.064H146.178V346.173H153.498V333.064Z" fill="#DC2626"/>
<path d="M137.638 348.612C141.007 348.612 143.738 347.589 143.738 346.326C143.738 345.063 141.007 344.039 137.638 344.039C134.269 344.039 131.538 345.063 131.538 346.326C131.538 347.589 134.269 348.612 137.638 348.612Z" fill="#DC2626"/>
<path d="M152.278 348.307C155.647 348.307 158.378 347.284 158.378 346.021C158.378 344.758 155.647 343.734 152.278 343.734C148.909 343.734 146.178 344.758 146.178 346.021C146.178 347.284 148.909 348.307 152.278 348.307Z" fill="#DC2626"/>
<path d="M126.264 308.146C127.159 306.26 123.011 302.42 116.999 299.57C110.987 296.72 105.388 295.939 104.493 297.825C103.598 299.712 107.746 303.552 113.757 306.402C119.769 309.252 125.368 310.033 126.264 308.146Z" fill="#DC2626"/>
<path d="M345.601 264.235C358.583 264.235 369.107 253.715 369.107 240.739C369.107 227.763 358.583 217.244 345.601 217.244C332.62 217.244 322.096 227.763 322.096 240.739C322.096 253.715 332.62 264.235 345.601 264.235Z" fill="#DC2626"/>
<path d="M356.398 259.129L349.257 259.162L349.317 271.95L356.458 271.917L356.398 259.129Z" fill="#DC2626"/>
<path d="M342.117 259.195L334.976 259.228L335.035 272.017L342.176 271.983L342.117 259.195Z" fill="#DC2626"/>
<path d="M338.249 275.272C341.088 273.616 342.885 271.411 342.264 270.347C341.643 269.283 338.838 269.763 336 271.419C333.161 273.074 331.364 275.279 331.985 276.343C332.606 277.407 335.411 276.927 338.249 275.272Z" fill="#DC2626"/>
<path d="M352.233 275.207C355.072 273.551 356.869 271.346 356.248 270.282C355.627 269.218 352.822 269.698 349.984 271.354C347.145 273.009 345.348 275.214 345.969 276.278C346.59 277.342 349.395 276.862 352.233 275.207Z" fill="#DC2626"/>
<path d="M344.979 242.824C349.415 242.824 353.012 239.229 353.012 234.794C353.012 230.359 349.415 226.764 344.979 226.764C340.542 226.764 336.945 230.359 336.945 234.794C336.945 239.229 340.542 242.824 344.979 242.824Z" fill="white"/>
<path d="M342.227 234.063C343.706 234.063 344.905 232.865 344.905 231.387C344.905 229.908 343.706 228.71 342.227 228.71C340.748 228.71 339.549 229.908 339.549 231.387C339.549 232.865 340.748 234.063 342.227 234.063Z" fill="#DC2626"/>
<path d="M331.88 233.416C332.673 231.54 328.469 227.972 322.49 225.447C316.511 222.922 311.021 222.396 310.228 224.272C309.435 226.148 313.639 229.716 319.618 232.241C325.597 234.766 331.087 235.292 331.88 233.416Z" fill="#DC2626"/>
<path d="M379.904 252.889C380.697 251.013 376.493 247.445 370.514 244.919C364.535 242.394 359.045 241.868 358.252 243.744C357.459 245.621 361.663 249.189 367.642 251.714C373.621 254.239 379.111 254.765 379.904 252.889Z" fill="#DC2626"/>
<path d="M350.351 250.978C350.356 251.681 350.222 252.379 349.957 253.03C349.691 253.682 349.3 254.275 348.806 254.775C348.311 255.275 347.723 255.673 347.074 255.946C346.426 256.219 345.73 256.362 345.026 256.366C344.322 256.37 343.625 256.235 342.973 255.969C342.322 255.704 341.729 255.312 341.229 254.818C340.728 254.323 340.331 253.734 340.058 253.086C339.786 252.437 339.644 251.742 339.64 251.038L339.64 251.028C339.626 248.071 342.021 247.448 344.979 247.434C347.937 247.42 350.338 248.021 350.351 250.978Z" fill="white"/>
<path d="M326.263 226.771H194.875C192.314 226.771 190.238 225.293 190.235 223.471V194.926C190.238 193.105 192.314 191.627 194.875 191.627H326.263C328.824 191.627 330.9 193.105 330.903 194.926V223.471C330.9 225.292 328.824 226.769 326.263 226.771ZM194.875 192.946C193.338 192.946 192.093 193.833 192.091 194.925V223.47C192.091 224.562 193.338 225.448 194.875 225.449H326.263C327.8 225.449 329.045 224.562 329.047 223.47V194.926C329.047 193.834 327.8 192.948 326.263 192.947L194.875 192.946Z" fill="#FECACA"/>
</g>
<defs>
<clipPath id="clip0_943:17281">
<rect width="360" height="303.3" fill="white" transform="translate(20 48)"/>
</clipPath>
</defs>
</svg>
