<svg width="400" height="400" viewBox="0 0 400 400" fill="none" xmlns="http://www.w3.org/2000/svg">
<g clip-path="url(#clip0_943:17215)">
<path d="M312.746 168.077C293.581 153.757 263.564 140.214 230.391 130.922C200.188 122.46 170.729 118.375 147.434 119.419L147.312 116.711C170.885 115.656 200.65 119.775 231.123 128.312C264.605 137.691 294.947 151.394 314.369 165.906L312.746 168.077Z" fill="#991B1B"/>
<path d="M310.756 179.107C310.773 191.794 308.112 204.342 302.946 215.931C302.515 216.901 302.066 217.863 301.599 218.815C292.614 237.207 277.66 252.014 259.174 260.82C240.688 269.627 219.763 271.913 199.81 267.307C179.857 262.7 162.055 251.472 149.307 235.454C136.559 219.436 129.617 199.574 129.614 179.107C129.614 177.012 129.686 174.933 129.829 172.87C129.896 171.822 129.984 170.779 130.092 169.743C132.494 146.67 143.665 125.4 161.302 110.321C178.938 95.2414 201.693 87.5041 224.871 88.7055C248.05 89.9068 269.882 99.9551 285.863 116.777C301.844 133.598 310.755 155.91 310.756 179.107H310.756Z" fill="#FEE2E2"/>
<path opacity="0.1" d="M302.946 215.931C302.515 216.901 302.066 217.863 301.599 218.815C298.952 219.102 296.166 219.311 293.241 219.441C290.82 219.549 288.328 219.603 285.781 219.603C263.54 219.603 236.773 215.5 209.428 207.841C178.954 199.304 151.384 187.362 131.795 174.215C131.128 173.768 130.472 173.319 129.829 172.87C129.896 171.822 129.984 170.779 130.092 169.743C131.13 170.483 132.201 171.224 133.305 171.965C152.664 184.956 179.957 196.77 210.16 205.231C237.266 212.825 263.781 216.893 285.768 216.893C288.281 216.893 290.732 216.84 293.119 216.733C296.596 216.576 299.871 216.309 302.946 215.931Z" fill="#EF4444"/>
<path d="M285.782 217.436C263.541 217.436 236.772 213.333 209.429 205.673C178.955 197.136 151.384 185.194 131.794 172.047C111.796 158.625 102.418 145.4 105.389 134.808C108.359 124.216 123.248 117.789 147.312 116.711L147.433 119.419C136.196 119.922 127.037 121.591 120.213 124.38C113.405 127.163 109.296 130.917 108 135.54C106.703 140.162 108.262 145.504 112.631 151.418C117.011 157.345 123.967 163.529 133.306 169.797C152.663 182.788 179.957 194.602 210.161 203.063C237.267 210.657 263.78 214.726 285.768 214.726C288.281 214.726 290.731 214.673 293.118 214.566C304.356 214.063 313.515 212.393 320.339 209.604C327.147 206.822 331.256 203.068 332.552 198.445C334.88 190.145 327.846 179.36 312.746 168.077L314.369 165.906C322.14 171.712 327.892 177.436 331.466 182.917C335.297 188.793 336.541 194.263 335.163 199.176C332.193 209.769 317.304 216.196 293.24 217.274C290.818 217.382 288.328 217.436 285.782 217.436Z" fill="#991B1B"/>
<path d="M222.581 72.2581C223.154 72.2581 223.619 71.7937 223.619 71.2208C223.619 70.6479 223.154 70.1835 222.581 70.1835C222.008 70.1835 221.543 70.6479 221.543 71.2208C221.543 71.7937 222.008 72.2581 222.581 72.2581Z" fill="#F87171"/>
<path d="M84.8928 117.27C85.8789 117.27 86.6782 116.471 86.6782 115.486C86.6782 114.5 85.8789 113.701 84.8928 113.701C83.9067 113.701 83.1073 114.5 83.1073 115.486C83.1073 116.471 83.9067 117.27 84.8928 117.27Z" fill="#F87171"/>
<path d="M81.0873 188.856C83.0353 188.856 84.6145 187.277 84.6145 185.331C84.6145 183.384 83.0353 181.805 81.0873 181.805C79.1393 181.805 77.5602 183.384 77.5602 185.331C77.5602 187.277 79.1393 188.856 81.0873 188.856Z" fill="#F87171"/>
<path d="M292.809 79.7941C294.107 79.7941 295.16 78.7422 295.16 77.4446C295.16 76.147 294.107 75.0951 292.809 75.0951C291.511 75.0951 290.458 76.147 290.458 77.4446C290.458 78.7422 291.511 79.7941 292.809 79.7941Z" fill="#F87171"/>
<path d="M376.183 178.772C378.291 178.772 380 177.064 380 174.958C380 172.851 378.291 171.143 376.183 171.143C374.075 171.143 372.367 172.851 372.367 174.958C372.367 177.064 374.075 178.772 376.183 178.772Z" fill="#F87171"/>
<path d="M346.338 115.667C347.243 115.667 347.976 114.935 347.976 114.031C347.976 113.127 347.243 112.394 346.338 112.394C345.434 112.394 344.701 113.127 344.701 114.031C344.701 114.935 345.434 115.667 346.338 115.667Z" fill="#F87171"/>
<path d="M147.51 95.5574C148.921 95.5574 150.064 94.4143 150.064 93.0042C150.064 91.594 148.921 90.4509 147.51 90.4509C146.099 90.4509 144.955 91.594 144.955 93.0042C144.955 94.4143 146.099 95.5574 147.51 95.5574Z" fill="#F87171"/>
<path d="M340.607 168.859C341.511 168.859 342.245 168.126 342.245 167.223C342.245 166.319 341.511 165.586 340.607 165.586C339.703 165.586 338.969 166.319 338.969 167.223C338.969 168.126 339.703 168.859 340.607 168.859Z" fill="#F87171"/>
<path d="M22.0381 175.282C23.1638 175.282 24.0763 174.37 24.0763 173.244C24.0763 172.119 23.1638 171.207 22.0381 171.207C20.9125 171.207 20 172.119 20 173.244C20 174.37 20.9125 175.282 22.0381 175.282Z" fill="#F87171"/>
<path d="M53.0014 141.927C54.2204 141.927 55.2086 140.939 55.2086 139.721C55.2086 138.502 54.2204 137.515 53.0014 137.515C51.7824 137.515 50.7943 138.502 50.7943 139.721C50.7943 140.939 51.7824 141.927 53.0014 141.927Z" fill="#F87171"/>
<path d="M194.722 41.3531H190.366V37H188.03V41.3531H183.672V43.6908H188.03V48.044H190.366V43.6908H194.722V41.3531Z" fill="#F87171"/>
<path d="M295.759 276.91H293.023V274.178H291.556V276.91H288.821V278.377H291.556V281.111H293.023V278.377H295.759V276.91Z" fill="#991B1B"/>
<path d="M358.885 262.919H356.84V260.876H355.742V262.919H353.698V264.016H355.742V266.06H356.84V264.016H358.885V262.919Z" fill="#991B1B"/>
<path opacity="0.1" d="M163.078 171.5C167.281 171.5 170.689 168.094 170.689 163.893C170.689 159.692 167.281 156.286 163.078 156.286C158.874 156.286 155.467 159.692 155.467 163.893C155.467 168.094 158.874 171.5 163.078 171.5Z" fill="#EF4444"/>
<path opacity="0.1" d="M247.144 247.914C251.347 247.914 254.755 244.509 254.755 240.308C254.755 236.106 251.347 232.701 247.144 232.701C242.94 232.701 239.533 236.106 239.533 240.308C239.533 244.509 242.94 247.914 247.144 247.914Z" fill="#EF4444"/>
<path opacity="0.1" d="M221.543 183.256C225.747 183.256 229.154 179.85 229.154 175.649C229.154 171.448 225.747 168.042 221.543 168.042C217.34 168.042 213.932 171.448 213.932 175.649C213.932 179.85 217.34 183.256 221.543 183.256Z" fill="#EF4444"/>
<path opacity="0.1" d="M166.883 225.094C171.086 225.094 174.494 221.688 174.494 217.487C174.494 213.286 171.086 209.88 166.883 209.88C162.68 209.88 159.272 213.286 159.272 217.487C159.272 221.688 162.68 225.094 166.883 225.094Z" fill="#EF4444"/>
<path opacity="0.1" d="M262.366 142.455C266.569 142.455 269.976 139.05 269.976 134.849C269.976 130.647 266.569 127.242 262.366 127.242C258.162 127.242 254.755 130.647 254.755 134.849C254.755 139.05 258.162 142.455 262.366 142.455Z" fill="#EF4444"/>
<path opacity="0.1" d="M287.62 193.975C291.823 193.975 295.231 190.569 295.231 186.368C295.231 182.167 291.823 178.761 287.62 178.761C283.416 178.761 280.009 182.167 280.009 186.368C280.009 190.569 283.416 193.975 287.62 193.975Z" fill="#EF4444"/>
<path d="M262.366 113.065C267.906 113.065 272.398 108.576 272.398 103.038C272.398 97.5 267.906 93.0107 262.366 93.0107C256.825 93.0107 252.333 97.5 252.333 103.038C252.333 108.576 256.825 113.065 262.366 113.065Z" fill="white"/>
<path d="M262.365 88.5157C258.604 88.5157 254.996 90.0093 252.336 92.6679C249.676 95.3265 248.181 98.9323 248.181 102.692C248.181 110.522 262.365 136.232 262.365 136.232C262.365 136.232 276.549 110.522 276.549 102.692C276.549 98.9323 275.055 95.3265 272.395 92.6679C269.735 90.0093 266.127 88.5157 262.365 88.5157ZM262.365 109.608C261.065 109.608 259.795 109.222 258.714 108.5C257.633 107.778 256.79 106.752 256.293 105.552C255.795 104.352 255.665 103.031 255.919 101.756C256.172 100.482 256.798 99.3113 257.718 98.3925C258.637 97.4737 259.808 96.848 261.083 96.5945C262.358 96.3411 263.68 96.4712 264.881 96.9684C266.082 97.4656 267.109 98.3077 267.831 99.3881C268.553 100.468 268.939 101.739 268.939 103.038C268.939 103.901 268.769 104.755 268.438 105.552C268.108 106.349 267.624 107.073 267.013 107.683C266.403 108.293 265.678 108.777 264.881 109.107C264.083 109.438 263.229 109.608 262.365 109.608Z" fill="#F87171"/>
<path d="M163.038 140.264C168.579 140.264 173.071 135.774 173.071 130.236C173.071 124.699 168.579 120.209 163.038 120.209C157.497 120.209 153.006 124.699 153.006 130.236C153.006 135.774 157.497 140.264 163.038 140.264Z" fill="white"/>
<path d="M163.038 115.714C159.276 115.714 155.669 117.208 153.009 119.866C150.349 122.525 148.854 126.131 148.854 129.891C148.854 137.72 163.038 163.43 163.038 163.43C163.038 163.43 177.222 137.72 177.222 129.891C177.222 126.131 175.728 122.525 173.068 119.866C170.408 117.208 166.8 115.714 163.038 115.714V115.714ZM163.038 136.806C161.738 136.806 160.467 136.421 159.386 135.699C158.306 134.977 157.463 133.951 156.966 132.75C156.468 131.55 156.338 130.229 156.591 128.955C156.845 127.68 157.471 126.51 158.39 125.591C159.31 124.672 160.481 124.047 161.756 123.793C163.031 123.54 164.353 123.67 165.554 124.167C166.755 124.664 167.781 125.506 168.504 126.587C169.226 127.667 169.611 128.937 169.611 130.236C169.611 131.099 169.441 131.953 169.111 132.751C168.781 133.548 168.297 134.272 167.686 134.882C167.076 135.492 166.351 135.976 165.554 136.306C164.756 136.636 163.901 136.806 163.038 136.806V136.806Z" fill="#991B1B"/>
<path d="M288.898 163.382C294.439 163.382 298.931 158.893 298.931 153.355C298.931 147.817 294.439 143.328 288.898 143.328C283.357 143.328 278.866 147.817 278.866 153.355C278.866 158.893 283.357 163.382 288.898 163.382Z" fill="white"/>
<path d="M288.898 138.833C285.136 138.833 281.529 140.327 278.869 142.985C276.209 145.644 274.714 149.25 274.714 153.009C274.714 160.839 288.898 186.549 288.898 186.549C288.898 186.549 303.082 160.839 303.082 153.009C303.082 149.25 301.588 145.644 298.928 142.985C296.268 140.327 292.66 138.833 288.898 138.833V138.833ZM288.898 159.925C287.598 159.925 286.327 159.539 285.246 158.818C284.165 158.096 283.323 157.07 282.825 155.869C282.328 154.669 282.198 153.348 282.451 152.073C282.705 150.799 283.331 149.629 284.25 148.71C285.169 147.791 286.341 147.165 287.616 146.912C288.891 146.658 290.212 146.788 291.414 147.286C292.615 147.783 293.641 148.625 294.363 149.705C295.086 150.786 295.471 152.056 295.471 153.355C295.471 154.218 295.301 155.072 294.971 155.869C294.641 156.666 294.156 157.391 293.546 158.001C292.936 158.611 292.211 159.095 291.413 159.425C290.616 159.755 289.761 159.925 288.898 159.925Z" fill="#991B1B"/>
<path d="M118.817 213.7C124.358 213.7 128.85 209.21 128.85 203.672C128.85 198.134 124.358 193.645 118.817 193.645C113.276 193.645 108.785 198.134 108.785 203.672C108.785 209.21 113.276 213.7 118.817 213.7Z" fill="white"/>
<path d="M118.817 189.15C115.055 189.15 111.448 190.644 108.788 193.302C106.128 195.961 104.633 199.567 104.633 203.327C104.633 211.156 118.817 236.866 118.817 236.866C118.817 236.866 133.001 211.156 133.001 203.327C133.001 199.567 131.507 195.961 128.847 193.302C126.187 190.644 122.579 189.15 118.817 189.15ZM118.817 210.242C117.517 210.242 116.246 209.857 115.165 209.135C114.085 208.413 113.242 207.387 112.745 206.186C112.247 204.986 112.117 203.665 112.371 202.391C112.624 201.116 113.25 199.946 114.169 199.027C115.089 198.108 116.26 197.482 117.535 197.229C118.81 196.976 120.132 197.106 121.333 197.603C122.534 198.1 123.56 198.942 124.283 200.023C125.005 201.103 125.39 202.373 125.39 203.672C125.39 204.535 125.22 205.389 124.89 206.186C124.56 206.984 124.076 207.708 123.465 208.318C122.855 208.928 122.13 209.412 121.333 209.742C120.535 210.072 119.68 210.242 118.817 210.242V210.242Z" fill="#F87171"/>
<path d="M349.746 284.187C351.693 282.557 349.062 276.21 343.867 270.009C338.673 263.809 332.884 260.104 330.937 261.734C328.989 263.363 331.621 269.711 336.815 275.911C342.009 282.111 347.798 285.817 349.746 284.187Z" fill="#DC2626"/>
<path d="M309.178 297.16C325.359 297.16 338.477 284.049 338.477 267.876C338.477 251.702 325.359 238.591 309.178 238.591C292.996 238.591 279.878 251.702 279.878 267.876C279.878 284.049 292.996 297.16 309.178 297.16Z" fill="#DC2626"/>
<path d="M321.579 290.858H312.678V306.797H321.579V290.858Z" fill="#DC2626"/>
<path d="M303.777 290.858H294.876V306.797H303.777V290.858Z" fill="#DC2626"/>
<path d="M314.161 309.763C318.258 309.763 321.579 308.518 321.579 306.983C321.579 305.447 318.258 304.203 314.161 304.203C310.065 304.203 306.744 305.447 306.744 306.983C306.744 308.518 310.065 309.763 314.161 309.763Z" fill="#DC2626"/>
<path d="M296.359 309.392C300.456 309.392 303.777 308.148 303.777 306.612C303.777 305.077 300.456 303.832 296.359 303.832C292.262 303.832 288.941 305.077 288.941 306.612C288.941 308.148 292.262 309.392 296.359 309.392Z" fill="#DC2626"/>
<path d="M289.413 260.562C290.501 258.268 285.458 253.6 278.147 250.134C270.837 246.669 264.028 245.719 262.94 248.013C261.851 250.307 266.895 254.975 274.206 258.441C281.516 261.906 288.324 262.856 289.413 260.562Z" fill="#DC2626"/>
<path d="M304.797 271.46C310.192 271.46 314.566 267.088 314.566 261.696C314.566 256.304 310.192 251.933 304.797 251.933C299.402 251.933 295.029 256.304 295.029 261.696C295.029 267.088 299.402 271.46 304.797 271.46Z" fill="white"/>
<path d="M300.782 261.451C302.581 261.451 304.039 259.994 304.039 258.197C304.039 256.399 302.581 254.942 300.782 254.942C298.984 254.942 297.526 256.399 297.526 258.197C297.526 259.994 298.984 261.451 300.782 261.451Z" fill="#991B1B"/>
<path d="M310.925 282.038C311.078 282.879 311.064 283.741 310.884 284.577C310.703 285.412 310.36 286.204 309.873 286.907C309.387 287.61 308.766 288.21 308.048 288.673C307.329 289.137 306.526 289.454 305.684 289.607C304.843 289.76 303.98 289.746 303.144 289.566C302.308 289.385 301.516 289.042 300.812 288.556C300.109 288.069 299.509 287.449 299.045 286.731C298.582 286.013 298.264 285.21 298.111 284.369V284.369L298.109 284.357C297.468 280.819 300.204 279.568 303.744 278.927C307.283 278.287 310.284 278.5 310.925 282.038Z" fill="white"/>
<path d="M248.836 205.664C245.822 203.122 242.135 201.511 238.222 201.026C234.309 200.541 230.339 201.203 226.796 202.932C223.252 204.661 220.288 207.382 218.264 210.764C216.239 214.146 215.242 218.043 215.393 221.981C215.545 225.919 216.838 229.728 219.116 232.945C221.393 236.162 224.558 238.648 228.223 240.1C231.889 241.552 235.898 241.908 239.762 241.125C243.626 240.341 247.18 238.452 249.989 235.687L274.939 256.729C275.319 257.049 275.81 257.205 276.305 257.164C276.8 257.122 277.259 256.886 277.579 256.507C277.9 256.127 278.057 255.636 278.016 255.142C277.975 254.647 277.739 254.188 277.359 253.868L277.357 253.865L252.407 232.824C255.305 228.666 256.546 223.577 255.885 218.552C255.225 213.528 252.711 208.932 248.836 205.664V205.664ZM247.228 230.798C245.284 233.1 242.701 234.774 239.805 235.609C236.909 236.444 233.83 236.402 230.958 235.489C228.086 234.575 225.55 232.831 223.67 230.476C221.79 228.122 220.65 225.263 220.396 222.261C220.142 219.259 220.783 216.25 222.24 213.613C223.697 210.976 225.904 208.83 228.581 207.446C231.259 206.062 234.286 205.503 237.281 205.839C240.277 206.176 243.105 207.392 245.408 209.335V209.335C248.497 211.94 250.424 215.664 250.765 219.689C251.107 223.715 249.834 227.71 247.228 230.798V230.798Z" fill="#991B1B"/>
<path opacity="0.3" d="M225.753 232.616C222.83 230.15 220.941 226.676 220.462 222.883C219.983 219.089 220.948 215.255 223.167 212.14C222.876 212.434 222.594 212.741 222.322 213.062C221.032 214.591 220.055 216.358 219.448 218.264C218.841 220.17 218.615 222.177 218.784 224.17C218.953 226.163 219.513 228.103 220.432 229.88C221.352 231.657 222.612 233.235 224.141 234.525C225.671 235.815 227.44 236.791 229.347 237.398C231.254 238.004 233.261 238.23 235.255 238.061C237.25 237.892 239.191 237.332 240.968 236.414C242.746 235.495 244.325 234.235 245.616 232.707C245.887 232.385 246.143 232.056 246.383 231.719C243.684 234.429 240.065 236.025 236.243 236.192C232.421 236.358 228.677 235.081 225.753 232.616V232.616Z" fill="#EF4444"/>
<path d="M120.677 247.403C123.565 239.849 123.984 232.991 121.611 232.085C119.239 231.178 114.973 236.567 112.085 244.121C109.196 251.674 108.778 258.532 111.15 259.439C113.523 260.345 117.788 254.956 120.677 247.403Z" fill="#DC2626"/>
<path d="M89.299 297.16C105.481 297.16 118.599 284.049 118.599 267.875C118.599 251.702 105.481 238.591 89.299 238.591C73.1173 238.591 59.9993 251.702 59.9993 267.875C59.9993 284.049 73.1173 297.16 89.299 297.16Z" fill="#DC2626"/>
<path d="M84.8484 290.858H75.9473V306.797H84.8484V290.858Z" fill="#DC2626"/>
<path d="M102.651 290.858H93.7496V306.797H102.651V290.858Z" fill="#DC2626"/>
<path d="M83.3649 309.763C87.4616 309.763 90.7826 308.518 90.7826 306.983C90.7826 305.447 87.4616 304.203 83.3649 304.203C79.2683 304.203 75.9473 305.447 75.9473 306.983C75.9473 308.518 79.2683 309.763 83.3649 309.763Z" fill="#DC2626"/>
<path d="M101.167 309.392C105.264 309.392 108.585 308.148 108.585 306.612C108.585 305.077 105.264 303.832 101.167 303.832C97.0706 303.832 93.7496 305.077 93.7496 306.612C93.7496 308.148 97.0706 309.392 101.167 309.392Z" fill="#DC2626"/>
<path d="M90.0408 270.47C95.5713 270.47 100.055 265.989 100.055 260.462C100.055 254.934 95.5713 250.453 90.0408 250.453C84.5103 250.453 80.027 254.934 80.027 260.462C80.027 265.989 84.5103 270.47 90.0408 270.47Z" fill="white"/>
<path d="M90.0408 263.798C91.8843 263.798 93.3787 262.304 93.3787 260.462C93.3787 258.619 91.8843 257.126 90.0408 257.126C88.1973 257.126 86.7028 258.619 86.7028 260.462C86.7028 262.304 88.1973 263.798 90.0408 263.798Z" fill="#991B1B"/>
<path d="M69.5344 260.562C70.6229 258.268 65.579 253.6 58.2687 250.134C50.9583 246.669 44.1497 245.719 43.0613 248.013C41.9728 250.307 47.0167 254.975 54.327 258.441C61.6374 261.906 68.4459 262.856 69.5344 260.562Z" fill="#DC2626"/>
<path d="M74.9071 278.44C74.9071 281.306 82.2908 286.966 90.4842 286.966C98.6775 286.966 106.36 278.897 106.36 276.031C106.36 273.164 98.6775 276.587 90.4842 276.587C82.2909 276.587 74.9071 275.574 74.9071 278.44Z" fill="white"/>
<path d="M184.353 350.197C200.535 350.197 213.653 337.086 213.653 320.912C213.653 304.739 200.535 291.628 184.353 291.628C168.172 291.628 155.054 304.739 155.054 320.912C155.054 337.086 168.172 350.197 184.353 350.197Z" fill="#DC2626"/>
<path d="M179.903 343.895H171.001V359.834H179.903V343.895Z" fill="#DC2626"/>
<path d="M197.705 343.895H188.804V359.834H197.705V343.895Z" fill="#DC2626"/>
<path d="M178.419 362.8C182.516 362.8 185.837 361.555 185.837 360.02C185.837 358.484 182.516 357.24 178.419 357.24C174.322 357.24 171.001 358.484 171.001 360.02C171.001 361.555 174.322 362.8 178.419 362.8Z" fill="#DC2626"/>
<path d="M196.221 362.429C200.318 362.429 203.639 361.185 203.639 359.649C203.639 358.114 200.318 356.869 196.221 356.869C192.125 356.869 188.804 358.114 188.804 359.649C188.804 361.185 192.125 362.429 196.221 362.429Z" fill="#DC2626"/>
<path d="M184.471 315.838C184.471 315.838 186.596 306.491 182.558 306.916C178.52 307.341 172.994 307.554 171.506 307.554C170.018 307.554 161.516 306.491 160.241 312.015C158.966 317.538 157.266 324.335 160.879 328.584C160.879 328.584 162.154 347.278 167.042 348.552C171.931 349.827 184.896 351.314 189.572 345.153C190.941 343.321 191.897 341.214 192.374 338.977C192.851 336.74 192.837 334.426 192.335 332.195H190.209L184.471 315.838Z" fill="#F87171"/>
<path opacity="0.1" d="M163.004 330.071C163.004 330.071 166.617 331.77 174.056 330.708V333.895L163.004 333.045V330.071Z" fill="#EF4444"/>
<path d="M190.007 340.722L187.601 339.451L198.302 319.212C198.704 318.452 198.905 317.602 198.887 316.743C198.868 315.884 198.631 315.043 198.197 314.301C197.763 313.559 197.147 312.94 196.407 312.502C195.667 312.065 194.828 311.823 193.968 311.8L182.738 311.498L182.811 308.778L194.041 309.081C195.364 309.116 196.655 309.488 197.793 310.162C198.932 310.835 199.879 311.788 200.547 312.929C201.214 314.07 201.579 315.363 201.607 316.685C201.636 318.007 201.326 319.314 200.708 320.483L190.007 340.722Z" fill="#F87171"/>
<path d="M164.143 340.722L153.441 320.483C152.823 319.314 152.514 318.007 152.542 316.685C152.57 315.363 152.935 314.07 153.603 312.929C154.27 311.788 155.218 310.835 156.356 310.162C157.494 309.488 158.786 309.116 160.108 309.081L171.338 308.778L171.412 311.498L160.181 311.8C159.322 311.823 158.482 312.065 157.742 312.502C157.002 312.94 156.386 313.559 155.952 314.301C155.518 315.043 155.281 315.884 155.263 316.743C155.244 317.602 155.446 318.452 155.847 319.212L166.549 339.451L164.143 340.722Z" fill="#F87171"/>
<path d="M221.923 328.427C223.241 325.937 217.876 320.517 209.941 316.322C202.006 312.126 194.504 310.744 193.187 313.234C191.869 315.723 197.233 321.143 205.169 325.338C213.104 329.534 220.605 330.916 221.923 328.427Z" fill="#DC2626"/>
</g>
<defs>
<clipPath id="clip0_943:17215">
<rect width="360" height="325.8" fill="white" transform="translate(20 37)"/>
</clipPath>
</defs>
</svg>
